Varta-Regular.ufo
<glyph name="exclam" format="1">
  <advance width="590"/>
  <unicode hex="0021"/>
  <outline>
    <contour>
      <point x="238" y="405" type="line" name="hr01"/>
      <point x="353" y="405" type="line"/>
      <point x="375" y="1181" type="line"/>
      <point x="379" y="1372" type="line"/>
      <point x="211" y="1372" type="line"/>
      <point x="215" y="1181" type="line"/>
    </contour>
    <contour>
      <point x="174" y="101" type="curve" name="hr02" smooth="yes"/>
      <point x="174" y="29"/>
      <point x="229" y="-25"/>
      <point x="296" y="-25" type="curve" smooth="yes"/>
      <point x="361" y="-25"/>
      <point x="416" y="29"/>
      <point x="416" y="101" type="curve" smooth="yes"/>
      <point x="416" y="179"/>
      <point x="361" y="231"/>
      <point x="296" y="231" type="curve" smooth="yes"/>
      <point x="229" y="231"/>
      <point x="174" y="179"/>
    </contour>
  </outline>
</glyph>
<glyph name="numbersign" format="1">
  <advance width="1017"/>
  <unicode hex="0023"/>
  <outline>
    <contour>
      <point x="184" y="0" type="line" name="hr00"/>
      <point x="294" y="0" type="line"/>
      <point x="345" y="419" type="line"/>
      <point x="616" y="419" type="line"/>
      <point x="567" y="0" type="line"/>
      <point x="675" y="0" type="line"/>
      <point x="726" y="419" type="line"/>
      <point x="914" y="419" type="line"/>
      <point x="914" y="534" type="line"/>
      <point x="740" y="534" type="line"/>
      <point x="777" y="839" type="line"/>
      <point x="955" y="839" type="line"/>
      <point x="955" y="955" type="line"/>
      <point x="790" y="955" type="line"/>
      <point x="839" y="1331" type="line"/>
      <point x="731" y="1331" type="line"/>
      <point x="682" y="955" type="line"/>
      <point x="409" y="955" type="line"/>
      <point x="456" y="1331" type="line"/>
      <point x="348" y="1331" type="line"/>
      <point x="301" y="955" type="line"/>
      <point x="113" y="955" type="line"/>
      <point x="113" y="839" type="line"/>
      <point x="287" y="839" type="line"/>
      <point x="250" y="534" type="line"/>
      <point x="72" y="534" type="line"/>
      <point x="72" y="419" type="line"/>
      <point x="236" y="419" type="line"/>
    </contour>
    <contour>
      <point x="359" y="534" type="line"/>
      <point x="396" y="839" type="line"/>
      <point x="668" y="839" type="line"/>
      <point x="631" y="534" type="line"/>
    </contour>
  </outline>
</glyph>
<glyph name="ampersand" format="1">
  <advance width="1245"/>
  <unicode hex="0026"/>
  <outline>
    <contour>
      <point x="227" y="358" type="curve" name="hr01" smooth="yes"/>
      <point x="227" y="463"/>
      <point x="302" y="544"/>
      <point x="397" y="619" type="curve"/>
      <point x="492" y="476"/>
      <point x="618" y="334"/>
      <point x="751" y="218" type="curve"/>
      <point x="672" y="151"/>
      <point x="586" y="110"/>
      <point x="493" y="110" type="curve" smooth="yes"/>
      <point x="345" y="110"/>
      <point x="227" y="208"/>
    </contour>
    <contour>
      <point x="386" y="1054" type="curve" name="hr02" smooth="yes"/>
      <point x="386" y="1164"/>
      <point x="447" y="1248"/>
      <point x="548" y="1248" type="curve" smooth="yes"/>
      <point x="638" y="1248"/>
      <point x="680" y="1179"/>
      <point x="680" y="1101" type="curve" smooth="yes"/>
      <point x="680" y="966"/>
      <point x="572" y="896"/>
      <point x="449" y="813" type="curve"/>
      <point x="410" y="896"/>
      <point x="386" y="979"/>
    </contour>
    <contour>
      <point x="1215" y="113" type="line"/>
      <point x="1141" y="134"/>
      <point x="1055" y="179"/>
      <point x="963" y="243" type="curve"/>
      <point x="1069" y="384"/>
      <point x="1145" y="548"/>
      <point x="1198" y="725" type="curve"/>
      <point x="1042" y="725" type="line"/>
      <point x="1001" y="570"/>
      <point x="936" y="437"/>
      <point x="853" y="326" type="curve"/>
      <point x="726" y="433"/>
      <point x="601" y="567"/>
      <point x="512" y="706" type="curve"/>
      <point x="663" y="814"/>
      <point x="818" y="912"/>
      <point x="818" y="1108" type="curve" smooth="yes"/>
      <point x="818" y="1265"/>
      <point x="713" y="1368"/>
      <point x="548" y="1368" type="curve" smooth="yes"/>
      <point x="362" y="1368"/>
      <point x="242" y="1229"/>
      <point x="242" y="1052" type="curve" smooth="yes"/>
      <point x="242" y="952"/>
      <point x="275" y="846"/>
      <point x="331" y="735" type="curve"/>
      <point x="193" y="641"/>
      <point x="66" y="528"/>
      <point x="66" y="348" type="curve" name="hr03" smooth="yes"/>
      <point x="66" y="131"/>
      <point x="231" y="-25"/>
      <point x="475" y="-25" type="curve" smooth="yes"/>
      <point x="633" y="-25"/>
      <point x="759" y="37"/>
      <point x="861" y="129" type="curve"/>
      <point x="970" y="53"/>
      <point x="1076" y="2"/>
      <point x="1170" y="-25" type="curve"/>
    </contour>
  </outline>
</glyph>
<glyph name="quotesingle" format="1">
  <advance width="508"/>
  <unicode hex="0027"/>
  <outline>
    <contour>
      <point x="203" y="866" type="line" name="hr00"/>
      <point x="304" y="866" type="line"/>
      <point x="336" y="1226" type="line"/>
      <point x="342" y="1413" type="line"/>
      <point x="164" y="1413" type="line"/>
      <point x="170" y="1226" type="line"/>
    </contour>
  </outline>
</glyph>
<glyph name="period" format="1">
  <advance width="508"/>
  <unicode hex="002E"/>
  <outline>
    <contour>
      <point x="133" y="101" type="curve" name="hr00" smooth="yes"/>
      <point x="133" y="29"/>
      <point x="188" y="-25"/>
      <point x="255" y="-25" type="curve" smooth="yes"/>
      <point x="321" y="-25"/>
      <point x="375" y="29"/>
      <point x="375" y="101" type="curve" smooth="yes"/>
      <point x="375" y="179"/>
      <point x="321" y="231"/>
      <point x="255" y="231" type="curve" smooth="yes"/>
      <point x="188" y="231"/>
      <point x="133" y="179"/>
    </contour>
  </outline>
</glyph>
<glyph name="slash" format="1">
  <advance width="717"/>
  <unicode hex="002F"/>
  <outline>
    <contour>
      <point x="20" y="-328" type="line" name="hr00"/>
      <point x="144" y="-328" type="line"/>
      <point x="691" y="1454" type="line"/>
      <point x="569" y="1454" type="line"/>
    </contour>
  </outline>
</glyph>
<glyph name="one" format="1">
  <advance width="1017"/>
  <unicode hex="0031"/>
  <outline>
    <contour>
      <point x="162" y="0" type="line" name="hr01"/>
      <point x="898" y="0" type="line"/>
      <point x="898" y="137" type="line"/>
      <point x="628" y="137" type="line"/>
      <point x="628" y="1348" type="line"/>
      <point x="500" y="1348" type="line"/>
      <point x="428" y="1305"/>
      <point x="342" y="1272"/>
      <point x="224" y="1251" type="curve"/>
      <point x="224" y="1144" type="line" name="hr02"/>
      <point x="461" y="1155" type="line"/>
      <point x="461" y="137" type="line"/>
      <point x="162" y="137" type="line"/>
    </contour>
  </outline>
</glyph>
<glyph name="two" format="1">
  <advance width="1017"/>
  <unicode hex="0032"/>
  <outline>
    <contour>
      <point x="82" y="0" type="line" name="hr00"/>
      <point x="925" y="0" type="line"/>
      <point x="925" y="143" type="line"/>
      <point x="544" y="143" type="line"/>
      <point x="476" y="143"/>
      <point x="396" y="137"/>
      <point x="325" y="131" type="curve"/>
      <point x="636" y="457"/>
      <point x="859" y="733"/>
      <point x="859" y="987" type="curve" smooth="yes"/>
      <point x="859" y="1220"/>
      <point x="710" y="1368"/>
      <point x="466" y="1368" type="curve" smooth="yes"/>
      <point x="296" y="1368"/>
      <point x="179" y="1295"/>
      <point x="71" y="1177" type="curve"/>
      <point x="166" y="1081" type="line"/>
      <point x="242" y="1169"/>
      <point x="337" y="1233"/>
      <point x="446" y="1233" type="curve" smooth="yes"/>
      <point x="616" y="1233"/>
      <point x="697" y="1125"/>
      <point x="697" y="976" type="curve" smooth="yes"/>
      <point x="697" y="764"/>
      <point x="476" y="492"/>
      <point x="82" y="99" type="curve"/>
    </contour>
  </outline>
</glyph>
<glyph name="three" format="1">
  <advance width="1017"/>
  <unicode hex="0033"/>
  <outline>
    <contour>
      <point x="53" y="160" type="line" name="hr01"/>
      <point x="141" y="63"/>
      <point x="274" y="-25"/>
      <point x="483" y="-25" type="curve" smooth="yes"/>
      <point x="732" y="-25"/>
      <point x="912" y="117"/>
      <point x="912" y="348" type="curve" smooth="yes"/>
      <point x="912" y="528"/>
      <point x="787" y="644"/>
      <point x="630" y="680" type="curve"/>
      <point x="630" y="688" type="line"/>
      <point x="771" y="741"/>
      <point x="867" y="863"/>
      <point x="867" y="1020" type="curve" name="hr02" smooth="yes"/>
      <point x="867" y="1231"/>
      <point x="714" y="1368"/>
      <point x="477" y="1368" type="curve" smooth="yes"/>
      <point x="324" y="1368"/>
      <point x="203" y="1307"/>
      <point x="102" y="1212" type="curve"/>
      <point x="192" y="1107" type="line"/>
      <point x="269" y="1185"/>
      <point x="362" y="1233"/>
      <point x="471" y="1233" type="curve" smooth="yes"/>
      <point x="610" y="1233"/>
      <point x="697" y="1146"/>
      <point x="697" y="1008" type="curve" smooth="yes"/>
      <point x="697" y="871"/>
      <point x="605" y="743"/>
      <point x="326" y="743" type="curve"/>
      <point x="326" y="615" type="line"/>
      <point x="637" y="615"/>
      <point x="744" y="511"/>
      <point x="744" y="354" type="curve" name="hr03" smooth="yes"/>
      <point x="744" y="199"/>
      <point x="632" y="113"/>
      <point x="473" y="113" type="curve" smooth="yes"/>
      <point x="318" y="113"/>
      <point x="216" y="187"/>
      <point x="138" y="269" type="curve"/>
    </contour>
  </outline>
</glyph>
<glyph name="five" format="1">
  <advance width="1017"/>
  <unicode hex="0035"/>
  <outline>
    <contour>
      <point x="51" y="154" type="line" name="hr00"/>
      <point x="141" y="63"/>
      <point x="270" y="-25"/>
      <point x="479" y="-25" type="curve" smooth="yes"/>
      <point x="706" y="-25"/>
      <point x="919" y="145"/>
      <point x="919" y="437" type="curve" smooth="yes"/>
      <point x="919" y="719"/>
      <point x="739" y="870"/>
      <point x="513" y="870" type="curve" smooth="yes"/>
      <point x="433" y="870"/>
      <point x="374" y="850"/>
      <point x="311" y="817" type="curve"/>
      <point x="347" y="1204" type="line"/>
      <point x="853" y="1204" type="line"/>
      <point x="853" y="1348" type="line"/>
      <point x="201" y="1348" type="line"/>
      <point x="158" y="722" type="line"/>
      <point x="247" y="665" type="line"/>
      <point x="325" y="716"/>
      <point x="381" y="744"/>
      <point x="471" y="744" type="curve" smooth="yes"/>
      <point x="649" y="744"/>
      <point x="751" y="614"/>
      <point x="751" y="433" type="curve" smooth="yes"/>
      <point x="751" y="240"/>
      <point x="623" y="113"/>
      <point x="463" y="113" type="curve" smooth="yes"/>
      <point x="308" y="113"/>
      <point x="211" y="185"/>
      <point x="133" y="263" type="curve"/>
    </contour>
  </outline>
</glyph>
<glyph name="seven" format="1">
  <advance width="1017"/>
  <unicode hex="0037"/>
  <outline>
    <contour>
      <point x="363" y="0" type="curve" name="hr00"/>
      <point x="536" y="0" type="line"/>
      <point x="552" y="510"/>
      <point x="622" y="849"/>
      <point x="931" y="1244" type="curve"/>
      <point x="931" y="1348" type="line"/>
      <point x="90" y="1348" type="line"/>
      <point x="90" y="1204" type="line"/>
      <point x="742" y="1204" type="line"/>
      <point x="484" y="846"/>
      <point x="379" y="493"/>
    </contour>
  </outline>
</glyph>
<glyph name="less" format="1">
  <advance width="1017"/>
  <unicode hex="003C"/>
  <outline>
    <contour>
      <point x="70" y="613" type="line" name="hr00"/>
      <point x="947" y="269" type="line"/>
      <point x="947" y="413" type="line"/>
      <point x="514" y="573" type="line"/>
      <point x="240" y="676" type="line"/>
      <point x="240" y="684" type="line"/>
      <point x="514" y="786" type="line"/>
      <point x="947" y="947" type="line"/>
      <point x="947" y="1091" type="line"/>
      <point x="70" y="747" type="line"/>
    </contour>
  </outline>
</glyph>
<glyph name="A" format="1">
  <advance width="1101"/>
  <unicode hex="0041"/>
  <outline>
    <contour>
      <point x="345" y="547" type="line" name="hr00"/>
      <point x="411" y="753" type="line"/>
      <point x="458" y="902"/>
      <point x="501" y="1050"/>
      <point x="545" y="1205" type="curve"/>
      <point x="553" y="1205" type="line"/>
      <point x="596" y="1050"/>
      <point x="639" y="902"/>
      <point x="686" y="753" type="curve" smooth="yes"/>
      <point x="751" y="547" type="line"/>
    </contour>
    <contour>
      <point x="923" y="0" type="line"/>
      <point x="1101" y="0" type="line"/>
      <point x="645" y="1343" type="line"/>
      <point x="456" y="1343" type="line"/>
      <point x="0" y="0" type="line"/>
      <point x="172" y="0" type="line"/>
      <point x="302" y="411" type="line"/>
      <point x="793" y="411" type="line"/>
    </contour>
    <contour>
      <point x="550" y="1050" type="move" name="top"/>
    </contour>
  </outline>
</glyph>
<glyph name="B" format="1">
  <advance width="1193"/>
  <unicode hex="0042"/>
  <outline>
    <contour>
      <point x="178" y="0" type="line" name="hr01"/>
      <point x="613" y="0" type="line"/>
      <point x="912" y="0"/>
      <point x="1115" y="129"/>
      <point x="1115" y="397" type="curve" smooth="yes"/>
      <point x="1115" y="585"/>
      <point x="1000" y="701"/>
      <point x="804" y="715" type="curve"/>
      <point x="804" y="723" type="line"/>
      <point x="978" y="757"/>
      <point x="1039" y="884"/>
      <point x="1039" y="1020" type="curve" name="hr02" smooth="yes"/>
      <point x="1039" y="1261"/>
      <point x="858" y="1343"/>
      <point x="586" y="1343" type="curve" smooth="yes"/>
      <point x="178" y="1343" type="line"/>
    </contour>
    <contour>
      <point x="348" y="770" type="line"/>
      <point x="348" y="1210" type="line"/>
      <point x="565" y="1210" type="line"/>
      <point x="773" y="1210"/>
      <point x="873" y="1155"/>
      <point x="873" y="1005" type="curve" smooth="yes"/>
      <point x="873" y="852"/>
      <point x="782" y="770"/>
      <point x="554" y="770" type="curve" smooth="yes"/>
    </contour>
    <contour>
      <point x="348" y="134" type="line"/>
      <point x="348" y="644" type="line"/>
      <point x="589" y="644" type="line"/>
      <point x="825" y="644"/>
      <point x="949" y="574"/>
      <point x="949" y="405" type="curve" name="hr03" smooth="yes"/>
      <point x="949" y="219"/>
      <point x="819" y="134"/>
      <point x="589" y="134" type="curve" smooth="yes"/>
    </contour>
    <contour>
      <point x="646" y="1050" type="move" name="top"/>
    </contour>
  </outline>
</glyph>
<glyph name="E" format="1">
  <advance width="1068"/>
  <unicode hex="0045"/>
  <outline>
    <contour>
      <point x="178" y="0" type="line" name="hr00"/>
      <point x="972" y="0" type="line"/>
      <point x="972" y="143" type="line"/>
      <point x="348" y="143" type="line"/>
      <point x="348" y="634" type="line"/>
      <point x="857" y="634" type="line"/>
      <point x="857" y="777" type="line"/>
      <point x="348" y="777" type="line"/>
      <point x="348" y="1202" type="line"/>
      <point x="951" y="1202" type="line"/>
      <point x="951" y="1343" type="line"/>
      <point x="178" y="1343" type="line"/>
    </contour>
    <contour>
      <point x="575" y="1050" type="move" name="top"/>
    </contour>
  </outline>
</glyph>
<glyph name="G" format="1">
  <advance width="1252"/>
  <unicode hex="0047"/>
  <outline>
    <contour>
      <point x="100" y="669" type="curve" name="hr00" smooth="yes"/>
      <point x="100" y="214"/>
      <point x="352" y="-25"/>
      <point x="704" y="-25" type="curve" smooth="yes"/>
      <point x="884" y="-25"/>
      <point x="1033" y="45"/>
      <point x="1121" y="131" type="curve"/>
      <point x="1121" y="695" type="line"/>
      <point x="690" y="695" type="line"/>
      <point x="690" y="556" type="line"/>
      <point x="968" y="556" type="line"/>
      <point x="968" y="204" type="line"/>
      <point x="913" y="155"/>
      <point x="819" y="123"/>
      <point x="722" y="123" type="curve" smooth="yes"/>
      <point x="435" y="123"/>
      <point x="275" y="322"/>
      <point x="275" y="673" type="curve" smooth="yes"/>
      <point x="275" y="1034"/>
      <point x="450" y="1221"/>
      <point x="722" y="1221" type="curve" smooth="yes"/>
      <point x="856" y="1221"/>
      <point x="940" y="1176"/>
      <point x="1008" y="1105" type="curve"/>
      <point x="1105" y="1212" type="line"/>
      <point x="1025" y="1294"/>
      <point x="903" y="1368"/>
      <point x="721" y="1368" type="curve" smooth="yes"/>
      <point x="360" y="1368"/>
      <point x="100" y="1136"/>
    </contour>
    <contour>
      <point x="610" y="1050" type="move" name="top"/>
    </contour>
  </outline>
</glyph>
<glyph name="H" format="1">
  <advance width="1324"/>
  <unicode hex="0048"/>
  <outline>
    <contour>
      <point x="178" y="0" type="line" name="hr00"/>
      <point x="348" y="0" type="line"/>
      <point x="348" y="634" type="line"/>
      <point x="976" y="634" type="line"/>
      <point x="976" y="0" type="line"/>
      <point x="1144" y="0" type="line"/>
      <point x="1144" y="1343" type="line"/>
      <point x="976" y="1343" type="line"/>
      <point x="976" y="779" type="line"/>
      <point x="348" y="779" type="line"/>
      <point x="348" y="1343" type="line"/>
      <point x="178" y="1343" type="line"/>
    </contour>
    <contour>
      <point x="661" y="1050" type="move" name="top"/>
    </contour>
  </outline>
</glyph>
<glyph name="J" format="1">
  <advance width="970"/>
  <unicode hex="004A"/>
  <outline>
    <contour>
      <point x="59" y="190" type="line" name="hr00"/>
      <point x="137" y="49"/>
      <point x="261" y="-25"/>
      <point x="430" y="-25" type="curve" smooth="yes"/>
      <point x="694" y="-25"/>
      <point x="798" y="154"/>
      <point x="798" y="385" type="curve" smooth="yes"/>
      <point x="798" y="1343" type="line"/>
      <point x="630" y="1343" type="line"/>
      <point x="630" y="401" type="line"/>
      <point x="630" y="196"/>
      <point x="560" y="123"/>
      <point x="417" y="123" type="curve" smooth="yes"/>
      <point x="319" y="123"/>
      <point x="241" y="168"/>
      <point x="179" y="275" type="curve"/>
    </contour>
    <contour>
      <point x="428" y="1050" type="move" name="top"/>
    </contour>
  </outline>
</glyph>
<glyph name="K" format="1">
  <advance width="1174"/>
  <unicode hex="004B"/>
  <outline>
    <contour>
      <point x="178" y="0" type="line" name="hr00"/>
      <point x="348" y="0" type="line"/>
      <point x="348" y="427" type="line"/>
      <point x="580" y="700" type="line"/>
      <point x="982" y="0" type="line"/>
      <point x="1170" y="0" type="line"/>
      <point x="684" y="831" type="line"/>
      <point x="1107" y="1343" type="line"/>
      <point x="914" y="1343" type="line"/>
      <point x="352" y="668" type="line"/>
      <point x="348" y="668" type="line"/>
      <point x="348" y="1343" type="line"/>
      <point x="178" y="1343" type="line"/>
    </contour>
    <contour>
      <point x="674" y="1050" type="move" name="top"/>
    </contour>
  </outline>
</glyph>
<glyph name="M" format="1">
  <advance width="1477"/>
  <unicode hex="004D"/>
  <outline>
    <contour>
      <point x="169" y="0" type="line" name="hr00"/>
      <point x="325" y="0" type="line"/>
      <point x="325" y="743" type="line"/>
      <point x="325" y="862"/>
      <point x="323" y="1021"/>
      <point x="314" y="1140" type="curve"/>
      <point x="323" y="1140" type="line"/>
      <point x="429" y="841" type="line"/>
      <point x="688" y="135" type="line"/>
      <point x="785" y="135" type="line"/>
      <point x="1042" y="841" type="line"/>
      <point x="1149" y="1140" type="line"/>
      <point x="1157" y="1140" type="line"/>
      <point x="1149" y="1021"/>
      <point x="1145" y="862"/>
      <point x="1145" y="743" type="curve" smooth="yes"/>
      <point x="1148" y="0" type="line"/>
      <point x="1307" y="0" type="line"/>
      <point x="1285" y="1343" type="line"/>
      <point x="1096" y="1343" type="line"/>
      <point x="840" y="621" type="line"/>
      <point x="744" y="346" type="line"/>
      <point x="736" y="346" type="line"/>
      <point x="640" y="621" type="line"/>
      <point x="380" y="1343" type="line"/>
      <point x="188" y="1343" type="line"/>
    </contour>
    <contour>
      <point x="738" y="1050" type="move" name="top"/>
    </contour>
  </outline>
</glyph>
<glyph name="O" format="1">
  <advance width="1349"/>
  <unicode hex="004F"/>
  <outline>
    <contour>
      <point x="673" y="-25" type="curve" name="hr00" smooth="yes"/>
      <point x="1021" y="-25"/>
      <point x="1247" y="229"/>
      <point x="1247" y="674" type="curve" smooth="yes"/>
      <point x="1247" y="1116"/>
      <point x="1021" y="1368"/>
      <point x="673" y="1368" type="curve" smooth="yes"/>
      <point x="322" y="1368"/>
      <point x="100" y="1118"/>
      <point x="100" y="674" type="curve" smooth="yes"/>
      <point x="100" y="229"/>
      <point x="322" y="-25"/>
    </contour>
    <contour>
      <point x="673" y="123" type="curve" smooth="yes"/>
      <point x="420" y="123"/>
      <point x="274" y="326"/>
      <point x="274" y="674" type="curve" smooth="yes"/>
      <point x="274" y="1020"/>
      <point x="420" y="1221"/>
      <point x="673" y="1221" type="curve" smooth="yes"/>
      <point x="922" y="1221"/>
      <point x="1073" y="1020"/>
      <point x="1073" y="674" type="curve" smooth="yes"/>
      <point x="1073" y="326"/>
      <point x="922" y="123"/>
    </contour>
    <contour>
      <point x="673" y="1050" type="move" name="top"/>
    </contour>
  </outline>
</glyph>
<glyph name="T" format="1">
  <advance width="1086"/>
  <unicode hex="0054"/>
  <outline>
    <contour>
      <point x="460" y="0" type="line" name="hr00"/>
      <point x="628" y="0" type="line"/>
      <point x="628" y="1202" type="line"/>
      <point x="1035" y="1202" type="line"/>
      <point x="1035" y="1343" type="line"/>
      <point x="51" y="1343" type="line"/>
      <point x="51" y="1202" type="line"/>
      <point x="460" y="1202" type="line"/>
    </contour>
    <contour>
      <point x="543" y="1050" type="move" name="top"/>
    </contour>
  </outline>
</glyph>
<glyph name="U" format="1">
  <advance width="1310"/>
  <unicode hex="0055"/>
  <outline>
    <contour>
      <point x="172" y="544" type="line" name="hr00"/>
      <point x="172" y="118"/>
      <point x="382" y="-25"/>
      <point x="655" y="-25" type="curve" smooth="yes"/>
      <point x="929" y="-25"/>
      <point x="1138" y="115"/>
      <point x="1138" y="544" type="curve" smooth="yes"/>
      <point x="1138" y="1343" type="line"/>
      <point x="976" y="1343" type="line"/>
      <point x="976" y="541" type="line"/>
      <point x="976" y="218"/>
      <point x="834" y="123"/>
      <point x="655" y="123" type="curve" smooth="yes"/>
      <point x="480" y="123"/>
      <point x="342" y="220"/>
      <point x="342" y="541" type="curve" smooth="yes"/>
      <point x="342" y="1343" type="line"/>
      <point x="172" y="1343" type="line"/>
    </contour>
    <contour>
      <point x="655" y="1050" type="move" name="top"/>
    </contour>
  </outline>
</glyph>
<glyph name="W" format="1">
  <advance width="1598"/>
  <unicode hex="0057"/>
  <outline>
    <contour>
      <point x="327" y="0" type="line" name="hr00"/>
      <point x="526" y="0" type="line"/>
      <point x="728" y="812" type="line"/>
      <point x="751" y="916"/>
      <point x="773" y="1013"/>
      <point x="796" y="1117" type="curve"/>
      <point x="804" y="1117" type="line"/>
      <point x="823" y="1013"/>
      <point x="846" y="916"/>
      <point x="868" y="812" type="curve"/>
      <point x="1072" y="0" type="line"/>
      <point x="1276" y="0" type="line"/>
      <point x="1555" y="1343" type="line"/>
      <point x="1392" y="1343" type="line"/>
      <point x="1249" y="611" type="line"/>
      <point x="1225" y="467"/>
      <point x="1200" y="322"/>
      <point x="1174" y="176" type="curve"/>
      <point x="1165" y="176" type="line"/>
      <point x="1133" y="322"/>
      <point x="1099" y="469"/>
      <point x="1068" y="611" type="curve"/>
      <point x="882" y="1343" type="line"/>
      <point x="727" y="1343" type="line"/>
      <point x="541" y="611" type="line"/>
      <point x="507" y="467"/>
      <point x="474" y="322"/>
      <point x="445" y="176" type="curve"/>
      <point x="437" y="176" type="line"/>
      <point x="411" y="322"/>
      <point x="384" y="465"/>
      <point x="357" y="611" type="curve"/>
      <point x="215" y="1343" type="line"/>
      <point x="41" y="1343" type="line"/>
    </contour>
    <contour>
      <point x="798" y="1050" type="move" name="top"/>
    </contour>
  </outline>
</glyph>
<glyph name="backslash" format="1">
  <advance width="717"/>
  <unicode hex="005C"/>
  <outline>
    <contour>
      <point x="575" y="-328" type="line" name="hr00"/>
      <point x="696" y="-328" type="line"/>
      <point x="148" y="1454" type="line"/>
      <point x="29" y="1454" type="line"/>
    </contour>
  </outline>
</glyph>
<glyph name="asciicircum" format="1">
  <advance width="1017"/>
  <unicode hex="005E"/>
  <outline>
    <contour>
      <point x="123" y="582" type="line" name="hr00"/>
      <point x="269" y="582" type="line"/>
      <point x="402" y="944" type="line"/>
      <point x="505" y="1216" type="line"/>
      <point x="513" y="1216" type="line"/>
      <point x="614" y="944" type="line"/>
      <point x="748" y="582" type="line"/>
      <point x="894" y="582" type="line"/>
      <point x="583" y="1372" type="line"/>
      <point x="434" y="1372" type="line"/>
    </contour>
  </outline>
</glyph>
<glyph name="underscore" format="1">
  <advance width="1024"/>
  <unicode hex="005F"/>
  <outline>
    <contour>
      <point x="-5" y="-145" type="line" name="hr00"/>
      <point x="-5" y="-258" type="line"/>
      <point x="1029" y="-258" type="line"/>
      <point x="1029" y="-145" type="line"/>
    </contour>
  </outline>
</glyph>
<glyph name="grave" format="1">
  <advance width="1109"/>
  <unicode hex="0060"/>
  <outline>
    <contour>
      <point x="560" y="1174" type="line" name="hr00"/>
      <point x="687" y="1174" type="line"/>
      <point x="503" y="1462" type="line"/>
      <point x="329" y="1462" type="line"/>
    </contour>
    <contour>
      <point x="508" y="1050" type="move" name="_top"/>
    </contour>
  </outline>
</glyph>
<glyph name="a" format="1">
  <advance width="1048"/>
  <unicode hex="0061"/>
  <outline>
    <contour>
      <point x="119" y="260" type="curve" name="hr01" smooth="yes"/>
      <point x="119" y="81"/>
      <point x="245" y="-25"/>
      <point x="422" y="-25" type="curve" smooth="yes"/>
      <point x="565" y="-25"/>
      <point x="646" y="41"/>
      <point x="742" y="119" type="curve"/>
      <point x="746" y="119" type="line"/>
      <point x="761" y="0" type="line" name="hr02"/>
      <point x="898" y="0" type="line"/>
      <point x="898" y="610" type="line"/>
      <point x="898" y="871"/>
      <point x="794" y="1020"/>
      <point x="550" y="1020" type="curve" smooth="yes"/>
      <point x="390" y="1020"/>
      <point x="244" y="967"/>
      <point x="153" y="908" type="curve"/>
      <point x="219" y="794" type="line"/>
      <point x="297" y="846"/>
      <point x="407" y="882"/>
      <point x="523" y="882" type="curve" smooth="yes"/>
      <point x="686" y="882"/>
      <point x="732" y="781"/>
      <point x="732" y="631" type="curve"/>
      <point x="303" y="610"/>
      <point x="119" y="477"/>
    </contour>
    <contour>
      <point x="284" y="269" type="curve" smooth="yes"/>
      <point x="284" y="397"/>
      <point x="392" y="507"/>
      <point x="732" y="521" type="curve"/>
      <point x="732" y="243" type="line"/>
      <point x="635" y="157"/>
      <point x="565" y="110"/>
      <point x="468" y="110" type="curve" smooth="yes"/>
      <point x="359" y="110"/>
      <point x="284" y="157"/>
    </contour>
    <contour>
      <point x="508" y="1050" type="move" name="top"/>
    </contour>
  </outline>
</glyph>
<glyph name="b" format="1">
  <advance width="1136"/>
  <unicode hex="0062"/>
  <outline>
    <contour>
      <point x="169" y="0" type="line" name="hr01"/>
      <point x="302" y="0" type="line"/>
      <point x="316" y="98" type="line"/>
      <point x="323" y="98" type="line"/>
      <point x="411" y="20"/>
      <point x="515" y="-25"/>
      <point x="611" y="-25" type="curve" name="hr02" smooth="yes"/>
      <point x="848" y="-25"/>
      <point x="1037" y="162"/>
      <point x="1037" y="511" type="curve" smooth="yes"/>
      <point x="1037" y="827"/>
      <point x="916" y="1020"/>
      <point x="647" y="1020" type="curve" smooth="yes"/>
      <point x="532" y="1020"/>
      <point x="421" y="960"/>
      <point x="331" y="880" type="curve"/>
      <point x="335" y="1061" type="line"/>
      <point x="335" y="1458" type="line"/>
      <point x="169" y="1458" type="line"/>
    </contour>
    <contour>
      <point x="335" y="220" type="curve"/>
      <point x="335" y="744" type="line"/>
      <point x="429" y="832"/>
      <point x="518" y="880"/>
      <point x="606" y="880" type="curve" smooth="yes"/>
      <point x="803" y="880"/>
      <point x="865" y="735"/>
      <point x="865" y="509" type="curve" smooth="yes"/>
      <point x="865" y="257"/>
      <point x="752" y="115"/>
      <point x="583" y="115" type="curve" smooth="yes"/>
      <point x="513" y="115"/>
      <point x="423" y="144"/>
    </contour>
    <contour>
      <point x="603" y="1050" type="move" name="top"/>
    </contour>
  </outline>
</glyph>
<glyph name="e" format="1">
  <advance width="1015"/>
  <unicode hex="0065"/>
  <outline>
    <contour>
      <point x="93" y="497" type="curve" name="hr00" smooth="yes"/>
      <point x="93" y="160"/>
      <point x="305" y="-25"/>
      <point x="571" y="-25" type="curve" smooth="yes"/>
      <point x="707" y="-25"/>
      <point x="811" y="14"/>
      <point x="896" y="69" type="curve"/>
      <point x="838" y="178" type="line"/>
      <point x="764" y="131"/>
      <point x="686" y="110"/>
      <point x="591" y="110" type="curve" smooth="yes"/>
      <point x="400" y="110"/>
      <point x="270" y="238"/>
      <point x="258" y="461" type="curve"/>
      <point x="931" y="461" type="line"/>
      <point x="935" y="485"/>
      <point x="937" y="518"/>
      <point x="937" y="553" type="curve" smooth="yes"/>
      <point x="937" y="848"/>
      <point x="809" y="1021"/>
      <point x="539" y="1021" type="curve" smooth="yes"/>
      <point x="296" y="1021"/>
      <point x="93" y="831"/>
    </contour>
    <contour>
      <point x="256" y="570" type="line"/>
      <point x="275" y="775"/>
      <point x="393" y="888"/>
      <point x="543" y="888" type="curve" smooth="yes"/>
      <point x="708" y="888"/>
      <point x="792" y="784"/>
      <point x="792" y="570" type="curve"/>
    </contour>
    <contour>
      <point x="582" y="1050" type="move" name="top"/>
    </contour>
  </outline>
</glyph>
<glyph name="f" format="1">
  <advance width="596"/>
  <unicode hex="0066"/>
  <outline>
    <contour>
      <point x="651" y="1450" type="line" name="hr00"/>
      <point x="606" y="1468"/>
      <point x="548" y="1483"/>
      <point x="486" y="1483" type="curve" smooth="yes"/>
      <point x="289" y="1483"/>
      <point x="197" y="1361"/>
      <point x="197" y="1158" type="curve" smooth="yes"/>
      <point x="197" y="995" type="line"/>
      <point x="61" y="985" type="line"/>
      <point x="61" y="859" type="line"/>
      <point x="197" y="859" type="line"/>
      <point x="197" y="0" type="line"/>
      <point x="363" y="0" type="line"/>
      <point x="363" y="859" type="line"/>
      <point x="574" y="859" type="line"/>
      <point x="574" y="995" type="line"/>
      <point x="363" y="995" type="line"/>
      <point x="363" y="1158" type="line"/>
      <point x="363" y="1285"/>
      <point x="408" y="1348"/>
      <point x="503" y="1348" type="curve" smooth="yes"/>
      <point x="540" y="1348"/>
      <point x="579" y="1339"/>
      <point x="615" y="1323" type="curve"/>
    </contour>
    <contour>
      <point x="356" y="1050" type="move" name="top"/>
    </contour>
  </outline>
</glyph>
<glyph name="g" format="1">
  <advance width="1031"/>
  <unicode hex="0067"/>
  <outline>
    <contour>
      <point x="241" y="-169" type="curve" name="hr01" smooth="yes"/>
      <point x="241" y="-108"/>
      <point x="269" y="-35"/>
      <point x="341" y="16" type="curve"/>
      <point x="385" y="4"/>
      <point x="432" y="0"/>
      <point x="470" y="0" type="curve" smooth="yes"/>
      <point x="643" y="0" type="line"/>
      <point x="774" y="0"/>
      <point x="845" y="-46"/>
      <point x="845" y="-139" type="curve" smooth="yes"/>
      <point x="845" y="-245"/>
      <point x="728" y="-341"/>
      <point x="528" y="-341" type="curve" smooth="yes"/>
      <point x="337" y="-341"/>
      <point x="241" y="-275"/>
    </contour>
    <contour>
      <point x="92" y="-190" type="curve" smooth="yes"/>
      <point x="92" y="-362"/>
      <point x="228" y="-459"/>
      <point x="502" y="-459" type="curve" smooth="yes"/>
      <point x="826" y="-459"/>
      <point x="1007" y="-299"/>
      <point x="1007" y="-116" type="curve" smooth="yes"/>
      <point x="1007" y="50"/>
      <point x="912" y="135"/>
      <point x="680" y="135" type="curve" smooth="yes"/>
      <point x="466" y="135" type="line"/>
      <point x="331" y="135"/>
      <point x="290" y="180"/>
      <point x="290" y="243" type="curve" name="hr02" smooth="yes"/>
      <point x="290" y="299"/>
      <point x="318" y="319"/>
      <point x="353" y="350" type="curve"/>
      <point x="398" y="328"/>
      <point x="451" y="315"/>
      <point x="504" y="315" type="curve" smooth="yes"/>
      <point x="716" y="315"/>
      <point x="869" y="436"/>
      <point x="869" y="661" type="curve" smooth="yes"/>
      <point x="869" y="751"/>
      <point x="833" y="824"/>
      <point x="785" y="867" type="curve"/>
      <point x="990" y="867" type="line"/>
      <point x="990" y="995" type="line"/>
      <point x="644" y="995" type="line"/>
      <point x="608" y="1010"/>
      <point x="568" y="1020"/>
      <point x="504" y="1020" type="curve" name="hr03" smooth="yes"/>
      <point x="291" y="1020"/>
      <point x="129" y="896"/>
      <point x="129" y="665" type="curve" smooth="yes"/>
      <point x="129" y="538"/>
      <point x="193" y="451"/>
      <point x="258" y="397" type="curve"/>
      <point x="258" y="389" type="line"/>
      <point x="208" y="354"/>
      <point x="150" y="302"/>
      <point x="150" y="218" type="curve" name="hr04" smooth="yes"/>
      <point x="150" y="140"/>
      <point x="188" y="87"/>
      <point x="238" y="56" type="curve"/>
      <point x="238" y="48" type="line"/>
      <point x="147" y="-10"/>
      <point x="92" y="-101"/>
    </contour>
    <contour>
      <point x="504" y="427" type="curve" name="hr06" smooth="yes"/>
      <point x="388" y="427"/>
      <point x="291" y="509"/>
      <point x="291" y="665" type="curve" smooth="yes"/>
      <point x="291" y="821"/>
      <point x="376" y="898"/>
      <point x="504" y="898" type="curve" smooth="yes"/>
      <point x="631" y="898"/>
      <point x="716" y="821"/>
      <point x="716" y="665" type="curve" smooth="yes"/>
      <point x="716" y="506"/>
      <point x="618" y="427"/>
    </contour>
    <contour>
      <point x="549" y="1050" type="move" name="top"/>
    </contour>
  </outline>
</glyph>
<glyph name="i" format="1">
  <advance width="503"/>
  <unicode hex="0069"/>
  <outline>
    <contour>
      <point x="254" y="1201" type="curve" name="hr01" smooth="yes"/>
      <point x="318" y="1201"/>
      <point x="370" y="1245"/>
      <point x="370" y="1309" type="curve" smooth="yes"/>
      <point x="370" y="1373"/>
      <point x="318" y="1416"/>
      <point x="254" y="1416" type="curve" smooth="yes"/>
      <point x="188" y="1416"/>
      <point x="137" y="1373"/>
      <point x="137" y="1309" type="curve" smooth="yes"/>
      <point x="137" y="1245"/>
      <point x="188" y="1201"/>
    </contour>
    <contour>
      <point x="169" y="0" type="line" name="hr02"/>
      <point x="335" y="0" type="line"/>
      <point x="335" y="995" type="line"/>
      <point x="169" y="995" type="line"/>
    </contour>
    <contour>
      <point x="253" y="1050" type="move" name="top"/>
    </contour>
  </outline>
</glyph>
<glyph name="k" format="1">
  <advance width="1012"/>
  <unicode hex="006B"/>
  <outline>
    <contour>
      <point x="169" y="0" type="line" name="hr00"/>
      <point x="333" y="0" type="line"/>
      <point x="333" y="262" type="line"/>
      <point x="519" y="480" type="line"/>
      <point x="811" y="0" type="line"/>
      <point x="993" y="0" type="line"/>
      <point x="614" y="596" type="line"/>
      <point x="948" y="995" type="line"/>
      <point x="764" y="995" type="line"/>
      <point x="339" y="469" type="line"/>
      <point x="333" y="469" type="line"/>
      <point x="333" y="1458" type="line"/>
      <point x="169" y="1458" type="line"/>
    </contour>
    <contour>
      <point x="581" y="1050" type="move" name="top"/>
    </contour>
  </outline>
</glyph>
<glyph name="m" format="1">
  <advance width="1697"/>
  <unicode hex="006D"/>
  <outline>
    <contour>
      <point x="169" y="0" type="line" name="hr01"/>
      <point x="335" y="0" type="line"/>
      <point x="335" y="722" type="line"/>
      <point x="427" y="824"/>
      <point x="511" y="875"/>
      <point x="586" y="875" type="curve" smooth="yes"/>
      <point x="723" y="875"/>
      <point x="773" y="801"/>
      <point x="773" y="613" type="curve" smooth="yes"/>
      <point x="773" y="0" type="line"/>
      <point x="939" y="0" type="line"/>
      <point x="939" y="726" type="line"/>
      <point x="1031" y="829"/>
      <point x="1111" y="875"/>
      <point x="1190" y="875" type="curve" smooth="yes"/>
      <point x="1325" y="875"/>
      <point x="1375" y="801"/>
      <point x="1375" y="613" type="curve" smooth="yes"/>
      <point x="1375" y="0" type="line"/>
      <point x="1541" y="0" type="line"/>
      <point x="1541" y="636" type="line"/>
      <point x="1541" y="890"/>
      <point x="1452" y="1020"/>
      <point x="1238" y="1020" type="curve" smooth="yes"/>
      <point x="1117" y="1020"/>
      <point x="1015" y="947"/>
      <point x="910" y="833" type="curve"/>
      <point x="869" y="952"/>
      <point x="797" y="1020"/>
      <point x="636" y="1020" type="curve" smooth="yes"/>
      <point x="517" y="1020"/>
      <point x="413" y="946"/>
      <point x="327" y="851" type="curve"/>
      <point x="321" y="851" type="line"/>
      <point x="306" y="995" type="line" name="hr02"/>
      <point x="169" y="995" type="line"/>
    </contour>
    <contour>
      <point x="855" y="1050" type="move" name="top"/>
    </contour>
  </outline>
</glyph>
<glyph name="n" format="1">
  <advance width="1119"/>
  <unicode hex="006E"/>
  <outline>
    <contour>
      <point x="169" y="0" type="line" name="hr01"/>
      <point x="335" y="0" type="line"/>
      <point x="335" y="722" type="line"/>
      <point x="435" y="822"/>
      <point x="505" y="875"/>
      <point x="608" y="875" type="curve" smooth="yes"/>
      <point x="749" y="875"/>
      <point x="798" y="801"/>
      <point x="798" y="613" type="curve" smooth="yes"/>
      <point x="798" y="0" type="line"/>
      <point x="964" y="0" type="line"/>
      <point x="964" y="636" type="line"/>
      <point x="964" y="890"/>
      <point x="878" y="1020"/>
      <point x="661" y="1020" type="curve" smooth="yes"/>
      <point x="523" y="1020"/>
      <point x="421" y="946"/>
      <point x="327" y="851" type="curve"/>
      <point x="321" y="851" type="line"/>
      <point x="306" y="995" type="line" name="hr02"/>
      <point x="169" y="995" type="line"/>
    </contour>
    <contour>
      <point x="566" y="1050" type="move" name="top"/>
    </contour>
  </outline>
</glyph>
<glyph name="o" format="1">
  <advance width="1109"/>
  <unicode hex="006F"/>
  <outline>
    <contour>
      <point x="95" y="498" type="curve" name="hr00" smooth="yes"/>
      <point x="95" y="161"/>
      <point x="303" y="-25"/>
      <point x="554" y="-25" type="curve" smooth="yes"/>
      <point x="805" y="-25"/>
      <point x="1015" y="161"/>
      <point x="1015" y="498" type="curve" smooth="yes"/>
      <point x="1015" y="838"/>
      <point x="805" y="1020"/>
      <point x="554" y="1020" type="curve" smooth="yes"/>
      <point x="303" y="1020"/>
      <point x="95" y="838"/>
    </contour>
    <contour>
      <point x="267" y="498" type="curve" smooth="yes"/>
      <point x="267" y="732"/>
      <point x="378" y="882"/>
      <point x="554" y="882" type="curve" smooth="yes"/>
      <point x="732" y="882"/>
      <point x="843" y="732"/>
      <point x="843" y="498" type="curve" smooth="yes"/>
      <point x="843" y="264"/>
      <point x="732" y="113"/>
      <point x="554" y="113" type="curve" smooth="yes"/>
      <point x="378" y="113"/>
      <point x="267" y="264"/>
    </contour>
    <contour>
      <point x="555" y="1050" type="move" name="top"/>
    </contour>
  </outline>
</glyph>
<glyph name="p" format="1">
  <advance width="1136"/>
  <unicode hex="0070"/>
  <outline>
    <contour>
      <point x="331" y="90" type="line" name="hr01"/>
      <point x="423" y="18"/>
      <point x="510" y="-25"/>
      <point x="606" y="-25" type="curve" smooth="yes"/>
      <point x="840" y="-25"/>
      <point x="1037" y="164"/>
      <point x="1037" y="510" type="curve" smooth="yes"/>
      <point x="1037" y="827"/>
      <point x="907" y="1020"/>
      <point x="643" y="1020" type="curve" smooth="yes"/>
      <point x="523" y="1020"/>
      <point x="417" y="955"/>
      <point x="327" y="880" type="curve"/>
      <point x="321" y="880" type="line"/>
      <point x="306" y="995" type="line" name="hr02"/>
      <point x="169" y="995" type="line"/>
      <point x="169" y="-421" type="line"/>
      <point x="335" y="-421" type="line"/>
      <point x="335" y="-84" type="line"/>
    </contour>
    <contour>
      <point x="335" y="220" type="curve"/>
      <point x="335" y="744" type="line"/>
      <point x="433" y="832"/>
      <point x="514" y="880"/>
      <point x="600" y="880" type="curve" name="hr03" smooth="yes"/>
      <point x="796" y="880"/>
      <point x="865" y="736"/>
      <point x="865" y="510" type="curve" smooth="yes"/>
      <point x="865" y="259"/>
      <point x="746" y="115"/>
      <point x="577" y="115" type="curve" smooth="yes"/>
      <point x="509" y="115"/>
      <point x="425" y="144"/>
    </contour>
    <contour>
      <point x="603" y="1050" type="move" name="top"/>
    </contour>
  </outline>
</glyph>
<glyph name="s" format="1">
  <advance width="857"/>
  <unicode hex="0073"/>
  <outline>
    <contour>
      <point x="62" y="113" type="line" name="hr00"/>
      <point x="157" y="35"/>
      <point x="287" y="-25"/>
      <point x="428" y="-25" type="curve" smooth="yes"/>
      <point x="663" y="-25"/>
      <point x="792" y="107"/>
      <point x="792" y="268" type="curve" smooth="yes"/>
      <point x="792" y="457"/>
      <point x="632" y="519"/>
      <point x="488" y="572" type="curve" smooth="yes"/>
      <point x="376" y="615"/>
      <point x="266" y="662"/>
      <point x="266" y="754" type="curve" smooth="yes"/>
      <point x="266" y="830"/>
      <point x="325" y="890"/>
      <point x="450" y="890" type="curve" smooth="yes"/>
      <point x="539" y="890"/>
      <point x="610" y="857"/>
      <point x="678" y="806" type="curve"/>
      <point x="757" y="911" type="line"/>
      <point x="681" y="973"/>
      <point x="572" y="1020"/>
      <point x="449" y="1020" type="curve" smooth="yes"/>
      <point x="233" y="1020"/>
      <point x="106" y="900"/>
      <point x="106" y="740" type="curve" smooth="yes"/>
      <point x="106" y="572"/>
      <point x="262" y="499"/>
      <point x="404" y="448" type="curve" smooth="yes"/>
      <point x="513" y="407"/>
      <point x="632" y="361"/>
      <point x="632" y="258" type="curve" smooth="yes"/>
      <point x="632" y="171"/>
      <point x="566" y="105"/>
      <point x="434" y="105" type="curve" smooth="yes"/>
      <point x="314" y="105"/>
      <point x="231" y="155"/>
      <point x="145" y="224" type="curve"/>
    </contour>
    <contour>
      <point x="427" y="1050" type="move" name="top"/>
    </contour>
  </outline>
</glyph>
<glyph name="v" format="1">
  <advance width="954"/>
  <unicode hex="0076"/>
  <outline>
    <contour>
      <point x="383" y="0" type="line" name="hr00"/>
      <point x="578" y="0" type="line"/>
      <point x="930" y="995" type="line"/>
      <point x="766" y="995" type="line"/>
      <point x="577" y="428" type="line"/>
      <point x="548" y="330"/>
      <point x="515" y="230"/>
      <point x="486" y="136" type="curve"/>
      <point x="478" y="136" type="line"/>
      <point x="448" y="230"/>
      <point x="415" y="330"/>
      <point x="386" y="428" type="curve"/>
      <point x="197" y="995" type="line"/>
      <point x="25" y="995" type="line"/>
    </contour>
    <contour>
      <point x="477" y="1050" type="move" name="top"/>
    </contour>
  </outline>
</glyph>
<glyph name="w" format="1">
  <advance width="1468"/>
  <unicode hex="0077"/>
  <outline>
    <contour>
      <point x="326" y="0" type="line" name="hr00"/>
      <point x="520" y="0" type="line"/>
      <point x="661" y="534" type="line"/>
      <point x="687" y="629"/>
      <point x="708" y="723"/>
      <point x="730" y="823" type="curve"/>
      <point x="738" y="823" type="line"/>
      <point x="763" y="723"/>
      <point x="781" y="631"/>
      <point x="806" y="537" type="curve" smooth="yes"/>
      <point x="950" y="0" type="line"/>
      <point x="1153" y="0" type="line"/>
      <point x="1419" y="995" type="line"/>
      <point x="1262" y="995" type="line"/>
      <point x="1115" y="418" type="line"/>
      <point x="1095" y="324"/>
      <point x="1076" y="234"/>
      <point x="1054" y="141" type="curve"/>
      <point x="1046" y="141" type="line"/>
      <point x="1023" y="234"/>
      <point x="1000" y="324"/>
      <point x="976" y="418" type="curve" smooth="yes"/>
      <point x="819" y="995" type="line"/>
      <point x="657" y="995" type="line"/>
      <point x="503" y="418" type="line"/>
      <point x="478" y="326"/>
      <point x="458" y="234"/>
      <point x="435" y="141" type="curve"/>
      <point x="427" y="141" type="line"/>
      <point x="409" y="234"/>
      <point x="390" y="324"/>
      <point x="368" y="418" type="curve"/>
      <point x="219" y="995" type="line"/>
      <point x="49" y="995" type="line"/>
    </contour>
    <contour>
      <point x="734" y="1050" type="move" name="top"/>
    </contour>
  </outline>
</glyph>
<glyph name="x" format="1">
  <advance width="910"/>
  <unicode hex="0078"/>
  <outline>
    <contour>
      <point x="29" y="0" type="line" name="hr00"/>
      <point x="203" y="0" type="line"/>
      <point x="339" y="232" type="line"/>
      <point x="372" y="294"/>
      <point x="405" y="353"/>
      <point x="439" y="411" type="curve"/>
      <point x="448" y="411" type="line"/>
      <point x="484" y="353"/>
      <point x="521" y="292"/>
      <point x="556" y="232" type="curve"/>
      <point x="702" y="0" type="line"/>
      <point x="883" y="0" type="line"/>
      <point x="559" y="502" type="line"/>
      <point x="860" y="995" type="line"/>
      <point x="686" y="995" type="line"/>
      <point x="564" y="775" type="line"/>
      <point x="534" y="722"/>
      <point x="503" y="665"/>
      <point x="474" y="609" type="curve"/>
      <point x="466" y="609" type="line"/>
      <point x="431" y="665"/>
      <point x="398" y="722"/>
      <point x="368" y="775" type="curve" smooth="yes"/>
      <point x="234" y="995" type="line"/>
      <point x="53" y="995" type="line"/>
      <point x="354" y="520" type="line"/>
    </contour>
    <contour>
      <point x="456" y="1050" type="move" name="top"/>
    </contour>
  </outline>
</glyph>
<glyph name="y" format="1">
  <advance width="954"/>
  <unicode hex="0079"/>
  <outline>
    <contour>
      <point x="99" y="-276" type="curve" name="hr01"/>
      <point x="68" y="-409" type="line" name="hr02"/>
      <point x="99" y="-421"/>
      <point x="138" y="-429"/>
      <point x="183" y="-429" type="curve" name="hr03" smooth="yes"/>
      <point x="383" y="-429"/>
      <point x="485" y="-279"/>
      <point x="555" y="-83" type="curve" smooth="yes"/>
      <point x="930" y="995" type="line"/>
      <point x="764" y="995" type="line"/>
      <point x="587" y="442" type="line"/>
      <point x="560" y="354"/>
      <point x="534" y="252"/>
      <point x="505" y="162" type="curve"/>
      <point x="497" y="162" type="line"/>
      <point x="466" y="254"/>
      <point x="431" y="356"/>
      <point x="400" y="442" type="curve" smooth="yes"/>
      <point x="197" y="995" type="line"/>
      <point x="25" y="995" type="line"/>
      <point x="424" y="-2" type="line"/>
      <point x="401" y="-77" type="line"/>
      <point x="360" y="-200"/>
      <point x="289" y="-291"/>
      <point x="175" y="-291" type="curve" smooth="yes"/>
      <point x="151" y="-291"/>
      <point x="120" y="-283"/>
    </contour>
    <contour>
      <point x="477" y="1050" type="move" name="top"/>
    </contour>
  </outline>
</glyph>
<glyph name="braceleft" format="1">
  <advance width="619"/>
  <unicode hex="007B"/>
  <outline>
    <contour>
      <point x="227" y="-39" type="curve" name="hr01" smooth="yes"/>
      <point x="227" y="-250"/>
      <point x="305" y="-311"/>
      <point x="465" y="-311" type="curve" smooth="yes"/>
      <point x="558" y="-311" type="line"/>
      <point x="558" y="-216" type="line"/>
      <point x="501" y="-216" type="line"/>
      <point x="392" y="-216"/>
      <point x="364" y="-163"/>
      <point x="364" y="-29" type="curve" smooth="yes"/>
      <point x="364" y="96"/>
      <point x="376" y="203"/>
      <point x="376" y="342" type="curve" smooth="yes"/>
      <point x="376" y="473"/>
      <point x="341" y="541"/>
      <point x="253" y="565" type="curve"/>
      <point x="253" y="573" type="line"/>
      <point x="341" y="598"/>
      <point x="376" y="664"/>
      <point x="376" y="797" type="curve" smooth="yes"/>
      <point x="376" y="922"/>
      <point x="364" y="1049"/>
      <point x="364" y="1167" type="curve" smooth="yes"/>
      <point x="364" y="1301"/>
      <point x="392" y="1353"/>
      <point x="501" y="1353" type="curve" smooth="yes"/>
      <point x="558" y="1353" type="line"/>
      <point x="558" y="1450" type="line"/>
      <point x="465" y="1450" type="line"/>
      <point x="305" y="1450"/>
      <point x="227" y="1386"/>
      <point x="227" y="1178" type="curve" smooth="yes"/>
      <point x="227" y="1036"/>
      <point x="246" y="909"/>
      <point x="246" y="780" type="curve" smooth="yes"/>
      <point x="246" y="702"/>
      <point x="209" y="624"/>
      <point x="70" y="622" type="curve"/>
      <point x="70" y="517" type="line" name="hr02"/>
      <point x="209" y="515"/>
      <point x="246" y="436"/>
      <point x="246" y="356" type="curve" name="hr03" smooth="yes"/>
      <point x="246" y="219"/>
      <point x="227" y="111"/>
    </contour>
  </outline>
</glyph>
<glyph name="cent" format="1">
  <advance width="1017"/>
  <unicode hex="00A2"/>
  <outline>
    <contour>
      <point x="537" y="290" type="line" name="hr01"/>
      <point x="382" y="325"/>
      <point x="291" y="452"/>
      <point x="291" y="635" type="curve" smooth="yes"/>
      <point x="291" y="816"/>
      <point x="386" y="943"/>
      <point x="537" y="978" type="curve"/>
    </contour>
    <contour>
      <point x="856" y="378" type="line"/>
      <point x="800" y="329"/>
      <point x="728" y="288"/>
      <point x="642" y="282" type="curve"/>
      <point x="642" y="988" type="line"/>
      <point x="714" y="984"/>
      <point x="774" y="951"/>
      <point x="829" y="902" type="curve"/>
      <point x="910" y="1008" type="line"/>
      <point x="847" y="1067"/>
      <point x="761" y="1120"/>
      <point x="642" y="1126" type="curve" name="hr02"/>
      <point x="642" y="1337" type="line"/>
      <point x="537" y="1337" type="line"/>
      <point x="537" y="1120" type="line"/>
      <point x="305" y="1087"/>
      <point x="125" y="918"/>
      <point x="125" y="635" type="curve" smooth="yes"/>
      <point x="125" y="346"/>
      <point x="293" y="174"/>
      <point x="537" y="146" type="curve"/>
      <point x="537" y="-68" type="line"/>
      <point x="642" y="-68" type="line"/>
      <point x="642" y="144" type="line"/>
      <point x="749" y="152"/>
      <point x="849" y="202"/>
      <point x="929" y="273" type="curve"/>
    </contour>
  </outline>
</glyph>
<glyph name="sterling" format="1">
  <advance width="1017"/>
  <unicode hex="00A3"/>
  <outline>
    <contour>
      <point x="350" y="143" type="line" name="hr01"/>
      <point x="350" y="152" type="line"/>
      <point x="432" y="237"/>
      <point x="477" y="325"/>
      <point x="477" y="469" type="curve" name="hr02" smooth="yes"/>
      <point x="477" y="510"/>
      <point x="473" y="547"/>
      <point x="467" y="584" type="curve"/>
      <point x="738" y="584" type="line"/>
      <point x="738" y="697" type="line"/>
      <point x="441" y="697" type="line" name="hr03"/>
      <point x="416" y="784"/>
      <point x="391" y="864"/>
      <point x="391" y="951" type="curve" smooth="yes"/>
      <point x="391" y="1093"/>
      <point x="471" y="1192"/>
      <point x="620" y="1192" type="curve" smooth="yes"/>
      <point x="712" y="1192"/>
      <point x="775" y="1156"/>
      <point x="827" y="1092" type="curve"/>
      <point x="925" y="1188" type="line" name="hr04"/>
      <point x="853" y="1276"/>
      <point x="753" y="1331"/>
      <point x="607" y="1331" type="curve" name="hr05" smooth="yes"/>
      <point x="381" y="1331"/>
      <point x="227" y="1186"/>
      <point x="227" y="955" type="curve" smooth="yes"/>
      <point x="227" y="868"/>
      <point x="256" y="784"/>
      <point x="283" y="697" type="curve"/>
      <point x="246" y="697" type="line"/>
      <point x="109" y="689" type="line"/>
      <point x="109" y="584" type="line"/>
      <point x="313" y="584" type="line" name="hr06"/>
      <point x="322" y="547"/>
      <point x="328" y="510"/>
      <point x="328" y="471" type="curve" smooth="yes"/>
      <point x="328" y="316"/>
      <point x="250" y="177"/>
      <point x="111" y="101" type="curve"/>
      <point x="111" y="0" type="line"/>
      <point x="956" y="0" type="line"/>
      <point x="956" y="143" type="line"/>
    </contour>
  </outline>
</glyph>
<glyph name="currency" format="1">
  <advance width="1017"/>
  <unicode hex="00A4"/>
  <outline>
    <contour>
      <point x="142" y="212" type="line" name="hr00"/>
      <point x="282" y="353" type="line"/>
      <point x="345" y="301"/>
      <point x="425" y="274"/>
      <point x="509" y="274" type="curve" smooth="yes"/>
      <point x="590" y="274"/>
      <point x="672" y="301"/>
      <point x="735" y="353" type="curve"/>
      <point x="874" y="212" type="line"/>
      <point x="964" y="303" type="line"/>
      <point x="830" y="436" type="line"/>
      <point x="878" y="500"/>
      <point x="906" y="580"/>
      <point x="906" y="674" type="curve" smooth="yes"/>
      <point x="906" y="768"/>
      <point x="878" y="850"/>
      <point x="830" y="913" type="curve"/>
      <point x="964" y="1049" type="line"/>
      <point x="874" y="1140" type="line"/>
      <point x="735" y="996" type="line"/>
      <point x="672" y="1047"/>
      <point x="590" y="1073"/>
      <point x="509" y="1073" type="curve" smooth="yes"/>
      <point x="425" y="1073"/>
      <point x="345" y="1047"/>
      <point x="282" y="996" type="curve"/>
      <point x="142" y="1140" type="line"/>
      <point x="53" y="1049" type="line"/>
      <point x="184" y="913" type="line"/>
      <point x="137" y="850"/>
      <point x="111" y="768"/>
      <point x="111" y="674" type="curve" smooth="yes"/>
      <point x="111" y="580"/>
      <point x="137" y="500"/>
      <point x="184" y="436" type="curve"/>
      <point x="53" y="303" type="line"/>
    </contour>
    <contour>
      <point x="265" y="674" type="curve" smooth="yes"/>
      <point x="265" y="839"/>
      <point x="376" y="949"/>
      <point x="509" y="949" type="curve" smooth="yes"/>
      <point x="641" y="949"/>
      <point x="752" y="839"/>
      <point x="752" y="674" type="curve" smooth="yes"/>
      <point x="752" y="509"/>
      <point x="641" y="398"/>
      <point x="509" y="398" type="curve" smooth="yes"/>
      <point x="376" y="398"/>
      <point x="265" y="509"/>
    </contour>
  </outline>
</glyph>
<glyph name="ordfeminine" format="1">
  <advance width="706"/>
  <unicode hex="00AA"/>
  <outline>
    <contour>
      <point x="279" y="516" type="curve" name="hr00" smooth="yes"/>
      <point x="362" y="516"/>
      <point x="430" y="559"/>
      <point x="485" y="608" type="curve"/>
      <point x="494" y="608" type="line"/>
      <point x="508" y="532" type="line"/>
      <point x="609" y="532" type="line"/>
      <point x="609" y="934" type="line"/>
      <point x="609" y="1108"/>
      <point x="539" y="1208"/>
      <point x="375" y="1208" type="curve" smooth="yes"/>
      <point x="268" y="1208"/>
      <point x="170" y="1163"/>
      <point x="102" y="1120" type="curve"/>
      <point x="150" y="1035" type="line"/>
      <point x="205" y="1068"/>
      <point x="285" y="1105"/>
      <point x="356" y="1105" type="curve" smooth="yes"/>
      <point x="454" y="1105"/>
      <point x="482" y="1040"/>
      <point x="484" y="952" type="curve"/>
      <point x="201" y="926"/>
      <point x="76" y="852"/>
      <point x="76" y="709" type="curve" smooth="yes"/>
      <point x="76" y="594"/>
      <point x="158" y="516"/>
    </contour>
    <contour>
      <point x="315" y="617" type="curve" smooth="yes"/>
      <point x="245" y="617"/>
      <point x="200" y="648"/>
      <point x="200" y="719" type="curve" smooth="yes"/>
      <point x="200" y="795"/>
      <point x="272" y="850"/>
      <point x="484" y="872" type="curve"/>
      <point x="484" y="700" type="line"/>
      <point x="424" y="644"/>
      <point x="371" y="617"/>
    </contour>
  </outline>
</glyph>
<glyph name="logicalnot" format="1">
  <advance width="1017"/>
  <unicode hex="00AC"/>
  <outline>
    <contour>
      <point x="70" y="613" type="line" name="hr00"/>
      <point x="813" y="613" type="line"/>
      <point x="813" y="213" type="line"/>
      <point x="947" y="213" type="line"/>
      <point x="947" y="738" type="line"/>
      <point x="70" y="738" type="line"/>
    </contour>
  </outline>
</glyph>
<glyph name="plusminus" format="1">
  <advance width="1017"/>
  <unicode hex="00B1"/>
  <outline>
    <contour>
      <point x="442" y="259" type="line" name="hr00"/>
      <point x="574" y="259" type="line"/>
      <point x="574" y="623" type="line"/>
      <point x="947" y="623" type="line"/>
      <point x="947" y="749" type="line"/>
      <point x="574" y="749" type="line"/>
      <point x="574" y="1139" type="line"/>
      <point x="442" y="1139" type="line"/>
      <point x="442" y="749" type="line"/>
      <point x="70" y="749" type="line"/>
      <point x="70" y="623" type="line"/>
      <point x="442" y="623" type="line"/>
    </contour>
    <contour>
      <point x="70" y="0" type="line"/>
      <point x="947" y="0" type="line"/>
      <point x="947" y="126" type="line"/>
      <point x="70" y="126" type="line"/>
    </contour>
  </outline>
</glyph>
<glyph name="uni00B5" format="1">
  <advance width="1125"/>
  <unicode hex="00B5"/>
  <outline>
    <contour>
      <point x="169" y="-410" type="line" name="hr01"/>
      <point x="335" y="-410" type="line"/>
      <point x="335" y="-113" type="line"/>
      <point x="325" y="72" type="line"/>
      <point x="372" y="0"/>
      <point x="433" y="-16"/>
      <point x="514" y="-16" type="curve" smooth="yes"/>
      <point x="629" y="-16"/>
      <point x="723" y="49"/>
      <point x="801" y="156" type="curve"/>
      <point x="806" y="156" type="line"/>
      <point x="819" y="0" type="line" name="hr02"/>
      <point x="957" y="0" type="line"/>
      <point x="957" y="995" type="line"/>
      <point x="792" y="995" type="line"/>
      <point x="792" y="288" type="line"/>
      <point x="696" y="171"/>
      <point x="627" y="119"/>
      <point x="523" y="119" type="curve" name="hr03" smooth="yes"/>
      <point x="392" y="119"/>
      <point x="335" y="200"/>
      <point x="335" y="386" type="curve" smooth="yes"/>
      <point x="335" y="995" type="line"/>
      <point x="169" y="995" type="line"/>
    </contour>
  </outline>
</glyph>
<glyph name="cedilla" format="1">
  <advance width="1109"/>
  <unicode hex="00B8"/>
  <outline>
    <contour>
      <point x="447" y="-154" type="line" name="hr00"/>
      <point x="530" y="-174"/>
      <point x="579" y="-201"/>
      <point x="579" y="-254" type="curve" smooth="yes"/>
      <point x="579" y="-309"/>
      <point x="503" y="-338"/>
      <point x="395" y="-352" type="curve"/>
      <point x="412" y="-436" type="line"/>
      <point x="565" y="-422"/>
      <point x="706" y="-367"/>
      <point x="706" y="-248" type="curve" smooth="yes"/>
      <point x="706" y="-164"/>
      <point x="652" y="-125"/>
      <point x="585" y="-102" type="curve"/>
      <point x="639" y="6" type="line"/>
      <point x="529" y="6" type="line"/>
    </contour>
    <contour>
      <point x="550" y="1050" type="move" name="_top"/>
    </contour>
  </outline>
</glyph>
<glyph name="one.sups" format="1">
  <advance width="751"/>
  <unicode hex="00B9"/>
  <outline>
    <contour>
      <point x="352" y="901" type="line" name="hr00"/>
      <point x="482" y="901" type="line"/>
      <point x="482" y="1700" type="line"/>
      <point x="377" y="1700" type="line"/>
      <point x="322" y="1659"/>
      <point x="268" y="1634"/>
      <point x="178" y="1618" type="curve"/>
      <point x="178" y="1533" type="line"/>
      <point x="352" y="1533" type="line"/>
    </contour>
  </outline>
</glyph>
<glyph name="ordmasculine" format="1">
  <advance width="747"/>
  <unicode hex="00BA"/>
  <outline>
    <contour>
      <point x="373" y="516" type="curve" name="hr00" smooth="yes"/>
      <point x="541" y="516"/>
      <point x="684" y="645"/>
      <point x="684" y="862" type="curve" smooth="yes"/>
      <point x="684" y="1081"/>
      <point x="541" y="1208"/>
      <point x="373" y="1208" type="curve" smooth="yes"/>
      <point x="203" y="1208"/>
      <point x="61" y="1081"/>
      <point x="61" y="862" type="curve" smooth="yes"/>
      <point x="61" y="645"/>
      <point x="203" y="516"/>
    </contour>
    <contour>
      <point x="373" y="620" type="curve" smooth="yes"/>
      <point x="259" y="620"/>
      <point x="189" y="718"/>
      <point x="189" y="862" type="curve" smooth="yes"/>
      <point x="189" y="1008"/>
      <point x="259" y="1105"/>
      <point x="373" y="1105" type="curve" smooth="yes"/>
      <point x="485" y="1105"/>
      <point x="554" y="1008"/>
      <point x="554" y="862" type="curve" smooth="yes"/>
      <point x="554" y="718"/>
      <point x="485" y="620"/>
    </contour>
  </outline>
</glyph>
<glyph name="AE" format="1">
  <advance width="1672"/>
  <unicode hex="00C6"/>
  <outline>
    <contour>
      <point x="462" y="528" type="line" name="hr01"/>
      <point x="587" y="771" type="line"/>
      <point x="659" y="916"/>
      <point x="737" y="1064"/>
      <point x="809" y="1210" type="curve" name="hr02"/>
      <point x="817" y="1210" type="line"/>
      <point x="817" y="528" type="line"/>
    </contour>
    <contour>
      <point x="985" y="143" type="line"/>
      <point x="985" y="634" type="line"/>
      <point x="1463" y="634" type="line"/>
      <point x="1463" y="777" type="line"/>
      <point x="985" y="777" type="line"/>
      <point x="985" y="1202" type="line" name="hr03"/>
      <point x="1558" y="1202" type="line"/>
      <point x="1558" y="1343" type="line"/>
      <point x="719" y="1343" type="line"/>
      <point x="13" y="0" type="line"/>
      <point x="187" y="0" type="line"/>
      <point x="391" y="392" type="line"/>
      <point x="817" y="392" type="line"/>
      <point x="817" y="0" type="line"/>
      <point x="1578" y="0" type="line"/>
      <point x="1578" y="143" type="line"/>
    </contour>
    <contour>
      <point x="795" y="1050" type="move" name="top"/>
    </contour>
  </outline>
</glyph>
<glyph name="Eth" format="1">
  <advance width="1291"/>
  <unicode hex="00D0"/>
  <outline>
    <contour>
      <point x="387" y="137" type="line" name="hr00"/>
      <point x="387" y="658" type="line"/>
      <point x="699" y="658" type="line"/>
      <point x="699" y="754" type="line"/>
      <point x="387" y="754" type="line"/>
      <point x="387" y="1206" type="line"/>
      <point x="543" y="1206" type="line"/>
      <point x="857" y="1206"/>
      <point x="1015" y="1016"/>
      <point x="1015" y="678" type="curve" smooth="yes"/>
      <point x="1015" y="338"/>
      <point x="857" y="137"/>
      <point x="543" y="137" type="curve" smooth="yes"/>
    </contour>
    <contour>
      <point x="219" y="1343" type="line"/>
      <point x="219" y="754" type="line"/>
      <point x="61" y="745" type="line"/>
      <point x="61" y="658" type="line"/>
      <point x="219" y="658" type="line"/>
      <point x="219" y="0" type="line"/>
      <point x="562" y="0" type="line"/>
      <point x="969" y="0"/>
      <point x="1189" y="251"/>
      <point x="1189" y="678" type="curve" smooth="yes"/>
      <point x="1189" y="1104"/>
      <point x="969" y="1343"/>
      <point x="555" y="1343" type="curve" smooth="yes"/>
    </contour>
    <contour>
      <point x="625" y="1050" type="move" name="top"/>
    </contour>
  </outline>
</glyph>
<glyph name="multiply" format="1">
  <advance width="1017"/>
  <unicode hex="00D7"/>
  <outline>
    <contour>
      <point x="192" y="258" type="line" name="hr00"/>
      <point x="509" y="587" type="line"/>
      <point x="825" y="258" type="line"/>
      <point x="914" y="350" type="line"/>
      <point x="597" y="676" type="line"/>
      <point x="914" y="999" type="line"/>
      <point x="825" y="1092" type="line"/>
      <point x="509" y="765" type="line"/>
      <point x="192" y="1092" type="line"/>
      <point x="102" y="999" type="line"/>
      <point x="420" y="676" type="line"/>
      <point x="102" y="350" type="line"/>
    </contour>
  </outline>
</glyph>
<glyph name="germandbls" format="1">
  <advance width="1178"/>
  <unicode hex="00DF"/>
  <outline>
    <contour>
      <point x="169" y="0" type="line" name="hr01"/>
      <point x="335" y="0" type="line"/>
      <point x="335" y="1025" type="line"/>
      <point x="335" y="1237"/>
      <point x="421" y="1343"/>
      <point x="566" y="1343" type="curve" smooth="yes"/>
      <point x="680" y="1343"/>
      <point x="737" y="1268"/>
      <point x="737" y="1164" type="curve" smooth="yes"/>
      <point x="737" y="992"/>
      <point x="556" y="931"/>
      <point x="556" y="745" type="curve" smooth="yes"/>
      <point x="556" y="461"/>
      <point x="961" y="509"/>
      <point x="961" y="270" type="curve" name="hr02" smooth="yes"/>
      <point x="961" y="183"/>
      <point x="901" y="105"/>
      <point x="787" y="105" type="curve" smooth="yes"/>
      <point x="710" y="105"/>
      <point x="642" y="134"/>
      <point x="570" y="194" type="curve"/>
      <point x="503" y="76" type="line"/>
      <point x="587" y="14"/>
      <point x="679" y="-25"/>
      <point x="792" y="-25" type="curve" smooth="yes"/>
      <point x="993" y="-25"/>
      <point x="1118" y="109"/>
      <point x="1118" y="280" type="curve" smooth="yes"/>
      <point x="1118" y="612"/>
      <point x="715" y="566"/>
      <point x="715" y="766" type="curve" smooth="yes"/>
      <point x="715" y="908"/>
      <point x="901" y="976"/>
      <point x="901" y="1181" type="curve" smooth="yes"/>
      <point x="901" y="1342"/>
      <point x="782" y="1479"/>
      <point x="568" y="1479" type="curve" name="hr03" smooth="yes"/>
      <point x="313" y="1479"/>
      <point x="169" y="1312"/>
      <point x="169" y="1056" type="curve" smooth="yes"/>
    </contour>
    <contour>
      <point x="643" y="1050" type="move" name="top"/>
    </contour>
  </outline>
</glyph>
<glyph name="ccedilla" format="1">
  <advance width="933"/>
  <unicode hex="00E7"/>
  <outline>
    <contour>
      <point x="613" y="-20" type="line" name="hr00"/>
      <point x="713" y="-10"/>
      <point x="808" y="37"/>
      <point x="885" y="104" type="curve"/>
      <point x="809" y="214" type="line"/>
      <point x="750" y="161"/>
      <point x="670" y="113"/>
      <point x="575" y="113" type="curve" smooth="yes"/>
      <point x="392" y="113"/>
      <point x="266" y="267"/>
      <point x="266" y="496" type="curve" smooth="yes"/>
      <point x="266" y="726"/>
      <point x="398" y="882"/>
      <point x="579" y="882" type="curve" smooth="yes"/>
      <point x="659" y="882"/>
      <point x="721" y="845"/>
      <point x="780" y="794" type="curve"/>
      <point x="863" y="901" type="line"/>
      <point x="797" y="965"/>
      <point x="705" y="1020"/>
      <point x="573" y="1020" type="curve" smooth="yes"/>
      <point x="317" y="1020"/>
      <point x="94" y="829"/>
      <point x="94" y="496" type="curve" smooth="yes"/>
      <point x="94" y="190"/>
      <point x="268" y="6"/>
      <point x="502" y="-20" type="curve"/>
      <point x="434" y="-154" type="line"/>
      <point x="518" y="-174"/>
      <point x="565" y="-201"/>
      <point x="565" y="-254" type="curve" smooth="yes"/>
      <point x="565" y="-309"/>
      <point x="489" y="-338"/>
      <point x="383" y="-352" type="curve"/>
      <point x="399" y="-436" type="line"/>
      <point x="555" y="-422"/>
      <point x="695" y="-367"/>
      <point x="695" y="-248" type="curve" smooth="yes"/>
      <point x="695" y="-164"/>
      <point x="640" y="-125"/>
      <point x="574" y="-102" type="curve"/>
    </contour>
  </outline>
</glyph>
<glyph name="eth" format="1">
  <advance width="1115"/>
  <unicode hex="00F0"/>
  <outline>
    <contour>
      <point x="555" y="113" type="curve" name="hr00" smooth="yes"/>
      <point x="398" y="113"/>
      <point x="267" y="249"/>
      <point x="267" y="455" type="curve" smooth="yes"/>
      <point x="267" y="643"/>
      <point x="372" y="785"/>
      <point x="555" y="785" type="curve" smooth="yes"/>
      <point x="647" y="785"/>
      <point x="738" y="755"/>
      <point x="828" y="633" type="curve"/>
      <point x="830" y="598"/>
      <point x="832" y="559"/>
      <point x="832" y="520" type="curve" smooth="yes"/>
      <point x="832" y="280"/>
      <point x="740" y="113"/>
    </contour>
    <contour>
      <point x="978" y="1374" type="line"/>
      <point x="930" y="1458" type="line"/>
      <point x="639" y="1308" type="line"/>
      <point x="551" y="1382"/>
      <point x="455" y="1442"/>
      <point x="356" y="1495" type="curve"/>
      <point x="280" y="1390" type="line"/>
      <point x="363" y="1344"/>
      <point x="439" y="1295"/>
      <point x="509" y="1241" type="curve"/>
      <point x="249" y="1108" type="line"/>
      <point x="298" y="1025" type="line"/>
      <point x="587" y="1175" type="line"/>
      <point x="691" y="1072"/>
      <point x="769" y="948"/>
      <point x="806" y="779" type="curve"/>
      <point x="736" y="872"/>
      <point x="636" y="915"/>
      <point x="530" y="915" type="curve" smooth="yes"/>
      <point x="293" y="915"/>
      <point x="109" y="733"/>
      <point x="109" y="455" type="curve" smooth="yes"/>
      <point x="109" y="158"/>
      <point x="319" y="-25"/>
      <point x="551" y="-25" type="curve" smooth="yes"/>
      <point x="816" y="-25"/>
      <point x="992" y="199"/>
      <point x="992" y="526" type="curve" smooth="yes"/>
      <point x="992" y="850"/>
      <point x="878" y="1073"/>
      <point x="714" y="1239" type="curve"/>
    </contour>
    <contour>
      <point x="550" y="1050" type="move" name="top"/>
    </contour>
  </outline>
</glyph>
<glyph name="oslash" format="1">
  <advance width="1109"/>
  <unicode hex="00F8"/>
  <outline>
    <contour>
      <point x="802" y="724" type="line" name="hr00"/>
      <point x="835" y="660"/>
      <point x="851" y="582"/>
      <point x="851" y="489" type="curve" smooth="yes"/>
      <point x="851" y="263"/>
      <point x="727" y="110"/>
      <point x="555" y="110" type="curve" smooth="yes"/>
      <point x="480" y="110"/>
      <point x="415" y="138"/>
      <point x="364" y="189" type="curve"/>
    </contour>
    <contour>
      <point x="306" y="270" type="line"/>
      <point x="275" y="333"/>
      <point x="258" y="411"/>
      <point x="258" y="504" type="curve" smooth="yes"/>
      <point x="258" y="730"/>
      <point x="384" y="886"/>
      <point x="555" y="886" type="curve" smooth="yes"/>
      <point x="631" y="886"/>
      <point x="697" y="857"/>
      <point x="746" y="804" type="curve"/>
    </contour>
    <contour>
      <point x="1016" y="983" type="line"/>
      <point x="942" y="1042" type="line"/>
      <point x="840" y="917" type="line"/>
      <point x="760" y="985"/>
      <point x="659" y="1020"/>
      <point x="555" y="1020" type="curve" smooth="yes"/>
      <point x="311" y="1020"/>
      <point x="94" y="829"/>
      <point x="94" y="496" type="curve" smooth="yes"/>
      <point x="94" y="350"/>
      <point x="137" y="233"/>
      <point x="205" y="145" type="curve"/>
      <point x="94" y="12" type="line"/>
      <point x="169" y="-47" type="line"/>
      <point x="270" y="76" type="line"/>
      <point x="350" y="10"/>
      <point x="451" y="-25"/>
      <point x="555" y="-25" type="curve" smooth="yes"/>
      <point x="799" y="-25"/>
      <point x="1015" y="166"/>
      <point x="1015" y="496" type="curve" smooth="yes"/>
      <point x="1015" y="643"/>
      <point x="972" y="762"/>
      <point x="904" y="850" type="curve"/>
    </contour>
  </outline>
</glyph>
<glyph name="dcroat" format="1">
  <advance width="1136"/>
  <unicode hex="0111"/>
  <outline>
    <contour>
      <point x="800" y="253" type="line" name="hr01"/>
      <point x="717" y="161"/>
      <point x="637" y="115"/>
      <point x="545" y="115" type="curve" smooth="yes"/>
      <point x="370" y="115"/>
      <point x="268" y="249"/>
      <point x="268" y="477" type="curve" smooth="yes"/>
      <point x="268" y="692"/>
      <point x="396" y="839"/>
      <point x="557" y="839" type="curve" smooth="yes"/>
      <point x="639" y="839"/>
      <point x="715" y="810"/>
      <point x="800" y="734" type="curve"/>
    </contour>
    <contour>
      <point x="1115" y="1268" type="line"/>
      <point x="968" y="1268" type="line"/>
      <point x="968" y="1458" type="line"/>
      <point x="800" y="1458" type="line"/>
      <point x="800" y="1268" type="line"/>
      <point x="469" y="1268" type="line"/>
      <point x="469" y="1170" type="line"/>
      <point x="800" y="1170" type="line"/>
      <point x="800" y="1034" type="line"/>
      <point x="808" y="864" type="line"/>
      <point x="720" y="936"/>
      <point x="643" y="979"/>
      <point x="528" y="979" type="curve" smooth="yes"/>
      <point x="301" y="979"/>
      <point x="96" y="784"/>
      <point x="96" y="475" type="curve" smooth="yes"/>
      <point x="96" y="156"/>
      <point x="258" y="-25"/>
      <point x="508" y="-25" type="curve" smooth="yes"/>
      <point x="627" y="-25"/>
      <point x="732" y="37"/>
      <point x="808" y="113" type="curve"/>
      <point x="814" y="113" type="line"/>
      <point x="826" y="0" type="line" name="hr02"/>
      <point x="968" y="0" type="line"/>
      <point x="968" y="1170" type="line"/>
      <point x="1115" y="1180" type="line"/>
    </contour>
  </outline>
</glyph>
<glyph name="ebreve" format="1">
  <advance width="1015"/>
  <unicode hex="0115"/>
  <outline>
    <contour>
      <point x="540" y="1178" type="curve" name="hr00" smooth="yes"/>
      <point x="716" y="1178"/>
      <point x="790" y="1317"/>
      <point x="798" y="1438" type="curve"/>
      <point x="695" y="1438" type="line"/>
      <point x="684" y="1357"/>
      <point x="636" y="1281"/>
      <point x="540" y="1281" type="curve" smooth="yes"/>
      <point x="444" y="1281"/>
      <point x="396" y="1357"/>
      <point x="385" y="1438" type="curve"/>
      <point x="282" y="1438" type="line"/>
      <point x="290" y="1317"/>
      <point x="364" y="1178"/>
    </contour>
    <component base="e"/>
  </outline>
</glyph>
<glyph name="Eogonek" format="1">
  <advance width="1068"/>
  <unicode hex="0118"/>
  <outline>
    <contour>
      <point x="178" y="0" type="line" name="hr00"/>
      <point x="801" y="0" type="line"/>
      <point x="723" y="-49"/>
      <point x="648" y="-143"/>
      <point x="648" y="-256" type="curve" smooth="yes"/>
      <point x="648" y="-373"/>
      <point x="733" y="-434"/>
      <point x="842" y="-434" type="curve" smooth="yes"/>
      <point x="897" y="-434"/>
      <point x="966" y="-408"/>
      <point x="1005" y="-377" type="curve"/>
      <point x="958" y="-286" type="line"/>
      <point x="934" y="-304"/>
      <point x="909" y="-314"/>
      <point x="876" y="-314" type="curve" smooth="yes"/>
      <point x="826" y="-314"/>
      <point x="777" y="-284"/>
      <point x="777" y="-219" type="curve" smooth="yes"/>
      <point x="777" y="-111"/>
      <point x="873" y="-12"/>
      <point x="966" y="0" type="curve" smooth="yes"/>
      <point x="972" y="0" type="line"/>
      <point x="972" y="143" type="line"/>
      <point x="348" y="143" type="line"/>
      <point x="348" y="634" type="line"/>
      <point x="857" y="634" type="line"/>
      <point x="857" y="777" type="line"/>
      <point x="348" y="777" type="line"/>
      <point x="348" y="1202" type="line"/>
      <point x="951" y="1202" type="line"/>
      <point x="951" y="1343" type="line"/>
      <point x="178" y="1343" type="line"/>
    </contour>
  </outline>
</glyph>
<glyph name="eogonek" format="1">
  <advance width="1015"/>
  <unicode hex="0119"/>
  <outline>
    <contour>
      <point x="94" y="496" type="curve" name="hr00" smooth="yes"/>
      <point x="94" y="170"/>
      <point x="305" y="-25"/>
      <point x="571" y="-25" type="curve" smooth="yes"/>
      <point x="604" y="-25"/>
      <point x="637" y="-23"/>
      <point x="672" y="-10" type="curve"/>
      <point x="618" y="-57"/>
      <point x="549" y="-145"/>
      <point x="549" y="-248" type="curve" smooth="yes"/>
      <point x="549" y="-362"/>
      <point x="629" y="-422"/>
      <point x="733" y="-422" type="curve" smooth="yes"/>
      <point x="784" y="-422"/>
      <point x="853" y="-397"/>
      <point x="892" y="-367" type="curve"/>
      <point x="849" y="-284" type="line"/>
      <point x="824" y="-300"/>
      <point x="800" y="-310"/>
      <point x="767" y="-310" type="curve" smooth="yes"/>
      <point x="716" y="-310"/>
      <point x="671" y="-280"/>
      <point x="671" y="-216" type="curve" smooth="yes"/>
      <point x="671" y="-129"/>
      <point x="720" y="-49"/>
      <point x="898" y="78" type="curve"/>
      <point x="840" y="187" type="line"/>
      <point x="766" y="140"/>
      <point x="686" y="110"/>
      <point x="591" y="110" type="curve" smooth="yes"/>
      <point x="400" y="110"/>
      <point x="270" y="246"/>
      <point x="258" y="461" type="curve"/>
      <point x="931" y="461" type="line"/>
      <point x="935" y="485"/>
      <point x="937" y="514"/>
      <point x="937" y="553" type="curve" smooth="yes"/>
      <point x="937" y="838"/>
      <point x="794" y="1020"/>
      <point x="541" y="1020" type="curve" smooth="yes"/>
      <point x="313" y="1020"/>
      <point x="94" y="821"/>
    </contour>
    <contour>
      <point x="256" y="570" type="line"/>
      <point x="277" y="772"/>
      <point x="405" y="888"/>
      <point x="545" y="888" type="curve" smooth="yes"/>
      <point x="702" y="888"/>
      <point x="792" y="775"/>
      <point x="792" y="570" type="curve"/>
    </contour>
  </outline>
</glyph>
<glyph name="gdotaccent" format="1">
  <advance width="1031"/>
  <unicode hex="0121"/>
  <outline>
    <contour>
      <point x="500" y="1550" type="curve" name="hr00" smooth="yes"/>
      <point x="563" y="1550"/>
      <point x="610" y="1594"/>
      <point x="610" y="1660" type="curve" smooth="yes"/>
      <point x="610" y="1722"/>
      <point x="563" y="1769"/>
      <point x="500" y="1769" type="curve" smooth="yes"/>
      <point x="437" y="1769"/>
      <point x="390" y="1722"/>
      <point x="390" y="1660" type="curve" smooth="yes"/>
      <point x="390" y="1594"/>
      <point x="437" y="1550"/>
    </contour>
    <component base="g"/>
  </outline>
</glyph>
<glyph name="Iogonek" format="1">
  <advance width="526"/>
  <unicode hex="012E"/>
  <outline>
    <contour>
      <point x="178" y="0" type="line" name="hr01"/>
      <point x="219" y="0" type="line"/>
      <point x="154" y="-59"/>
      <point x="84" y="-139"/>
      <point x="84" y="-256" type="curve" name="hr02" smooth="yes"/>
      <point x="84" y="-373"/>
      <point x="170" y="-434"/>
      <point x="278" y="-434" type="curve" smooth="yes"/>
      <point x="333" y="-434"/>
      <point x="402" y="-408"/>
      <point x="441" y="-377" type="curve"/>
      <point x="394" y="-286" type="line"/>
      <point x="370" y="-304"/>
      <point x="345" y="-314"/>
      <point x="312" y="-314" type="curve" smooth="yes"/>
      <point x="263" y="-314"/>
      <point x="214" y="-284"/>
      <point x="214" y="-219" type="curve" smooth="yes"/>
      <point x="214" y="-135"/>
      <point x="263" y="-66"/>
      <point x="348" y="0" type="curve" name="hr03"/>
      <point x="348" y="1343" type="line"/>
      <point x="178" y="1343" type="line"/>
    </contour>
  </outline>
</glyph>
<glyph name="lslash" format="1">
  <advance width="535"/>
  <unicode hex="0142"/>
  <outline>
    <contour>
      <point x="488" y="859" type="line" name="hr01"/>
      <point x="488" y="1001" type="line"/>
      <point x="344" y="908" type="line"/>
      <point x="344" y="1458" type="line"/>
      <point x="176" y="1458" type="line"/>
      <point x="176" y="821" type="line"/>
      <point x="47" y="739" type="line"/>
      <point x="47" y="598" type="line"/>
      <point x="176" y="680" type="line"/>
      <point x="176" y="199" type="line"/>
      <point x="176" y="54"/>
      <point x="229" y="-25"/>
      <point x="353" y="-25" type="curve" name="hr02" smooth="yes"/>
      <point x="398" y="-25"/>
      <point x="426" y="-18"/>
      <point x="451" y="-8" type="curve"/>
      <point x="428" y="117" type="line" name="hr03"/>
      <point x="408" y="113"/>
      <point x="399" y="113"/>
      <point x="391" y="113" type="curve" smooth="yes"/>
      <point x="367" y="113"/>
      <point x="344" y="133"/>
      <point x="344" y="186" type="curve" smooth="yes"/>
      <point x="344" y="767" type="line"/>
    </contour>
  </outline>
</glyph>
<glyph name="OE" format="1">
  <advance width="1723"/>
  <unicode hex="0152"/>
  <outline>
    <contour>
      <point x="100" y="678" type="curve" name="hr01" smooth="yes"/>
      <point x="100" y="251"/>
      <point x="341" y="0"/>
      <point x="750" y="0" type="curve" smooth="yes"/>
      <point x="1629" y="0" type="line"/>
      <point x="1629" y="143" type="line"/>
      <point x="1038" y="143" type="line"/>
      <point x="1038" y="634" type="line"/>
      <point x="1515" y="634" type="line"/>
      <point x="1515" y="777" type="line"/>
      <point x="1038" y="777" type="line"/>
      <point x="1038" y="1202" type="line"/>
      <point x="1609" y="1202" type="line"/>
      <point x="1609" y="1343" type="line"/>
      <point x="758" y="1343" type="line"/>
      <point x="341" y="1343"/>
      <point x="100" y="1104"/>
    </contour>
    <contour>
      <point x="274" y="678" type="curve" name="hr02" smooth="yes"/>
      <point x="274" y="1018"/>
      <point x="444" y="1206"/>
      <point x="770" y="1206" type="curve" smooth="yes"/>
      <point x="868" y="1206" type="line"/>
      <point x="868" y="137" type="line"/>
      <point x="770" y="137" type="line"/>
      <point x="444" y="137"/>
      <point x="274" y="336"/>
    </contour>
    <contour>
      <point x="864" y="1050" type="move" name="top"/>
    </contour>
  </outline>
</glyph>
<glyph name="uni015E" format="1">
  <advance width="1082"/>
  <unicode hex="015E"/>
  <outline>
    <contour>
      <point x="540" y="799" type="line" name="hr01"/>
      <point x="435" y="844"/>
      <point x="315" y="893"/>
      <point x="315" y="1023" type="curve" smooth="yes"/>
      <point x="315" y="1144"/>
      <point x="417" y="1221"/>
      <point x="569" y="1221" type="curve" smooth="yes"/>
      <point x="692" y="1221"/>
      <point x="793" y="1171"/>
      <point x="874" y="1093" type="curve"/>
      <point x="964" y="1202" type="line"/>
      <point x="869" y="1300"/>
      <point x="729" y="1368"/>
      <point x="569" y="1368" type="curve" smooth="yes"/>
      <point x="326" y="1368"/>
      <point x="145" y="1218"/>
      <point x="145" y="1013" type="curve" smooth="yes"/>
      <point x="145" y="816"/>
      <point x="294" y="720"/>
      <point x="418" y="667" type="curve" smooth="yes"/>
      <point x="611" y="583" type="line"/>
      <point x="738" y="525"/>
      <point x="837" y="481"/>
      <point x="837" y="344" type="curve" smooth="yes"/>
      <point x="837" y="212"/>
      <point x="731" y="123"/>
      <point x="555" y="123" type="curve" name="hr02" smooth="yes"/>
      <point x="413" y="123"/>
      <point x="280" y="191"/>
      <point x="183" y="292" type="curve"/>
      <point x="82" y="174" type="line"/>
      <point x="188" y="63"/>
      <point x="332" y="-10"/>
      <point x="500" y="-23" type="curve"/>
      <point x="432" y="-154" type="line"/>
      <point x="514" y="-174"/>
      <point x="561" y="-201"/>
      <point x="561" y="-254" type="curve" smooth="yes"/>
      <point x="561" y="-309"/>
      <point x="487" y="-338"/>
      <point x="379" y="-352" type="curve"/>
      <point x="395" y="-436" type="line"/>
      <point x="551" y="-422"/>
      <point x="691" y="-367"/>
      <point x="691" y="-248" type="curve" smooth="yes"/>
      <point x="691" y="-164"/>
      <point x="636" y="-125"/>
      <point x="570" y="-102" type="curve"/>
      <point x="609" y="-23" type="line"/>
      <point x="857" y="0"/>
      <point x="1009" y="160"/>
      <point x="1009" y="357" type="curve" smooth="yes"/>
      <point x="1009" y="557"/>
      <point x="888" y="648"/>
      <point x="732" y="716" type="curve" smooth="yes"/>
    </contour>
  </outline>
</glyph>
<glyph name="uni015F" format="1">
  <advance width="857"/>
  <unicode hex="015F"/>
  <outline>
    <contour>
      <point x="757" y="907" type="line" name="hr00"/>
      <point x="681" y="969"/>
      <point x="572" y="1020"/>
      <point x="449" y="1020" type="curve" smooth="yes"/>
      <point x="233" y="1020"/>
      <point x="106" y="897"/>
      <point x="106" y="737" type="curve" smooth="yes"/>
      <point x="106" y="569"/>
      <point x="262" y="502"/>
      <point x="404" y="451" type="curve" smooth="yes"/>
      <point x="513" y="410"/>
      <point x="632" y="365"/>
      <point x="632" y="262" type="curve" smooth="yes"/>
      <point x="632" y="175"/>
      <point x="566" y="105"/>
      <point x="434" y="105" type="curve" smooth="yes"/>
      <point x="314" y="105"/>
      <point x="226" y="155"/>
      <point x="140" y="224" type="curve"/>
      <point x="57" y="113" type="line"/>
      <point x="145" y="39"/>
      <point x="268" y="-16"/>
      <point x="399" y="-25" type="curve"/>
      <point x="334" y="-154" type="line"/>
      <point x="418" y="-174"/>
      <point x="465" y="-201"/>
      <point x="465" y="-254" type="curve" smooth="yes"/>
      <point x="465" y="-309"/>
      <point x="389" y="-338"/>
      <point x="283" y="-352" type="curve"/>
      <point x="299" y="-436" type="line"/>
      <point x="452" y="-422"/>
      <point x="593" y="-367"/>
      <point x="593" y="-248" type="curve" smooth="yes"/>
      <point x="593" y="-164"/>
      <point x="540" y="-125"/>
      <point x="472" y="-102" type="curve"/>
      <point x="513" y="-18" type="line"/>
      <point x="693" y="10"/>
      <point x="792" y="131"/>
      <point x="792" y="271" type="curve" smooth="yes"/>
      <point x="792" y="461"/>
      <point x="632" y="519"/>
      <point x="488" y="572" type="curve" smooth="yes"/>
      <point x="376" y="615"/>
      <point x="266" y="653"/>
      <point x="266" y="745" type="curve" smooth="yes"/>
      <point x="266" y="822"/>
      <point x="325" y="890"/>
      <point x="450" y="890" type="curve" smooth="yes"/>
      <point x="539" y="890"/>
      <point x="610" y="853"/>
      <point x="678" y="802" type="curve"/>
    </contour>
  </outline>
</glyph>
<glyph name="uni0162" format="1">
  <advance width="1086"/>
  <unicode hex="0162"/>
  <outline>
    <contour>
      <point x="628" y="0" type="line" name="hr01"/>
      <point x="628" y="1202" type="line"/>
      <point x="1035" y="1202" type="line"/>
      <point x="1035" y="1343" type="line"/>
      <point x="51" y="1343" type="line"/>
      <point x="51" y="1202" type="line"/>
      <point x="460" y="1202" type="line"/>
      <point x="460" y="0" type="line"/>
      <point x="494" y="0" type="line"/>
      <point x="416" y="-154" type="line"/>
      <point x="498" y="-174"/>
      <point x="545" y="-201"/>
      <point x="545" y="-254" type="curve" name="hr02" smooth="yes"/>
      <point x="545" y="-309"/>
      <point x="471" y="-338"/>
      <point x="362" y="-352" type="curve"/>
      <point x="379" y="-436" type="line"/>
      <point x="534" y="-422"/>
      <point x="675" y="-367"/>
      <point x="675" y="-248" type="curve" smooth="yes"/>
      <point x="675" y="-164"/>
      <point x="620" y="-125"/>
      <point x="554" y="-102" type="curve"/>
      <point x="603" y="0" type="line" name="hr03"/>
    </contour>
  </outline>
</glyph>
<glyph name="Uogonek" format="1">
  <advance width="1310"/>
  <unicode hex="0172"/>
  <outline>
    <contour>
      <point x="172" y="554" type="line" name="hr00"/>
      <point x="172" y="140"/>
      <point x="366" y="-16"/>
      <point x="647" y="-23" type="curve"/>
      <point x="596" y="-74"/>
      <point x="516" y="-143"/>
      <point x="516" y="-256" type="curve" smooth="yes"/>
      <point x="516" y="-373"/>
      <point x="604" y="-434"/>
      <point x="711" y="-434" type="curve" smooth="yes"/>
      <point x="765" y="-434"/>
      <point x="835" y="-408"/>
      <point x="873" y="-377" type="curve"/>
      <point x="826" y="-286" type="line"/>
      <point x="802" y="-304"/>
      <point x="777" y="-314"/>
      <point x="744" y="-314" type="curve" smooth="yes"/>
      <point x="695" y="-314"/>
      <point x="646" y="-284"/>
      <point x="646" y="-219" type="curve" smooth="yes"/>
      <point x="646" y="-152"/>
      <point x="704" y="-66"/>
      <point x="810" y="-14" type="curve" smooth="yes"/>
      <point x="1005" y="78"/>
      <point x="1138" y="192"/>
      <point x="1138" y="554" type="curve" smooth="yes"/>
      <point x="1138" y="1343" type="line"/>
      <point x="976" y="1343" type="line"/>
      <point x="976" y="550" type="line"/>
      <point x="976" y="226"/>
      <point x="834" y="123"/>
      <point x="655" y="123" type="curve" smooth="yes"/>
      <point x="480" y="123"/>
      <point x="342" y="226"/>
      <point x="342" y="550" type="curve" smooth="yes"/>
      <point x="342" y="1343" type="line"/>
      <point x="172" y="1343" type="line"/>
    </contour>
  </outline>
</glyph>
<glyph name="uni0180" format="1">
  <advance width="1113"/>
  <unicode hex="0180"/>
  <outline>
    <contour>
      <point x="335" y="703" type="line" name="hr01"/>
      <point x="429" y="792"/>
      <point x="518" y="839"/>
      <point x="602" y="839" type="curve" smooth="yes"/>
      <point x="792" y="839"/>
      <point x="865" y="698"/>
      <point x="865" y="492" type="curve" smooth="yes"/>
      <point x="865" y="257"/>
      <point x="744" y="115"/>
      <point x="580" y="115" type="curve" smooth="yes"/>
      <point x="513" y="115"/>
      <point x="423" y="144"/>
      <point x="335" y="220" type="curve"/>
    </contour>
    <contour>
      <point x="335" y="1020" type="line"/>
      <point x="335" y="1170" type="line"/>
      <point x="708" y="1170" type="line"/>
      <point x="708" y="1268" type="line"/>
      <point x="335" y="1268" type="line"/>
      <point x="335" y="1458" type="line"/>
      <point x="169" y="1458" type="line"/>
      <point x="169" y="1268" type="line"/>
      <point x="16" y="1257" type="line"/>
      <point x="16" y="1170" type="line"/>
      <point x="169" y="1170" type="line"/>
      <point x="169" y="0" type="line" name="hr02"/>
      <point x="302" y="0" type="line"/>
      <point x="316" y="98" type="line"/>
      <point x="323" y="98" type="line"/>
      <point x="411" y="20"/>
      <point x="515" y="-25"/>
      <point x="607" y="-25" type="curve" name="hr03" smooth="yes"/>
      <point x="835" y="-25"/>
      <point x="1037" y="166"/>
      <point x="1037" y="494" type="curve" smooth="yes"/>
      <point x="1037" y="788"/>
      <point x="900" y="979"/>
      <point x="642" y="979" type="curve" smooth="yes"/>
      <point x="531" y="979"/>
      <point x="421" y="919"/>
      <point x="331" y="839" type="curve"/>
    </contour>
  </outline>
</glyph>
<glyph name="ohorn" format="1">
  <advance width="1109"/>
  <unicode hex="01A1"/>
  <outline>
    <contour>
      <point x="555" y="113" type="curve" name="hr01" smooth="yes"/>
      <point x="384" y="113"/>
      <point x="266" y="267"/>
      <point x="266" y="496" type="curve" smooth="yes"/>
      <point x="266" y="726"/>
      <point x="384" y="882"/>
      <point x="555" y="882" type="curve" smooth="yes"/>
      <point x="727" y="882"/>
      <point x="843" y="726"/>
      <point x="843" y="496" type="curve" smooth="yes"/>
      <point x="843" y="267"/>
      <point x="727" y="113"/>
    </contour>
    <contour>
      <point x="868" y="1196" type="line" name="hr02"/>
      <point x="887" y="1169"/>
      <point x="899" y="1141"/>
      <point x="899" y="1110" type="curve" smooth="yes"/>
      <point x="899" y="1034"/>
      <point x="844" y="993"/>
      <point x="748" y="977" type="curve"/>
      <point x="688" y="1006"/>
      <point x="623" y="1020"/>
      <point x="555" y="1020" type="curve" smooth="yes"/>
      <point x="311" y="1020"/>
      <point x="94" y="829"/>
      <point x="94" y="496" type="curve" smooth="yes"/>
      <point x="94" y="166"/>
      <point x="311" y="-25"/>
      <point x="555" y="-25" type="curve" smooth="yes"/>
      <point x="799" y="-25"/>
      <point x="1015" y="166"/>
      <point x="1015" y="496" type="curve" name="hr03" smooth="yes"/>
      <point x="1015" y="680"/>
      <point x="947" y="821"/>
      <point x="847" y="911" type="curve"/>
      <point x="947" y="940"/>
      <point x="1037" y="999"/>
      <point x="1037" y="1122" type="curve" name="hr04" smooth="yes"/>
      <point x="1037" y="1173"/>
      <point x="1017" y="1218"/>
      <point x="990" y="1254" type="curve"/>
    </contour>
  </outline>
</glyph>
<glyph name="uni01EA" format="1">
  <advance width="1349"/>
  <unicode hex="01EA"/>
  <outline>
    <contour>
      <point x="539" y="-256" type="curve" name="hr00" smooth="yes"/>
      <point x="539" y="-373"/>
      <point x="627" y="-434"/>
      <point x="735" y="-434" type="curve" smooth="yes"/>
      <point x="788" y="-434"/>
      <point x="857" y="-408"/>
      <point x="896" y="-377" type="curve"/>
      <point x="851" y="-286" type="line"/>
      <point x="826" y="-304"/>
      <point x="800" y="-314"/>
      <point x="767" y="-314" type="curve" smooth="yes"/>
      <point x="720" y="-314"/>
      <point x="671" y="-284"/>
      <point x="671" y="-219" type="curve" smooth="yes"/>
      <point x="671" y="-150"/>
      <point x="720" y="-63"/>
      <point x="830" y="-14" type="curve" smooth="yes"/>
      <point x="1097" y="109"/>
      <point x="1248" y="311"/>
      <point x="1248" y="678" type="curve" smooth="yes"/>
      <point x="1248" y="1106"/>
      <point x="1011" y="1368"/>
      <point x="676" y="1368" type="curve" smooth="yes"/>
      <point x="338" y="1368"/>
      <point x="100" y="1108"/>
      <point x="100" y="678" type="curve" smooth="yes"/>
      <point x="100" y="258"/>
      <point x="319" y="-14"/>
      <point x="666" y="-23" type="curve"/>
      <point x="592" y="-82"/>
      <point x="539" y="-166"/>
    </contour>
    <contour>
      <point x="676" y="123" type="curve" smooth="yes"/>
      <point x="433" y="123"/>
      <point x="274" y="341"/>
      <point x="274" y="678" type="curve" smooth="yes"/>
      <point x="274" y="1013"/>
      <point x="433" y="1221"/>
      <point x="676" y="1221" type="curve" smooth="yes"/>
      <point x="915" y="1221"/>
      <point x="1074" y="1013"/>
      <point x="1074" y="678" type="curve" smooth="yes"/>
      <point x="1074" y="341"/>
      <point x="915" y="123"/>
    </contour>
  </outline>
</glyph>
<glyph name="uni01EB" format="1">
  <advance width="1109"/>
  <unicode hex="01EB"/>
  <outline>
    <contour>
      <point x="420" y="-248" type="curve" name="hr00" smooth="yes"/>
      <point x="420" y="-362"/>
      <point x="502" y="-422"/>
      <point x="604" y="-422" type="curve" smooth="yes"/>
      <point x="657" y="-422"/>
      <point x="726" y="-397"/>
      <point x="765" y="-367" type="curve"/>
      <point x="722" y="-284" type="line"/>
      <point x="695" y="-300"/>
      <point x="671" y="-310"/>
      <point x="638" y="-310" type="curve" smooth="yes"/>
      <point x="589" y="-310"/>
      <point x="544" y="-280"/>
      <point x="544" y="-216" type="curve" smooth="yes"/>
      <point x="544" y="-137"/>
      <point x="597" y="-51"/>
      <point x="689" y="-8" type="curve" smooth="yes"/>
      <point x="884" y="80"/>
      <point x="1015" y="219"/>
      <point x="1015" y="496" type="curve" smooth="yes"/>
      <point x="1015" y="829"/>
      <point x="799" y="1020"/>
      <point x="555" y="1020" type="curve" smooth="yes"/>
      <point x="311" y="1020"/>
      <point x="94" y="829"/>
      <point x="94" y="496" type="curve" smooth="yes"/>
      <point x="94" y="180"/>
      <point x="295" y="-10"/>
      <point x="535" y="-23" type="curve"/>
      <point x="487" y="-61"/>
      <point x="420" y="-145"/>
    </contour>
    <contour>
      <point x="266" y="496" type="curve" smooth="yes"/>
      <point x="266" y="726"/>
      <point x="384" y="882"/>
      <point x="555" y="882" type="curve" smooth="yes"/>
      <point x="727" y="882"/>
      <point x="843" y="726"/>
      <point x="843" y="496" type="curve" smooth="yes"/>
      <point x="843" y="267"/>
      <point x="727" y="113"/>
      <point x="555" y="113" type="curve" smooth="yes"/>
      <point x="384" y="113"/>
      <point x="266" y="267"/>
    </contour>
  </outline>
</glyph>
<glyph name="dotlessj" format="1">
  <advance width="505"/>
  <unicode hex="0237"/>
  <outline>
    <contour>
      <point x="170" y="-120" type="line" name="hr00"/>
      <point x="170" y="-241"/>
      <point x="146" y="-309"/>
      <point x="47" y="-309" type="curve" smooth="yes"/>
      <point x="12" y="-309"/>
      <point x="-23" y="-301"/>
      <point x="-47" y="-293" type="curve"/>
      <point x="-82" y="-419" type="line"/>
      <point x="-47" y="-433"/>
      <point x="4" y="-445"/>
      <point x="66" y="-445" type="curve" smooth="yes"/>
      <point x="263" y="-445"/>
      <point x="337" y="-322"/>
      <point x="337" y="-121" type="curve" smooth="yes"/>
      <point x="337" y="995" type="line"/>
      <point x="170" y="995" type="line"/>
    </contour>
    <contour>
      <point x="127" y="1050" type="move" name="top"/>
    </contour>
  </outline>
</glyph>
<glyph name="uni0243" format="1">
  <advance width="1234"/>
  <unicode hex="0243"/>
  <outline>
    <contour>
      <point x="387" y="128" type="line" name="hr01"/>
      <point x="387" y="362" type="line"/>
      <point x="699" y="362" type="line"/>
      <point x="699" y="458" type="line"/>
      <point x="387" y="458" type="line"/>
      <point x="387" y="667" type="line"/>
      <point x="624" y="667" type="line"/>
      <point x="858" y="667"/>
      <point x="992" y="586"/>
      <point x="992" y="410" type="curve" smooth="yes"/>
      <point x="992" y="218"/>
      <point x="854" y="128"/>
      <point x="624" y="128" type="curve" smooth="yes"/>
    </contour>
    <contour>
      <point x="387" y="1218" type="line"/>
      <point x="595" y="1218" type="line"/>
      <point x="805" y="1218"/>
      <point x="916" y="1156"/>
      <point x="916" y="1008" type="curve" name="hr02" smooth="yes"/>
      <point x="916" y="858"/>
      <point x="817" y="777"/>
      <point x="589" y="777" type="curve" smooth="yes"/>
      <point x="387" y="777" type="line"/>
    </contour>
    <contour>
      <point x="845" y="737" type="line"/>
      <point x="1003" y="778"/>
      <point x="1078" y="889"/>
      <point x="1078" y="1020" type="curve" smooth="yes"/>
      <point x="1078" y="1249"/>
      <point x="890" y="1343"/>
      <point x="617" y="1343" type="curve" smooth="yes"/>
      <point x="219" y="1343" type="line"/>
      <point x="219" y="458" type="line"/>
      <point x="61" y="450" type="line"/>
      <point x="61" y="362" type="line"/>
      <point x="219" y="362" type="line"/>
      <point x="219" y="0" type="line"/>
      <point x="648" y="0" type="line"/>
      <point x="947" y="0"/>
      <point x="1156" y="131"/>
      <point x="1156" y="401" type="curve" name="hr03" smooth="yes"/>
      <point x="1156" y="590"/>
      <point x="1041" y="698"/>
      <point x="845" y="729" type="curve"/>
    </contour>
  </outline>
</glyph>
<glyph name="uni02C8" format="1">
  <advance width="232"/>
  <unicode hex="02C8"/>
  <outline>
    <contour>
      <point x="57" y="1092" type="line" name="hr00"/>
      <point x="175" y="1092" type="line"/>
      <point x="187" y="1465" type="line"/>
      <point x="45" y="1465" type="line"/>
    </contour>
    <contour>
      <point x="116" y="1050" type="move" name="_top"/>
    </contour>
  </outline>
</glyph>
<glyph name="breve" format="1">
  <advance width="1109"/>
  <unicode hex="02D8"/>
  <outline>
    <contour>
      <point x="555" y="1178" type="curve" name="hr00" smooth="yes"/>
      <point x="731" y="1178"/>
      <point x="804" y="1317"/>
      <point x="812" y="1438" type="curve"/>
      <point x="709" y="1438" type="line"/>
      <point x="698" y="1357"/>
      <point x="651" y="1281"/>
      <point x="555" y="1281" type="curve" smooth="yes"/>
      <point x="458" y="1281"/>
      <point x="411" y="1357"/>
      <point x="400" y="1438" type="curve"/>
      <point x="297" y="1438" type="line"/>
      <point x="305" y="1317"/>
      <point x="379" y="1178"/>
    </contour>
    <contour>
      <point x="554" y="1050" type="move" name="_top"/>
    </contour>
  </outline>
</glyph>
<glyph name="ring" format="1">
  <advance width="1109"/>
  <unicode hex="02DA"/>
  <outline>
    <contour>
      <point x="555" y="1110" type="curve" name="hr00" smooth="yes"/>
      <point x="665" y="1110"/>
      <point x="747" y="1186"/>
      <point x="747" y="1299" type="curve" smooth="yes"/>
      <point x="747" y="1412"/>
      <point x="665" y="1488"/>
      <point x="555" y="1488" type="curve" smooth="yes"/>
      <point x="444" y="1488"/>
      <point x="365" y="1412"/>
      <point x="365" y="1299" type="curve" smooth="yes"/>
      <point x="365" y="1186"/>
      <point x="444" y="1110"/>
    </contour>
    <contour>
      <point x="555" y="1185" type="curve" smooth="yes"/>
      <point x="500" y="1185"/>
      <point x="457" y="1230"/>
      <point x="457" y="1299" type="curve" smooth="yes"/>
      <point x="457" y="1368"/>
      <point x="500" y="1413"/>
      <point x="555" y="1413" type="curve" smooth="yes"/>
      <point x="610" y="1413"/>
      <point x="653" y="1368"/>
      <point x="653" y="1299" type="curve" smooth="yes"/>
      <point x="653" y="1230"/>
      <point x="610" y="1185"/>
    </contour>
    <contour>
      <point x="556" y="1050" type="move" name="_top"/>
    </contour>
  </outline>
</glyph>
<glyph name="tilde" format="1">
  <advance width="1109"/>
  <unicode hex="02DC"/>
  <outline>
    <contour>
      <point x="271" y="1186" type="curve" name="hr01"/>
      <point x="367" y="1186" type="line"/>
      <point x="377" y="1255"/>
      <point x="399" y="1290"/>
      <point x="440" y="1290" type="curve" smooth="yes"/>
      <point x="510" y="1290"/>
      <point x="571" y="1186"/>
      <point x="674" y="1186" type="curve" smooth="yes"/>
      <point x="774" y="1186"/>
      <point x="828" y="1280"/>
      <point x="839" y="1402" type="curve"/>
      <point x="745" y="1402" type="line"/>
      <point x="733" y="1332"/>
      <point x="711" y="1297"/>
      <point x="670" y="1297" type="curve" name="hr02" smooth="yes"/>
      <point x="604" y="1297"/>
      <point x="541" y="1402"/>
      <point x="436" y="1402" type="curve" smooth="yes"/>
      <point x="336" y="1402"/>
      <point x="282" y="1308"/>
    </contour>
    <contour>
      <point x="555" y="1050" type="move" name="_top"/>
    </contour>
  </outline>
</glyph>
<glyph name="l.sups" format="1">
  <advance width="355"/>
  <unicode hex="02E1"/>
  <outline>
    <contour>
      <point x="106" y="681" type="line" name="hr00"/>
      <point x="106" y="579"/>
      <point x="141" y="516"/>
      <point x="239" y="516" type="curve" smooth="yes"/>
      <point x="273" y="516"/>
      <point x="294" y="522"/>
      <point x="312" y="528" type="curve"/>
      <point x="294" y="624" type="line"/>
      <point x="282" y="620"/>
      <point x="273" y="620"/>
      <point x="265" y="620" type="curve" smooth="yes"/>
      <point x="245" y="620"/>
      <point x="232" y="634"/>
      <point x="232" y="671" type="curve" smooth="yes"/>
      <point x="232" y="1493" type="line"/>
      <point x="106" y="1493" type="line"/>
    </contour>
  </outline>
</glyph>
<glyph name="uni0302" format="1">
  <advance width="600"/>
  <unicode hex="0302"/>
  <outline>
    <contour>
      <point x="-263" y="1174" type="line"/>
      <point x="-141" y="1174" type="line"/>
      <point x="-4" y="1360" type="line"/>
      <point x="4" y="1360" type="line"/>
      <point x="141" y="1174" type="line"/>
      <point x="263" y="1174" type="line"/>
      <point x="69" y="1462" type="line"/>
      <point x="-69" y="1462" type="line"/>
    </contour>
    <contour>
      <point x="0" y="1040" type="move" name="_mark0"/>
    </contour>
  </outline>
</glyph>
<glyph name="uni0304" format="1">
  <advance width="600"/>
  <unicode hex="0304"/>
  <outline>
    <contour>
      <point x="-251" y="1231" type="line"/>
      <point x="251" y="1231" type="line"/>
      <point x="251" y="1347" type="line"/>
      <point x="-251" y="1347" type="line"/>
    </contour>
    <contour>
      <point x="0" y="1040" type="move" name="_mark0"/>
    </contour>
  </outline>
</glyph>
<glyph name="uni0306" format="1">
  <advance width="600"/>
  <unicode hex="0306"/>
  <outline>
    <contour>
      <point x="0" y="1178" type="curve" smooth="yes"/>
      <point x="176" y="1178"/>
      <point x="250" y="1317"/>
      <point x="258" y="1438" type="curve"/>
      <point x="155" y="1438" type="line"/>
      <point x="144" y="1357"/>
      <point x="96" y="1281"/>
      <point x="0" y="1281" type="curve" smooth="yes"/>
      <point x="-96" y="1281"/>
      <point x="-144" y="1357"/>
      <point x="-155" y="1438" type="curve"/>
      <point x="-258" y="1438" type="line"/>
      <point x="-250" y="1317"/>
      <point x="-176" y="1178"/>
    </contour>
    <contour>
      <point x="0" y="1040" type="move" name="_mark0"/>
    </contour>
  </outline>
</glyph>
<glyph name="uni030A" format="1">
  <advance width="600"/>
  <unicode hex="030A"/>
  <outline>
    <contour>
      <point x="0" y="1110" type="curve" smooth="yes"/>
      <point x="111" y="1110"/>
      <point x="189" y="1186"/>
      <point x="189" y="1299" type="curve" smooth="yes"/>
      <point x="189" y="1412"/>
      <point x="111" y="1488"/>
      <point x="0" y="1488" type="curve" smooth="yes"/>
      <point x="-111" y="1488"/>
      <point x="-189" y="1412"/>
      <point x="-189" y="1299" type="curve" smooth="yes"/>
      <point x="-189" y="1186"/>
      <point x="-111" y="1110"/>
    </contour>
    <contour>
      <point x="0" y="1185" type="curve" smooth="yes"/>
      <point x="-55" y="1185"/>
      <point x="-98" y="1230"/>
      <point x="-98" y="1299" type="curve" smooth="yes"/>
      <point x="-98" y="1368"/>
      <point x="-55" y="1413"/>
      <point x="0" y="1413" type="curve" smooth="yes"/>
      <point x="55" y="1413"/>
      <point x="98" y="1368"/>
      <point x="98" y="1299" type="curve" smooth="yes"/>
      <point x="98" y="1230"/>
      <point x="55" y="1185"/>
    </contour>
    <contour>
      <point x="0" y="1040" type="move" name="_mark0"/>
    </contour>
  </outline>
</glyph>
<glyph name="uni0312" format="1">
  <advance width="0"/>
  <unicode hex="0312"/>
  <outline>
    <contour>
      <point x="57" y="1498" type="line" name="hr00"/>
      <point x="-59" y="1445"/>
      <point x="-108" y="1353"/>
      <point x="-108" y="1257" type="curve" smooth="yes"/>
      <point x="-108" y="1165"/>
      <point x="-72" y="1116"/>
      <point x="-4" y="1116" type="curve" smooth="yes"/>
      <point x="41" y="1116"/>
      <point x="78" y="1147"/>
      <point x="78" y="1208" type="curve" smooth="yes"/>
      <point x="78" y="1261"/>
      <point x="35" y="1287"/>
      <point x="-6" y="1287" type="curve" smooth="yes"/>
      <point x="-12" y="1287"/>
      <point x="-16" y="1287"/>
      <point x="-23" y="1285" type="curve"/>
      <point x="-18" y="1347"/>
      <point x="16" y="1396"/>
      <point x="94" y="1434" type="curve"/>
    </contour>
  </outline>
</glyph>
<glyph name="uni0313" format="1">
  <advance width="0"/>
  <unicode hex="0313"/>
  <outline>
    <contour>
      <point x="-61" y="1114" type="line" name="hr00"/>
      <point x="55" y="1167"/>
      <point x="104" y="1257"/>
      <point x="104" y="1354" type="curve" smooth="yes"/>
      <point x="104" y="1445"/>
      <point x="68" y="1494"/>
      <point x="2" y="1494" type="curve" smooth="yes"/>
      <point x="-43" y="1494"/>
      <point x="-82" y="1464"/>
      <point x="-82" y="1405" type="curve" smooth="yes"/>
      <point x="-82" y="1352"/>
      <point x="-39" y="1325"/>
      <point x="2" y="1325" type="curve" smooth="yes"/>
      <point x="8" y="1325"/>
      <point x="14" y="1325"/>
      <point x="20" y="1327" type="curve"/>
      <point x="16" y="1266"/>
      <point x="-20" y="1217"/>
      <point x="-96" y="1180" type="curve"/>
    </contour>
    <contour>
      <point x="4" y="1050" type="move" name="_top"/>
    </contour>
  </outline>
</glyph>
<glyph name="uni031B" format="1">
  <advance width="0"/>
  <unicode hex="031B"/>
  <outline>
    <contour>
      <point x="-2" y="891" type="line" name="hr00"/>
      <point x="166" y="907"/>
      <point x="292" y="975"/>
      <point x="292" y="1122" type="curve" smooth="yes"/>
      <point x="292" y="1173"/>
      <point x="271" y="1218"/>
      <point x="245" y="1254" type="curve"/>
      <point x="126" y="1196" type="line"/>
      <point x="142" y="1169"/>
      <point x="155" y="1141"/>
      <point x="155" y="1110" type="curve" smooth="yes"/>
      <point x="155" y="1028"/>
      <point x="96" y="991"/>
      <point x="-18" y="975" type="curve"/>
    </contour>
    <contour>
      <point x="137" y="1050" type="move" name="_top"/>
    </contour>
  </outline>
</glyph>
<glyph name="uni0327" format="1">
  <advance width="0"/>
  <unicode hex="0327"/>
  <outline>
    <contour>
      <point x="-120" y="-154" type="line" name="hr00"/>
      <point x="-38" y="-174"/>
      <point x="9" y="-201"/>
      <point x="9" y="-254" type="curve" smooth="yes"/>
      <point x="9" y="-309"/>
      <point x="-65" y="-338"/>
      <point x="-173" y="-352" type="curve"/>
      <point x="-157" y="-436" type="line"/>
      <point x="-2" y="-422"/>
      <point x="138" y="-367"/>
      <point x="138" y="-248" type="curve" smooth="yes"/>
      <point x="138" y="-164"/>
      <point x="83" y="-125"/>
      <point x="17" y="-102" type="curve"/>
      <point x="70" y="6" type="line"/>
      <point x="-38" y="6" type="line"/>
    </contour>
    <contour>
      <point x="-18" y="1050" type="move" name="_top"/>
    </contour>
  </outline>
</glyph>
<glyph name="uni0328" format="1">
  <advance width="0"/>
  <unicode hex="0328"/>
  <outline>
    <contour>
      <point x="-134" y="-248" type="curve" name="hr00" smooth="yes"/>
      <point x="-134" y="-362"/>
      <point x="-53" y="-422"/>
      <point x="49" y="-422" type="curve" smooth="yes"/>
      <point x="100" y="-422"/>
      <point x="172" y="-397"/>
      <point x="210" y="-367" type="curve"/>
      <point x="166" y="-284" type="line"/>
      <point x="143" y="-300"/>
      <point x="117" y="-310"/>
      <point x="84" y="-310" type="curve" smooth="yes"/>
      <point x="35" y="-310"/>
      <point x="-11" y="-280"/>
      <point x="-11" y="-216" type="curve" smooth="yes"/>
      <point x="-11" y="-135"/>
      <point x="41" y="-59"/>
      <point x="129" y="6" type="curve"/>
      <point x="11" y="6" type="line"/>
      <point x="-57" y="-45"/>
      <point x="-134" y="-137"/>
    </contour>
    <contour>
      <point x="38" y="1050" type="move" name="_top"/>
    </contour>
  </outline>
</glyph>
<glyph name="uni032E" format="1">
  <advance width="0"/>
  <unicode hex="032E"/>
  <outline>
    <contour>
      <point x="0" y="-422" type="curve" name="hr00" smooth="yes"/>
      <point x="176" y="-422"/>
      <point x="250" y="-283"/>
      <point x="258" y="-162" type="curve"/>
      <point x="155" y="-162" type="line"/>
      <point x="144" y="-242"/>
      <point x="96" y="-318"/>
      <point x="0" y="-318" type="curve" smooth="yes"/>
      <point x="-96" y="-318"/>
      <point x="-144" y="-242"/>
      <point x="-155" y="-162" type="curve"/>
      <point x="-258" y="-162" type="line"/>
      <point x="-250" y="-283"/>
      <point x="-176" y="-422"/>
    </contour>
    <contour>
      <point x="0" y="1050" type="move" name="_top"/>
    </contour>
  </outline>
</glyph>
<glyph name="visarga-deva" format="1">
  <advance width="570"/>
  <unicode hex="0903"/>
  <outline>
    <contour>
      <point x="226" y="862"/>
      <point x="197" y="834"/>
      <point x="197" y="769" type="curve" smooth="yes"/>
      <point x="197" y="704"/>
      <point x="226" y="676"/>
      <point x="292" y="676" type="curve" smooth="yes"/>
      <point x="357" y="676"/>
      <point x="386" y="704"/>
      <point x="386" y="769" type="curve" smooth="yes"/>
      <point x="386" y="834"/>
      <point x="357" y="862"/>
      <point x="292" y="862" type="curve" smooth="yes"/>
    </contour>
    <contour>
      <point x="226" y="318"/>
      <point x="197" y="290"/>
      <point x="197" y="224" type="curve" smooth="yes"/>
      <point x="197" y="160"/>
      <point x="226" y="132"/>
      <point x="292" y="132" type="curve" smooth="yes"/>
      <point x="357" y="132"/>
      <point x="386" y="160"/>
      <point x="386" y="224" type="curve" smooth="yes"/>
      <point x="386" y="290"/>
      <point x="357" y="318"/>
      <point x="292" y="318" type="curve" smooth="yes"/>
    </contour>
  </outline>
</glyph>
<glyph name="aa-deva" format="1">
  <advance width="1943"/>
  <unicode hex="0906"/>
  <outline>
    <component base="a-deva"/>
    <component base="aaMatra-deva" xOffset="1386"/>
    <contour>
      <point x="1666" y="1168" type="move" name="top"/>
    </contour>
    <contour>
      <point x="1667" y="28" type="move" name="bottom"/>
    </contour>
    <contour>
      <point x="1406" y="1168" type="move" name="topcandra"/>
    </contour>
  </outline>
</glyph>
<glyph name="i-deva" format="1">
  <advance width="1009"/>
  <unicode hex="0907"/>
  <outline>
    <contour>
      <point x="-15" y="1262" type="line"/>
      <point x="-15" y="1129" type="line"/>
      <point x="1024" y="1129" type="line"/>
      <point x="1024" y="1262" type="line"/>
    </contour>
    <contour>
      <point x="664" y="1201" type="line"/>
      <point x="664" y="787" type="line"/>
      <point x="819" y="787" type="line"/>
      <point x="819" y="1201" type="line"/>
    </contour>
    <contour>
      <point x="366" y="925" type="line" smooth="yes"/>
      <point x="184" y="923"/>
      <point x="101" y="849"/>
      <point x="101" y="714" type="curve" smooth="yes"/>
      <point x="101" y="600"/>
      <point x="154" y="466"/>
      <point x="216" y="411" type="curve" smooth="yes"/>
      <point x="241" y="391"/>
      <point x="265" y="379"/>
      <point x="300" y="384" type="curve" smooth="yes"/>
      <point x="358" y="392"/>
      <point x="543" y="413"/>
      <point x="633" y="413" type="curve" smooth="yes"/>
      <point x="762" y="413"/>
      <point x="802" y="365"/>
      <point x="800" y="279" type="curve" smooth="yes"/>
      <point x="797" y="178"/>
      <point x="725" y="102"/>
      <point x="524" y="102" type="curve" smooth="yes"/>
      <point x="431" y="102"/>
      <point x="342" y="116"/>
      <point x="241" y="165" type="curve"/>
      <point x="327" y="92" type="line"/>
      <point x="232" y="280" type="line"/>
      <point x="92" y="249" type="line"/>
      <point x="88" y="226"/>
      <point x="86" y="200"/>
      <point x="86" y="183" type="curve" smooth="yes"/>
      <point x="86" y="62"/>
      <point x="190" y="16"/>
      <point x="306" y="-19" type="curve"/>
      <point x="310" y="10" type="line"/>
      <point x="377" y="-22"/>
      <point x="454" y="-35"/>
      <point x="533" y="-35" type="curve"/>
      <point x="768" y="-35"/>
      <point x="946" y="73"/>
      <point x="946" y="299" type="curve" smooth="yes"/>
      <point x="946" y="515"/>
      <point x="798" y="555"/>
      <point x="643" y="555" type="curve" smooth="yes"/>
      <point x="523" y="555"/>
      <point x="329" y="534"/>
      <point x="267" y="518" type="curve"/>
      <point x="295" y="505" type="line"/>
      <point x="262" y="546"/>
      <point x="243" y="615"/>
      <point x="243" y="672" type="curve" smooth="yes"/>
      <point x="243" y="747"/>
      <point x="272" y="787"/>
      <point x="400" y="787" type="curve" smooth="yes"/>
      <point x="761" y="787" type="line"/>
      <point x="743" y="925" type="line"/>
    </contour>
    <contour>
      <point x="209" y="97" type="line"/>
      <point x="443" y="-334" type="line"/>
      <point x="571" y="-261" type="line"/>
      <point x="301" y="111" type="line"/>
    </contour>
    <contour>
      <point x="747" y="1168" type="move" name="top"/>
    </contour>
    <contour>
      <point x="791" y="-80" type="move" name="bottom"/>
    </contour>
    <contour>
      <point x="567" y="1168" type="move" name="topcandra"/>
    </contour>
  </outline>
</glyph>
<glyph name="uu-deva" format="1">
  <advance width="1359"/>
  <unicode hex="090A"/>
  <outline>
    <contour>
      <point x="530" y="1262" type="line"/>
      <point x="530" y="1129" type="line"/>
      <point x="1374" y="1129" type="line"/>
      <point x="1374" y="1262" type="line"/>
    </contour>
    <contour>
      <point x="910" y="720"/>
      <point x="813" y="674"/>
      <point x="720" y="533" type="curve"/>
      <point x="743" y="310" type="line"/>
      <point x="847" y="529"/>
      <point x="925" y="585"/>
      <point x="1015" y="585" type="curve" smooth="yes"/>
      <point x="1107" y="585"/>
      <point x="1152" y="528"/>
      <point x="1152" y="426" type="curve" smooth="yes"/>
      <point x="1152" y="333"/>
      <point x="1109" y="234"/>
      <point x="1031" y="134" type="curve"/>
      <point x="1137" y="49" type="line"/>
      <point x="1248" y="166"/>
      <point x="1294" y="302"/>
      <point x="1294" y="418" type="curve" smooth="yes"/>
      <point x="1294" y="617"/>
      <point x="1171" y="720"/>
      <point x="1023" y="720" type="curve" smooth="yes"/>
    </contour>
    <component base="u-deva"/>
    <contour>
      <point x="545" y="1168" type="move" name="top"/>
    </contour>
    <contour>
      <point x="723" y="28" type="move" name="bottom"/>
    </contour>
    <contour>
      <point x="826" y="1168" type="move" name="topcandra"/>
    </contour>
  </outline>
</glyph>
<glyph name="lVocalic-deva" format="1">
  <advance width="1286"/>
  <unicode hex="090C"/>
  <outline>
    <contour>
      <point x="718" y="927"/>
      <point x="581" y="791"/>
      <point x="581" y="578" type="curve" smooth="yes"/>
      <point x="581" y="542"/>
      <point x="585" y="505"/>
      <point x="596" y="468" type="curve"/>
      <point x="736" y="485" type="line"/>
      <point x="732" y="511"/>
      <point x="730" y="536"/>
      <point x="730" y="560" type="curve" smooth="yes"/>
      <point x="730" y="697"/>
      <point x="800" y="782"/>
      <point x="909" y="782" type="curve" smooth="yes"/>
      <point x="1014" y="782"/>
      <point x="1069" y="697"/>
      <point x="1069" y="561" type="curve" smooth="yes"/>
      <point x="1069" y="480"/>
      <point x="1058" y="401"/>
      <point x="1004" y="276" type="curve"/>
      <point x="1053" y="332" type="line"/>
      <point x="858" y="268"/>
      <point x="775" y="163"/>
      <point x="775" y="52" type="curve"/>
      <point x="775" y="-62"/>
      <point x="852" y="-195"/>
      <point x="1048" y="-195" type="curve" smooth="yes"/>
      <point x="1157" y="-195"/>
      <point x="1265" y="-156"/>
      <point x="1341" y="-98" type="curve"/>
      <point x="1286" y="10" type="line"/>
      <point x="1219" y="-38"/>
      <point x="1132" y="-71"/>
      <point x="1054" y="-71" type="curve" smooth="yes"/>
      <point x="939" y="-71"/>
      <point x="919" y="1"/>
      <point x="919" y="52" type="curve" smooth="yes"/>
      <point x="919" y="132"/>
      <point x="995" y="191"/>
      <point x="1144" y="241" type="curve"/>
      <point x="1197" y="367"/>
      <point x="1217" y="472"/>
      <point x="1217" y="553" type="curve" smooth="yes"/>
      <point x="1217" y="790"/>
      <point x="1106" y="927"/>
      <point x="902" y="927" type="curve" smooth="yes"/>
    </contour>
    <contour>
      <point x="-15" y="1262" type="line"/>
      <point x="-15" y="1129" type="line"/>
      <point x="1301" y="1129" type="line"/>
      <point x="1301" y="1262" type="line"/>
    </contour>
    <contour>
      <point x="890" y="1181" type="line"/>
      <point x="890" y="854" type="line"/>
      <point x="1047" y="854" type="line"/>
      <point x="1047" y="1181" type="line"/>
    </contour>
    <contour>
      <point x="178" y="927"/>
      <point x="67" y="811"/>
      <point x="67" y="604" type="curve" smooth="yes"/>
      <point x="67" y="346"/>
      <point x="228" y="131"/>
      <point x="314" y="29" type="curve"/>
      <point x="428" y="123" type="line"/>
      <point x="326" y="254"/>
      <point x="222" y="412"/>
      <point x="222" y="583" type="curve" smooth="yes"/>
      <point x="222" y="732"/>
      <point x="302" y="782"/>
      <point x="387" y="782" type="curve" smooth="yes"/>
      <point x="502" y="782"/>
      <point x="575" y="699"/>
      <point x="639" y="572" type="curve"/>
      <point x="670" y="682" type="line"/>
      <point x="596" y="858"/>
      <point x="494" y="927"/>
      <point x="355" y="927" type="curve" smooth="yes"/>
    </contour>
    <contour>
      <point x="969" y="1168" type="move" name="top"/>
    </contour>
    <contour>
      <point x="708" y="-32" type="move" name="bottom"/>
    </contour>
    <contour>
      <point x="642" y="1167" type="move" name="topcandra"/>
    </contour>
  </outline>
</glyph>
<glyph name="e-deva" format="1">
  <advance width="1034"/>
  <unicode hex="090F"/>
  <outline>
    <contour>
      <point x="135" y="1164" type="line"/>
      <point x="135" y="716" type="line" smooth="yes"/>
      <point x="135" y="536"/>
      <point x="188" y="474"/>
      <point x="308" y="362" type="curve" smooth="yes"/>
      <point x="545" y="142" type="line"/>
      <point x="597" y="93"/>
      <point x="623" y="45"/>
      <point x="623" y="-1" type="curve" smooth="yes"/>
      <point x="622" y="-50"/>
      <point x="597" y="-91"/>
      <point x="553" y="-133" type="curve"/>
      <point x="653" y="-220" type="line"/>
      <point x="749" y="-141"/>
      <point x="776" y="-60"/>
      <point x="777" y="10" type="curve" smooth="yes"/>
      <point x="778" y="91"/>
      <point x="731" y="171"/>
      <point x="642" y="254" type="curve" smooth="yes"/>
      <point x="409" y="469" type="line" smooth="yes"/>
      <point x="293" y="577"/>
      <point x="290" y="636"/>
      <point x="290" y="724" type="curve" smooth="yes"/>
      <point x="290" y="1164" type="line"/>
    </contour>
    <contour>
      <point x="742" y="1199" type="line"/>
      <point x="742" y="748" type="line" smooth="yes"/>
      <point x="742" y="660"/>
      <point x="715" y="598"/>
      <point x="600" y="538" type="curve"/>
      <point x="688" y="419" type="line"/>
      <point x="841" y="498"/>
      <point x="899" y="609"/>
      <point x="899" y="756" type="curve" smooth="yes"/>
      <point x="899" y="1199" type="line"/>
    </contour>
    <contour>
      <point x="-17" y="1262" type="line"/>
      <point x="-17" y="1130" type="line"/>
      <point x="1049" y="1130" type="line"/>
      <point x="1049" y="1262" type="line"/>
    </contour>
    <contour>
      <point x="816" y="1168" type="move" name="top"/>
    </contour>
    <contour>
      <point x="593" y="43" type="move" name="bottom"/>
    </contour>
    <contour>
      <point x="540" y="1168" type="move" name="topcandra"/>
    </contour>
  </outline>
</glyph>
<glyph name="ka-deva" format="1">
  <advance width="1505"/>
  <unicode hex="0915"/>
  <outline>
    <contour>
      <point x="204" y="925"/>
      <point x="70" y="805"/>
      <point x="70" y="567" type="curve" smooth="yes"/>
      <point x="70" y="382"/>
      <point x="171" y="213"/>
      <point x="409" y="213" type="curve" smooth="yes"/>
      <point x="557" y="213"/>
      <point x="701" y="280"/>
      <point x="782" y="392" type="curve"/>
      <point x="746" y="521" type="line"/>
      <point x="673" y="418"/>
      <point x="556" y="348"/>
      <point x="421" y="348" type="curve" smooth="yes"/>
      <point x="296" y="348"/>
      <point x="229" y="409"/>
      <point x="229" y="560" type="curve" smooth="yes"/>
      <point x="229" y="720"/>
      <point x="316" y="780"/>
      <point x="449" y="785" type="curve" smooth="yes"/>
      <point x="544" y="788"/>
      <point x="653" y="770"/>
      <point x="776" y="713" type="curve"/>
      <point x="776" y="810" type="line"/>
      <point x="688" y="881"/>
      <point x="567" y="925"/>
      <point x="435" y="925" type="curve" smooth="yes"/>
    </contour>
    <contour>
      <point x="710" y="1192" type="line"/>
      <point x="710" y="0" type="line"/>
      <point x="866" y="0" type="line"/>
      <point x="866" y="1192" type="line"/>
    </contour>
    <contour>
      <point x="1028" y="871"/>
      <point x="921" y="815"/>
      <point x="820" y="692" type="curve"/>
      <point x="820" y="470" type="line"/>
      <point x="956" y="657"/>
      <point x="1061" y="731"/>
      <point x="1148" y="731" type="curve" smooth="yes"/>
      <point x="1243" y="731"/>
      <point x="1294" y="683"/>
      <point x="1294" y="568" type="curve" smooth="yes"/>
      <point x="1294" y="470"/>
      <point x="1251" y="361"/>
      <point x="1163" y="241" type="curve"/>
      <point x="1278" y="153" type="line"/>
      <point x="1387" y="280"/>
      <point x="1437" y="426"/>
      <point x="1437" y="555" type="curve" smooth="yes"/>
      <point x="1437" y="753"/>
      <point x="1332" y="871"/>
      <point x="1157" y="871" type="curve" smooth="yes"/>
    </contour>
    <contour>
      <point x="-15" y="1262" type="line"/>
      <point x="-15" y="1129" type="line"/>
      <point x="1520" y="1129" type="line"/>
      <point x="1520" y="1262" type="line"/>
    </contour>
    <contour>
      <point x="269" y="58" type="move" name="nukta"/>
    </contour>
    <contour>
      <point x="788" y="1168" type="move" name="top"/>
    </contour>
    <contour>
      <point x="789" y="1168" type="move" name="topcandra"/>
    </contour>
    <contour>
      <point x="789" y="28" type="move" name="bottom"/>
    </contour>
  </outline>
</glyph>
<glyph name="kha-deva" format="1">
  <advance width="1601"/>
  <unicode hex="0916"/>
  <outline>
    <contour>
      <point x="368" y="1182" type="line"/>
      <point x="368" y="820" type="line" smooth="yes"/>
      <point x="368" y="722"/>
      <point x="343" y="675"/>
      <point x="269" y="674" type="curve" smooth="yes"/>
      <point x="237" y="673"/>
      <point x="202" y="682"/>
      <point x="160" y="716" type="curve"/>
      <point x="60" y="647" type="line"/>
      <point x="252" y="119"/>
      <point x="497" y="-57"/>
      <point x="810" y="-57" type="curve" smooth="yes"/>
      <point x="881" y="-57"/>
      <point x="979" y="-50"/>
      <point x="1059" y="-13" type="curve"/>
      <point x="1027" y="116" type="line"/>
      <point x="969" y="96"/>
      <point x="894" y="80"/>
      <point x="804" y="80" type="curve" smooth="yes"/>
      <point x="563" y="80"/>
      <point x="361" y="236"/>
      <point x="231" y="600" type="curve"/>
      <point x="210" y="569" type="line"/>
      <point x="241" y="558"/>
      <point x="278" y="546"/>
      <point x="320" y="546" type="curve" smooth="yes"/>
      <point x="421" y="546"/>
      <point x="525" y="606"/>
      <point x="525" y="820" type="curve" smooth="yes"/>
      <point x="525" y="1182" type="line"/>
    </contour>
    <contour>
      <point x="-15" y="1262" type="line"/>
      <point x="-15" y="1129" type="line"/>
      <point x="1616" y="1129" type="line"/>
      <point x="1616" y="1262" type="line"/>
    </contour>
    <contour>
      <point x="1245" y="1187" type="line"/>
      <point x="1245" y="0" type="line"/>
      <point x="1401" y="0" type="line"/>
      <point x="1401" y="1187" type="line"/>
    </contour>
    <contour>
      <point x="780" y="910"/>
      <point x="644" y="811"/>
      <point x="644" y="584" type="curve" smooth="yes"/>
      <point x="644" y="420"/>
      <point x="729" y="265"/>
      <point x="954" y="265" type="curve" smooth="yes"/>
      <point x="1105" y="265"/>
      <point x="1227" y="327"/>
      <point x="1301" y="426" type="curve"/>
      <point x="1283" y="568" type="line"/>
      <point x="1210" y="464"/>
      <point x="1106" y="399"/>
      <point x="976" y="399" type="curve" smooth="yes"/>
      <point x="859" y="399"/>
      <point x="803" y="453"/>
      <point x="803" y="583" type="curve" smooth="yes"/>
      <point x="803" y="704"/>
      <point x="853" y="774"/>
      <point x="1013" y="776" type="curve" smooth="yes"/>
      <point x="1095" y="777"/>
      <point x="1196" y="761"/>
      <point x="1302" y="731" type="curve"/>
      <point x="1300" y="831" type="line"/>
      <point x="1240" y="872"/>
      <point x="1126" y="910"/>
      <point x="990" y="910" type="curve" smooth="yes"/>
    </contour>
    <contour>
      <point x="159" y="58" type="move" name="nukta"/>
    </contour>
    <contour>
      <point x="1322" y="1168" type="move" name="top"/>
    </contour>
    <contour>
      <point x="891" y="1168" type="move" name="topcandra"/>
    </contour>
    <contour>
      <point x="1324" y="28" type="move" name="bottom"/>
    </contour>
  </outline>
</glyph>
<glyph name="ga-deva" format="1">
  <advance width="1141"/>
  <unicode hex="0917"/>
  <outline>
    <contour>
      <point x="784" y="1215" type="line"/>
      <point x="784" y="1" type="line"/>
      <point x="940" y="1" type="line"/>
      <point x="940" y="1215" type="line"/>
    </contour>
    <contour>
      <point x="273" y="701" type="line"/>
      <point x="94" y="680" type="line"/>
      <point x="94" y="571" type="line"/>
      <point x="270" y="376" type="line"/>
      <point x="377" y="378"/>
      <point x="399" y="433"/>
      <point x="399" y="499" type="curve" smooth="yes"/>
      <point x="399" y="701" type="line"/>
    </contour>
    <contour>
      <point x="243" y="1186" type="line"/>
      <point x="243" y="501" type="line"/>
      <point x="399" y="633" type="line"/>
      <point x="399" y="1186" type="line"/>
    </contour>
    <contour>
      <point x="-15" y="1262" type="line"/>
      <point x="-15" y="1129" type="line"/>
      <point x="1155" y="1129" type="line"/>
      <point x="1155" y="1262" type="line"/>
    </contour>
    <contour>
      <point x="324" y="115" type="move" name="nukta"/>
    </contour>
    <contour>
      <point x="863" y="1168" type="move" name="top"/>
    </contour>
    <contour>
      <point x="610" y="1168" type="move" name="topcandra"/>
    </contour>
    <contour>
      <point x="862" y="28" type="move" name="bottom"/>
    </contour>
  </outline>
</glyph>
<glyph name="ca-deva" format="1">
  <advance width="1235"/>
  <unicode hex="091A"/>
  <outline>
    <contour>
      <point x="33" y="902" type="line"/>
      <point x="33" y="769" type="line"/>
      <point x="690" y="770" type="line"/>
      <point x="690" y="902" type="line"/>
    </contour>
    <contour>
      <point x="443" y="816" type="line"/>
      <point x="279" y="787"/>
      <point x="187" y="677"/>
      <point x="187" y="527" type="curve" smooth="yes"/>
      <point x="187" y="348"/>
      <point x="305" y="209"/>
      <point x="545" y="207" type="curve" smooth="yes"/>
      <point x="722" y="205"/>
      <point x="873" y="282"/>
      <point x="968" y="398" type="curve"/>
      <point x="943" y="552" type="line"/>
      <point x="842" y="416"/>
      <point x="703" y="339"/>
      <point x="556" y="342" type="curve" smooth="yes"/>
      <point x="406" y="346"/>
      <point x="348" y="422"/>
      <point x="348" y="541" type="curve" smooth="yes"/>
      <point x="348" y="680"/>
      <point x="466" y="780"/>
      <point x="633" y="770" type="curve"/>
      <point x="604" y="835" type="line"/>
    </contour>
    <contour>
      <point x="879" y="1187" type="line"/>
      <point x="879" y="0" type="line"/>
      <point x="1035" y="0" type="line"/>
      <point x="1035" y="1187" type="line"/>
    </contour>
    <contour>
      <point x="-15" y="1262" type="line"/>
      <point x="-15" y="1129" type="line"/>
      <point x="1250" y="1129" type="line"/>
      <point x="1250" y="1262" type="line"/>
    </contour>
    <contour>
      <point x="287" y="58" type="move" name="nukta"/>
    </contour>
    <contour>
      <point x="956" y="1168" type="move" name="top"/>
    </contour>
    <contour>
      <point x="646" y="1168" type="move" name="topcandra"/>
    </contour>
    <contour>
      <point x="957" y="28" type="move" name="bottom"/>
    </contour>
  </outline>
</glyph>
<glyph name="cha-deva" format="1">
  <advance width="1309"/>
  <unicode hex="091B"/>
  <outline>
    <contour>
      <point x="774" y="935"/>
      <point x="697" y="839"/>
      <point x="697" y="708" type="curve" smooth="yes"/>
      <point x="698" y="623"/>
      <point x="741" y="530"/>
      <point x="820" y="461" type="curve"/>
      <point x="907" y="531" type="line"/>
      <point x="855" y="593"/>
      <point x="839" y="647"/>
      <point x="839" y="694" type="curve" smooth="yes"/>
      <point x="839" y="766"/>
      <point x="883" y="815"/>
      <point x="958" y="815" type="curve" smooth="yes"/>
      <point x="1039" y="815"/>
      <point x="1094" y="761"/>
      <point x="1095" y="634" type="curve" smooth="yes"/>
      <point x="1096" y="388"/>
      <point x="853" y="215"/>
      <point x="547" y="215" type="curve" smooth="yes"/>
      <point x="337" y="215"/>
      <point x="254" y="296"/>
      <point x="254" y="421" type="curve" smooth="yes"/>
      <point x="254" y="593"/>
      <point x="407" y="617"/>
      <point x="552" y="619" type="curve"/>
      <point x="548" y="752" type="line"/>
      <point x="533" y="752"/>
      <point x="518" y="753"/>
      <point x="505" y="752" type="curve" smooth="yes"/>
      <point x="245" y="747"/>
      <point x="92" y="619"/>
      <point x="92" y="432" type="curve" smooth="yes"/>
      <point x="92" y="231"/>
      <point x="243" y="75"/>
      <point x="550" y="75" type="curve" smooth="yes"/>
      <point x="933" y="75"/>
      <point x="1241" y="310"/>
      <point x="1241" y="637" type="curve" smooth="yes"/>
      <point x="1241" y="847"/>
      <point x="1111" y="938"/>
      <point x="959" y="937" type="curve" smooth="yes"/>
    </contour>
    <contour>
      <point x="239" y="1195"/>
      <point x="88" y="1117"/>
      <point x="90" y="930" type="curve" smooth="yes"/>
      <point x="93" y="820"/>
      <point x="170" y="727"/>
      <point x="354" y="649" type="curve"/>
      <point x="438" y="699" type="line"/>
      <point x="294" y="772"/>
      <point x="252" y="839"/>
      <point x="252" y="935" type="curve" smooth="yes"/>
      <point x="252" y="1039"/>
      <point x="337" y="1120"/>
      <point x="485" y="1133" type="curve"/>
      <point x="504" y="1207" type="line"/>
    </contour>
    <contour>
      <point x="-15" y="1262" type="line"/>
      <point x="-15" y="1129" type="line"/>
      <point x="1324" y="1129" type="line"/>
      <point x="1324" y="1262" type="line"/>
    </contour>
    <contour>
      <point x="883" y="1205" type="line"/>
      <point x="883" y="876" type="line"/>
      <point x="1036" y="876" type="line"/>
      <point x="1036" y="1205" type="line"/>
    </contour>
    <contour>
      <point x="71" y="58" type="move" name="nukta"/>
    </contour>
    <contour>
      <point x="959" y="1168" type="move" name="top"/>
    </contour>
    <contour>
      <point x="666" y="1168" type="move" name="topcandra"/>
    </contour>
    <contour>
      <point x="610" y="98" type="move" name="bottom"/>
    </contour>
  </outline>
</glyph>
<glyph name="ja-deva" format="1">
  <advance width="1420"/>
  <unicode hex="091C"/>
  <outline>
    <contour>
      <point x="58" y="870" type="line"/>
      <point x="83" y="485"/>
      <point x="207" y="205"/>
      <point x="528" y="205" type="curve" smooth="yes"/>
      <point x="732" y="205"/>
      <point x="861" y="324"/>
      <point x="861" y="505" type="curve" smooth="yes"/>
      <point x="861" y="656"/>
      <point x="788" y="741"/>
      <point x="648" y="814" type="curve"/>
      <point x="566" y="901" type="line"/>
      <point x="516" y="793" type="line"/>
      <point x="639" y="733"/>
      <point x="707" y="653"/>
      <point x="707" y="533" type="curve" smooth="yes"/>
      <point x="707" y="423"/>
      <point x="644" y="353"/>
      <point x="521" y="352" type="curve" smooth="yes"/>
      <point x="265" y="349"/>
      <point x="210" y="671"/>
      <point x="185" y="887" type="curve"/>
    </contour>
    <contour>
      <point x="565" y="901" type="line"/>
      <point x="627" y="763" type="line"/>
      <point x="1160" y="763" type="line"/>
      <point x="1160" y="901" type="line"/>
    </contour>
    <contour>
      <point x="1063" y="1194" type="line"/>
      <point x="1063" y="0" type="line"/>
      <point x="1219" y="0" type="line"/>
      <point x="1219" y="1194" type="line"/>
    </contour>
    <contour>
      <point x="-15" y="1262" type="line"/>
      <point x="-15" y="1129" type="line"/>
      <point x="1435" y="1129" type="line"/>
      <point x="1435" y="1262" type="line"/>
    </contour>
    <contour>
      <point x="414" y="73" type="move" name="nukta"/>
    </contour>
    <contour>
      <point x="1145" y="1168" type="move" name="top"/>
    </contour>
    <contour>
      <point x="787" y="1168" type="move" name="topcandra"/>
    </contour>
    <contour>
      <point x="1145" y="28" type="move" name="bottom"/>
    </contour>
  </outline>
</glyph>
<glyph name="jha-deva" format="1">
  <advance width="1512"/>
  <unicode hex="091D"/>
  <outline>
    <contour>
      <point x="1084" y="517"/>
      <point x="926" y="480"/>
      <point x="807" y="492" type="curve"/>
      <point x="861" y="377" type="line"/>
      <point x="967" y="362"/>
      <point x="1156" y="402"/>
      <point x="1220" y="462" type="curve"/>
      <point x="1200" y="606" type="line"/>
    </contour>
    <component base="i-deva"/>
    <component base="aaMatra-deva" xOffset="955"/>
    <contour>
      <point x="164" y="-196" type="move" name="nukta"/>
    </contour>
    <contour>
      <point x="1234" y="1168" type="move" name="top"/>
    </contour>
    <contour>
      <point x="988" y="1178" type="move" name="topcandra"/>
    </contour>
    <contour>
      <point x="1234" y="28" type="move" name="bottom"/>
    </contour>
  </outline>
</glyph>
<glyph name="dda-deva" format="1">
  <advance width="1011"/>
  <unicode hex="0921"/>
  <outline>
    <contour>
      <point x="363" y="925" type="line" smooth="yes"/>
      <point x="182" y="923"/>
      <point x="99" y="849"/>
      <point x="99" y="714" type="curve" smooth="yes"/>
      <point x="99" y="600"/>
      <point x="151" y="466"/>
      <point x="213" y="411" type="curve" smooth="yes"/>
      <point x="238" y="391"/>
      <point x="263" y="379"/>
      <point x="298" y="384" type="curve" smooth="yes"/>
      <point x="356" y="392"/>
      <point x="540" y="413"/>
      <point x="631" y="413" type="curve" smooth="yes"/>
      <point x="759" y="413"/>
      <point x="800" y="365"/>
      <point x="797" y="279" type="curve" smooth="yes"/>
      <point x="794" y="178"/>
      <point x="722" y="101"/>
      <point x="518" y="101" type="curve" smooth="yes"/>
      <point x="332" y="101"/>
      <point x="210" y="180"/>
      <point x="100" y="269" type="curve"/>
      <point x="33" y="176" type="line"/>
      <point x="154" y="48"/>
      <point x="327" y="-37"/>
      <point x="530" y="-37" type="curve" smooth="yes"/>
      <point x="765" y="-37"/>
      <point x="943" y="73"/>
      <point x="943" y="299" type="curve" smooth="yes"/>
      <point x="943" y="515"/>
      <point x="795" y="555"/>
      <point x="641" y="555" type="curve" smooth="yes"/>
      <point x="520" y="555"/>
      <point x="326" y="534"/>
      <point x="264" y="518" type="curve"/>
      <point x="292" y="505" type="line"/>
      <point x="260" y="546"/>
      <point x="241" y="615"/>
      <point x="241" y="672" type="curve" smooth="yes"/>
      <point x="241" y="747"/>
      <point x="270" y="787"/>
      <point x="398" y="787" type="curve" smooth="yes"/>
      <point x="758" y="787" type="line"/>
      <point x="741" y="925" type="line"/>
    </contour>
    <contour>
      <point x="-15" y="1262" type="line"/>
      <point x="-15" y="1129" type="line"/>
      <point x="1026" y="1129" type="line"/>
      <point x="1026" y="1262" type="line"/>
    </contour>
    <contour>
      <point x="662" y="1184" type="line"/>
      <point x="662" y="787" type="line"/>
      <point x="817" y="787" type="line"/>
      <point x="817" y="1184" type="line"/>
    </contour>
    <contour>
      <point x="522" y="-185" type="move" name="nukta"/>
    </contour>
    <contour>
      <point x="739" y="1168" type="move" name="top"/>
    </contour>
    <contour>
      <point x="541" y="1168" type="move" name="topcandra"/>
    </contour>
    <contour>
      <point x="529" y="-72" type="move" name="bottom"/>
    </contour>
  </outline>
</glyph>
<glyph name="ta-deva" format="1">
  <advance width="1108"/>
  <unicode hex="0924"/>
  <outline>
    <contour>
      <point x="408" y="839" type="line" smooth="yes"/>
      <point x="176" y="839"/>
      <point x="75" y="726"/>
      <point x="75" y="569" type="curve" smooth="yes"/>
      <point x="75" y="366"/>
      <point x="212" y="130"/>
      <point x="338" y="-33" type="curve"/>
      <point x="462" y="51" type="line"/>
      <point x="309" y="269"/>
      <point x="235" y="422"/>
      <point x="235" y="546" type="curve" smooth="yes"/>
      <point x="235" y="672"/>
      <point x="303" y="695"/>
      <point x="441" y="695" type="curve" smooth="yes"/>
      <point x="847" y="695" type="line"/>
      <point x="809" y="839" type="line"/>
    </contour>
    <contour>
      <point x="751" y="1194" type="line"/>
      <point x="751" y="0" type="line"/>
      <point x="907" y="0" type="line"/>
      <point x="907" y="1194" type="line"/>
    </contour>
    <contour>
      <point x="-15" y="1262" type="line"/>
      <point x="-15" y="1129" type="line"/>
      <point x="1123" y="1129" type="line"/>
      <point x="1123" y="1262" type="line"/>
    </contour>
    <contour>
      <point x="64" y="58" type="move" name="nukta"/>
    </contour>
    <contour>
      <point x="834" y="1168" type="move" name="top"/>
    </contour>
    <contour>
      <point x="571" y="1168" type="move" name="topcandra"/>
    </contour>
    <contour>
      <point x="830" y="28" type="move" name="bottom"/>
    </contour>
  </outline>
</glyph>
<glyph name="ba-deva" format="1">
  <advance width="1110"/>
  <unicode hex="092C"/>
  <outline>
    <contour>
      <point x="595" y="197"/>
      <point x="733" y="251"/>
      <point x="826" y="370" type="curve"/>
      <point x="798" y="488" type="line"/>
      <point x="696" y="379"/>
      <point x="602" y="323"/>
      <point x="444" y="323" type="curve" smooth="yes"/>
      <point x="294" y="323"/>
      <point x="233" y="397"/>
      <point x="233" y="571" type="curve" smooth="yes"/>
      <point x="233" y="748"/>
      <point x="290" y="807"/>
      <point x="459" y="813" type="curve" smooth="yes"/>
      <point x="571" y="816"/>
      <point x="682" y="798"/>
      <point x="817" y="735" type="curve"/>
      <point x="812" y="851" type="line"/>
      <point x="693" y="914"/>
      <point x="586" y="939"/>
      <point x="466" y="939" type="curve" smooth="yes"/>
      <point x="216" y="939"/>
      <point x="79" y="818"/>
      <point x="79" y="573" type="curve" smooth="yes"/>
      <point x="79" y="310"/>
      <point x="233" y="197"/>
      <point x="441" y="197" type="curve" smooth="yes"/>
    </contour>
    <contour>
      <point x="773" y="388" type="line"/>
      <point x="305" y="862" type="line"/>
      <point x="227" y="779" type="line"/>
      <point x="695" y="306" type="line"/>
    </contour>
    <contour>
      <point x="910" y="0" type="line"/>
      <point x="910" y="1187" type="line"/>
      <point x="754" y="1187" type="line"/>
      <point x="754" y="0" type="line"/>
    </contour>
    <contour>
      <point x="1125" y="1129" type="line"/>
      <point x="1125" y="1262" type="line"/>
      <point x="-15" y="1262" type="line"/>
      <point x="-15" y="1129" type="line"/>
    </contour>
    <contour>
      <point x="202" y="58" type="move" name="nukta"/>
    </contour>
    <contour>
      <point x="832" y="1168" type="move" name="top"/>
    </contour>
    <contour>
      <point x="572" y="1168" type="move" name="topcandra"/>
    </contour>
    <contour>
      <point x="832" y="28" type="move" name="bottom"/>
    </contour>
  </outline>
</glyph>
<glyph name="ya-deva" format="1">
  <advance width="1148"/>
  <unicode hex="092F"/>
  <outline>
    <contour>
      <point x="184" y="1146" type="line"/>
      <point x="259" y="1065"/>
      <point x="304" y="966"/>
      <point x="304" y="903" type="curve" smooth="yes"/>
      <point x="304" y="811"/>
      <point x="228" y="741"/>
      <point x="47" y="675" type="curve"/>
      <point x="99" y="402"/>
      <point x="264" y="258"/>
      <point x="488" y="258" type="curve" smooth="yes"/>
      <point x="610" y="258"/>
      <point x="751" y="311"/>
      <point x="834" y="425" type="curve"/>
      <point x="839" y="624" type="line"/>
      <point x="749" y="467"/>
      <point x="620" y="400"/>
      <point x="481" y="400" type="curve" smooth="yes"/>
      <point x="335" y="400"/>
      <point x="245" y="469"/>
      <point x="185" y="651" type="curve"/>
      <point x="158" y="577" type="line"/>
      <point x="356" y="647"/>
      <point x="456" y="753"/>
      <point x="456" y="887" type="curve" smooth="yes"/>
      <point x="456" y="966"/>
      <point x="419" y="1050"/>
      <point x="340" y="1149" type="curve"/>
    </contour>
    <contour>
      <point x="792" y="1210" type="line"/>
      <point x="792" y="0" type="line"/>
      <point x="948" y="0" type="line"/>
      <point x="948" y="1210" type="line"/>
    </contour>
    <contour>
      <point x="-15" y="1262" type="line"/>
      <point x="-15" y="1129" type="line"/>
      <point x="1163" y="1129" type="line"/>
      <point x="1163" y="1262" type="line"/>
    </contour>
    <contour>
      <point x="267" y="72" type="move" name="nukta"/>
    </contour>
    <contour>
      <point x="870" y="1168" type="move" name="top"/>
    </contour>
    <contour>
      <point x="586" y="1168" type="move" name="topcandra"/>
    </contour>
    <contour>
      <point x="870" y="28" type="move" name="bottom"/>
    </contour>
  </outline>
</glyph>
<glyph name="ra-deva" format="1">
  <advance width="686"/>
  <unicode hex="0930"/>
  <outline>
    <contour>
      <point x="351" y="1186" type="line"/>
      <point x="351" y="813" type="line" smooth="yes"/>
      <point x="351" y="723"/>
      <point x="326" y="677"/>
      <point x="252" y="677" type="curve" smooth="yes"/>
      <point x="218" y="677"/>
      <point x="177" y="688"/>
      <point x="139" y="719" type="curve"/>
      <point x="40" y="638" type="line"/>
      <point x="478" y="-31" type="line"/>
      <point x="603" y="60" type="line"/>
      <point x="220" y="600" type="line"/>
      <point x="193" y="592" type="line"/>
      <point x="213" y="571"/>
      <point x="261" y="556"/>
      <point x="304" y="556" type="curve" smooth="yes"/>
      <point x="424" y="556"/>
      <point x="507" y="636"/>
      <point x="507" y="815" type="curve" smooth="yes"/>
      <point x="507" y="1187" type="line"/>
    </contour>
    <contour>
      <point x="-15" y="1262" type="line"/>
      <point x="-15" y="1129" type="line"/>
      <point x="701" y="1129" type="line"/>
      <point x="701" y="1262" type="line"/>
    </contour>
    <contour>
      <point x="127" y="140" type="move" name="nukta"/>
    </contour>
    <contour>
      <point x="427" y="1168" type="move" name="top"/>
    </contour>
    <contour>
      <point x="426" y="1168" type="move" name="topcandra"/>
    </contour>
    <contour>
      <point x="490" y="30" type="move" name="bottom"/>
    </contour>
  </outline>
</glyph>
<glyph name="ssa-deva" format="1">
  <advance width="1166"/>
  <unicode hex="0937"/>
  <outline>
    <contour>
      <point x="160" y="1152" type="line"/>
      <point x="160" y="662" type="line" smooth="yes"/>
      <point x="160" y="414"/>
      <point x="276" y="286"/>
      <point x="505" y="286" type="curve" smooth="yes"/>
      <point x="637" y="286"/>
      <point x="782" y="352"/>
      <point x="868" y="471" type="curve"/>
      <point x="862" y="630" type="line"/>
      <point x="772" y="499"/>
      <point x="634" y="428"/>
      <point x="513" y="427" type="curve" smooth="yes"/>
      <point x="359" y="426"/>
      <point x="313" y="503"/>
      <point x="313" y="657" type="curve" smooth="yes"/>
      <point x="313" y="1152" type="line"/>
    </contour>
    <contour>
      <point x="209" y="1106" type="line"/>
      <point x="836" y="469" type="line"/>
      <point x="924" y="553" type="line"/>
      <point x="297" y="1190" type="line"/>
    </contour>
    <contour>
      <point x="808" y="1194" type="line"/>
      <point x="808" y="0" type="line"/>
      <point x="965" y="0" type="line"/>
      <point x="965" y="1194" type="line"/>
    </contour>
    <contour>
      <point x="-15" y="1262" type="line"/>
      <point x="-15" y="1129" type="line"/>
      <point x="1181" y="1129" type="line"/>
      <point x="1181" y="1262" type="line"/>
    </contour>
    <contour>
      <point x="313" y="58" type="move" name="nukta"/>
    </contour>
    <contour>
      <point x="887" y="1168" type="move" name="top"/>
    </contour>
    <contour>
      <point x="585" y="1168" type="move" name="topcandra"/>
    </contour>
    <contour>
      <point x="887" y="28" type="move" name="bottom"/>
    </contour>
  </outline>
</glyph>
<glyph name="sa-deva" format="1">
  <advance width="1314"/>
  <unicode hex="0938"/>
  <outline>
    <contour>
      <point x="357" y="1185" type="line"/>
      <point x="357" y="797" type="line" smooth="yes"/>
      <point x="357" y="707"/>
      <point x="332" y="661"/>
      <point x="257" y="661" type="curve" smooth="yes"/>
      <point x="214" y="661"/>
      <point x="179" y="681"/>
      <point x="142" y="710" type="curve"/>
      <point x="43" y="629" type="line"/>
      <point x="483" y="-28" type="line"/>
      <point x="607" y="64" type="line"/>
      <point x="216" y="599" type="line"/>
      <point x="201" y="583" type="line"/>
      <point x="221" y="562"/>
      <point x="257" y="541"/>
      <point x="305" y="541" type="curve" smooth="yes"/>
      <point x="430" y="541"/>
      <point x="513" y="620"/>
      <point x="513" y="799" type="curve" smooth="yes"/>
      <point x="513" y="1186" type="line"/>
    </contour>
    <contour>
      <point x="935" y="674"/>
      <point x="838" y="658"/>
      <point x="741" y="658" type="curve" smooth="yes"/>
      <point x="631" y="658"/>
      <point x="521" y="674"/>
      <point x="445" y="705" type="curve"/>
      <point x="395" y="589" type="line"/>
      <point x="501" y="541"/>
      <point x="625" y="518"/>
      <point x="752" y="518" type="curve" smooth="yes"/>
      <point x="846" y="518"/>
      <point x="937" y="530"/>
      <point x="1012" y="556" type="curve"/>
      <point x="1012" y="705" type="line"/>
    </contour>
    <contour>
      <point x="957" y="1161" type="line"/>
      <point x="957" y="0" type="line"/>
      <point x="1113" y="0" type="line"/>
      <point x="1113" y="1161" type="line"/>
    </contour>
    <contour>
      <point x="-15" y="1262" type="line"/>
      <point x="-15" y="1129" type="line"/>
      <point x="1329" y="1129" type="line"/>
      <point x="1329" y="1262" type="line"/>
    </contour>
    <contour>
      <point x="172" y="58" type="move" name="nukta"/>
    </contour>
    <contour>
      <point x="1036" y="1168" type="move" name="top"/>
    </contour>
    <contour>
      <point x="745" y="1168" type="move" name="topcandra"/>
    </contour>
    <contour>
      <point x="1036" y="28" type="move" name="bottom"/>
    </contour>
  </outline>
</glyph>
<glyph name="ooeMatra-deva" format="1">
  <advance width="557"/>
  <unicode hex="093B"/>
  <outline>
    <contour>
      <point x="200" y="1106" type="line"/>
      <point x="355" y="1106" type="line"/>
      <point x="355" y="1507" type="line"/>
      <point x="200" y="1507" type="line"/>
    </contour>
    <component base="aaMatra-deva"/>
  </outline>
</glyph>
<glyph name="avagraha-deva" format="1">
  <advance width="801"/>
  <unicode hex="093D"/>
  <outline>
    <contour>
      <point x="382" y="1262" type="line" smooth="yes"/>
      <point x="186" y="1262"/>
      <point x="67" y="1171"/>
      <point x="67" y="980" type="curve" smooth="yes"/>
      <point x="67" y="810"/>
      <point x="179" y="722"/>
      <point x="350" y="602" type="curve" smooth="yes"/>
      <point x="522" y="482"/>
      <point x="649" y="407"/>
      <point x="648" y="266" type="curve" smooth="yes"/>
      <point x="648" y="142"/>
      <point x="581" y="67"/>
      <point x="417" y="67" type="curve" smooth="yes"/>
      <point x="280" y="67"/>
      <point x="182" y="114"/>
      <point x="58" y="184" type="curve"/>
      <point x="-4" y="79" type="line"/>
      <point x="109" y="-15"/>
      <point x="266" y="-68"/>
      <point x="417" y="-68" type="curve" smooth="yes"/>
      <point x="683" y="-68"/>
      <point x="797" y="98"/>
      <point x="797" y="276" type="curve" smooth="yes"/>
      <point x="797" y="450"/>
      <point x="682" y="550"/>
      <point x="496" y="680" type="curve" smooth="yes"/>
      <point x="284" y="827"/>
      <point x="221" y="874"/>
      <point x="218" y="975" type="curve" smooth="yes"/>
      <point x="216" y="1081"/>
      <point x="287" y="1129"/>
      <point x="400" y="1129" type="curve" smooth="yes"/>
      <point x="775" y="1129" type="line"/>
      <point x="775" y="1262" type="line"/>
    </contour>
  </outline>
</glyph>
<glyph name="iiMatra-deva" format="1">
  <advance width="566"/>
  <unicode hex="0940"/>
  <outline>
    <contour>
      <point x="347" y="1218" type="line"/>
      <point x="229" y="1574"/>
      <point x="27" y="1781"/>
      <point x="-204" y="1781" type="curve" smooth="yes"/>
      <point x="-348" y="1781"/>
      <point x="-410" y="1686"/>
      <point x="-410" y="1589" type="curve" smooth="yes"/>
      <point x="-410" y="1492"/>
      <point x="-360" y="1402"/>
      <point x="-274" y="1343" type="curve"/>
      <point x="-202" y="1417" type="line"/>
      <point x="-248" y="1459"/>
      <point x="-280" y="1502"/>
      <point x="-280" y="1557" type="curve" smooth="yes"/>
      <point x="-280" y="1612"/>
      <point x="-247" y="1647"/>
      <point x="-187" y="1647" type="curve" smooth="yes"/>
      <point x="-17" y="1647"/>
      <point x="168" y="1402"/>
      <point x="253" y="1145" type="curve"/>
    </contour>
    <contour>
      <point x="361" y="1" type="line"/>
      <point x="361" y="1210" type="line"/>
      <point x="205" y="1210" type="line"/>
      <point x="205" y="1" type="line"/>
    </contour>
    <contour>
      <point x="581" y="1129" type="line"/>
      <point x="581" y="1262" type="line"/>
      <point x="-15" y="1262" type="line"/>
      <point x="-15" y="1129" type="line"/>
    </contour>
    <contour>
      <point x="-226" y="1168" type="move" name="iimatra"/>
    </contour>
    <contour>
      <point x="396" y="1165" type="move" name="top"/>
    </contour>
    <contour>
      <point x="559" y="1218" type="move" name="topcandra"/>
    </contour>
  </outline>
</glyph>
<glyph name="rVocalicMatra-deva" format="1">
  <advance width="540"/>
  <unicode hex="0943"/>
  <outline>
    <contour>
      <point x="103" y="65"/>
      <point x="-14" y="-39"/>
      <point x="-14" y="-184" type="curve"/>
      <point x="-14" y="-331"/>
      <point x="116" y="-414"/>
      <point x="254" y="-414" type="curve" smooth="yes"/>
      <point x="363" y="-414"/>
      <point x="463" y="-373"/>
      <point x="538" y="-317" type="curve"/>
      <point x="482" y="-211" type="line"/>
      <point x="420" y="-253"/>
      <point x="340" y="-289"/>
      <point x="265" y="-290" type="curve" smooth="yes"/>
      <point x="182" y="-290"/>
      <point x="130" y="-250"/>
      <point x="130" y="-180" type="curve" smooth="yes"/>
      <point x="130" y="-96"/>
      <point x="192" y="-44"/>
      <point x="342" y="0" type="curve"/>
      <point x="288" y="106" type="line"/>
    </contour>
    <contour>
      <point x="279" y="28" type="move" name="_bottom"/>
    </contour>
  </outline>
</glyph>
<glyph name="eMatra-deva" format="1">
  <advance width="540"/>
  <unicode hex="0947"/>
  <outline>
    <contour>
      <point x="332" y="1240" type="line"/>
      <point x="148" y="1713"/>
      <point x="72" y="1784"/>
      <point x="-215" y="1784" type="curve" smooth="yes"/>
      <point x="-264" y="1784"/>
      <point x="-306" y="1780"/>
      <point x="-368" y="1767" type="curve"/>
      <point x="-345" y="1635" type="line"/>
      <point x="-305" y="1641"/>
      <point x="-262" y="1646"/>
      <point x="-201" y="1646" type="curve" smooth="yes"/>
      <point x="1" y="1646"/>
      <point x="59" y="1548"/>
      <point x="198" y="1236" type="curve" smooth="yes"/>
      <point x="216" y="1194" type="line"/>
    </contour>
    <contour>
      <point x="502" y="1210" type="move" name="topcandra"/>
    </contour>
    <contour>
      <point x="270" y="1168" type="move" name="_top"/>
    </contour>
  </outline>
</glyph>
<glyph name="oShortMatra-deva" format="1">
  <advance width="557"/>
  <unicode hex="094A"/>
  <outline>
    <component base="aaMatra-deva"/>
    <component base="eShortMatra-deva" xOffset="21" yOffset="28"/>
    <contour>
      <point x="337" y="1320" type="move" name="top"/>
    </contour>
  </outline>
</glyph>
<glyph name="awMatra-deva" format="1">
  <advance width="557"/>
  <unicode hex="094F"/>
  <outline>
    <contour>
      <point x="-378" y="1793"/>
      <point x="-389" y="1762"/>
      <point x="-389" y="1733" type="curve" smooth="yes"/>
      <point x="-389" y="1659"/>
      <point x="-325" y="1589"/>
      <point x="-202" y="1568" type="curve" smooth="yes"/>
      <point x="47" y="1527" type="line" smooth="yes"/>
      <point x="197" y="1500"/>
      <point x="274" y="1465"/>
      <point x="274" y="1354" type="curve" smooth="yes"/>
      <point x="274" y="1323"/>
      <point x="271" y="1284"/>
      <point x="249" y="1229" type="curve"/>
      <point x="308" y="1195" type="line"/>
      <point x="360" y="1277"/>
      <point x="380" y="1348"/>
      <point x="380" y="1409" type="curve" smooth="yes"/>
      <point x="380" y="1540"/>
      <point x="283" y="1610"/>
      <point x="103" y="1641" type="curve" smooth="yes"/>
      <point x="-118" y="1677" type="line" smooth="yes"/>
      <point x="-247" y="1699"/>
      <point x="-284" y="1730"/>
      <point x="-287" y="1779" type="curve" smooth="yes"/>
      <point x="-288" y="1788"/>
      <point x="-287" y="1798"/>
      <point x="-286" y="1808" type="curve"/>
      <point x="-354" y="1822" type="line"/>
    </contour>
    <contour>
      <point x="-519" y="1647"/>
      <point x="-527" y="1612"/>
      <point x="-527" y="1579" type="curve" smooth="yes"/>
      <point x="-527" y="1478"/>
      <point x="-453" y="1387"/>
      <point x="-286" y="1366" type="curve" smooth="yes"/>
      <point x="19" y="1328" type="line" smooth="yes"/>
      <point x="170" y="1307"/>
      <point x="204" y="1286"/>
      <point x="204" y="1194" type="curve" smooth="yes"/>
      <point x="204" y="1172"/>
      <point x="202" y="1146"/>
      <point x="200" y="1115" type="curve"/>
      <point x="256" y="1098" type="line"/>
      <point x="270" y="1146"/>
      <point x="280" y="1193"/>
      <point x="280" y="1233" type="curve" smooth="yes"/>
      <point x="280" y="1367"/>
      <point x="210" y="1416"/>
      <point x="21" y="1445" type="curve" smooth="yes"/>
      <point x="-242" y="1485" type="line" smooth="yes"/>
      <point x="-392" y="1508"/>
      <point x="-427" y="1563"/>
      <point x="-428" y="1631" type="curve" smooth="yes"/>
      <point x="-429" y="1642"/>
      <point x="-428" y="1654"/>
      <point x="-426" y="1666" type="curve"/>
      <point x="-503" y="1680" type="line"/>
    </contour>
    <component base="aaMatra-deva"/>
  </outline>
</glyph>
<glyph name="udatta-deva" format="1">
  <advance width="540"/>
  <unicode hex="0951"/>
  <outline>
    <contour>
      <point x="214" y="1843" type="line"/>
      <point x="214" y="1411" type="line"/>
      <point x="326" y="1411" type="line"/>
      <point x="326" y="1843" type="line"/>
    </contour>
    <contour>
      <point x="270" y="1168" type="move" name="_top"/>
    </contour>
  </outline>
</glyph>
<glyph name="rrVocalic-deva" format="1">
  <advance width="1508"/>
  <unicode hex="0960"/>
  <outline>
    <contour>
      <point x="744" y="513" type="line"/>
      <point x="750" y="599" type="line"/>
      <point x="537" y="884"/>
      <point x="436" y="928"/>
      <point x="313" y="932" type="curve" smooth="yes"/>
      <point x="214" y="935"/>
      <point x="139" y="899"/>
      <point x="75" y="859" type="curve"/>
      <point x="135" y="729" type="line"/>
      <point x="206" y="765"/>
      <point x="272" y="790"/>
      <point x="332" y="788" type="curve" smooth="yes"/>
      <point x="433" y="784"/>
      <point x="514" y="706"/>
      <point x="655" y="545" type="curve"/>
      <point x="661" y="606" type="line"/>
      <point x="154" y="248" type="line"/>
      <point x="245" y="132" type="line"/>
    </contour>
    <contour>
      <point x="1437" y="-308"/>
      <point x="1544" y="-270"/>
      <point x="1620" y="-213" type="curve"/>
      <point x="1565" y="-105" type="line"/>
      <point x="1498" y="-153"/>
      <point x="1410" y="-184"/>
      <point x="1338" y="-185" type="curve" smooth="yes"/>
      <point x="1253" y="-186"/>
      <point x="1199" y="-147"/>
      <point x="1199" y="-75" type="curve" smooth="yes"/>
      <point x="1199" y="3"/>
      <point x="1261" y="47"/>
      <point x="1422" y="65" type="curve"/>
      <point x="1407" y="179" type="line"/>
      <point x="1130" y="162"/>
      <point x="1054" y="37"/>
      <point x="1054" y="-73" type="curve" smooth="yes"/>
      <point x="1054" y="-210"/>
      <point x="1157" y="-312"/>
      <point x="1332" y="-309" type="curve" smooth="yes"/>
    </contour>
    <contour>
      <point x="833" y="-1" type="line"/>
      <point x="833" y="1156" type="line"/>
      <point x="677" y="1156" type="line"/>
      <point x="677" y="-1" type="line"/>
    </contour>
    <contour>
      <point x="1332" y="145" type="line"/>
      <point x="1175" y="168"/>
      <point x="1129" y="229"/>
      <point x="1129" y="298" type="curve" smooth="yes"/>
      <point x="1129" y="382"/>
      <point x="1220" y="422"/>
      <point x="1350" y="430" type="curve"/>
      <point x="1371" y="523" type="line"/>
      <point x="1184" y="823" type="line"/>
      <point x="1078" y="770" type="line"/>
      <point x="1245" y="495" type="line"/>
      <point x="1254" y="539" type="line"/>
      <point x="1128" y="524"/>
      <point x="976" y="458"/>
      <point x="977" y="317" type="curve" smooth="yes"/>
      <point x="978" y="232"/>
      <point x="1008" y="116"/>
      <point x="1264" y="83" type="curve"/>
    </contour>
    <contour>
      <point x="960" y="547"/>
      <point x="1081" y="612"/>
      <point x="1190" y="691" type="curve" smooth="yes"/>
      <point x="1262" y="750"/>
      <point x="1272" y="799"/>
      <point x="1272" y="833" type="curve" smooth="yes"/>
      <point x="1272" y="908"/>
      <point x="1195" y="952"/>
      <point x="1079" y="974" type="curve"/>
      <point x="988" y="901" type="line"/>
      <point x="1084" y="744" type="line"/>
      <point x="1097" y="803" type="line"/>
      <point x="1002" y="712"/>
      <point x="878" y="664"/>
      <point x="741" y="684" type="curve"/>
      <point x="798" y="549" type="line"/>
    </contour>
    <contour>
      <point x="1523" y="1129" type="line"/>
      <point x="1523" y="1262" type="line"/>
      <point x="-15" y="1262" type="line"/>
      <point x="-15" y="1129" type="line"/>
    </contour>
    <contour>
      <point x="755" y="1168" type="move" name="top"/>
    </contour>
    <contour>
      <point x="755" y="28" type="move" name="bottom"/>
    </contour>
    <contour>
      <point x="753" y="1168" type="move" name="topcandra"/>
    </contour>
  </outline>
</glyph>
<glyph name="lVocalicMatra-deva" format="1">
  <advance width="540"/>
  <unicode hex="0962"/>
  <outline>
    <contour>
      <point x="696" y="-669"/>
      <point x="628" y="-701"/>
      <point x="563" y="-702" type="curve" smooth="yes"/>
      <point x="497" y="-702"/>
      <point x="452" y="-667"/>
      <point x="452" y="-607" type="curve" smooth="yes"/>
      <point x="452" y="-534"/>
      <point x="519" y="-488"/>
      <point x="631" y="-453" type="curve"/>
      <point x="550" y="-374" type="line"/>
      <point x="394" y="-419"/>
      <point x="321" y="-510"/>
      <point x="321" y="-607" type="curve" smooth="yes"/>
      <point x="321" y="-739"/>
      <point x="434" y="-814"/>
      <point x="553" y="-814" type="curve" smooth="yes"/>
      <point x="648" y="-814"/>
      <point x="734" y="-778"/>
      <point x="799" y="-729" type="curve"/>
      <point x="752" y="-632" type="line"/>
    </contour>
    <contour>
      <point x="42" y="-399" type="line"/>
      <point x="-29" y="-310"/>
      <point x="-77" y="-235"/>
      <point x="-77" y="-137" type="curve" smooth="yes"/>
      <point x="-77" y="-27"/>
      <point x="-15" y="14"/>
      <point x="59" y="14" type="curve" smooth="yes"/>
      <point x="150" y="14"/>
      <point x="213" y="-58"/>
      <point x="272" y="-167" type="curve"/>
      <point x="296" y="-68" type="line"/>
      <point x="233" y="81"/>
      <point x="147" y="141"/>
      <point x="32" y="141" type="curve" smooth="yes"/>
      <point x="-121" y="141"/>
      <point x="-214" y="43"/>
      <point x="-214" y="-127" type="curve" smooth="yes"/>
      <point x="-214" y="-264"/>
      <point x="-147" y="-374"/>
      <point x="-67" y="-473" type="curve"/>
      <point x="-63" y="-473" type="line"/>
    </contour>
    <contour>
      <point x="631" y="-453" type="line"/>
      <point x="707" y="-372"/>
      <point x="762" y="-259"/>
      <point x="762" y="-143" type="curve" smooth="yes"/>
      <point x="762" y="26"/>
      <point x="667" y="141"/>
      <point x="493" y="141" type="curve" smooth="yes"/>
      <point x="336" y="141"/>
      <point x="220" y="26"/>
      <point x="220" y="-151" type="curve" smooth="yes"/>
      <point x="220" y="-183"/>
      <point x="223" y="-214"/>
      <point x="232" y="-246" type="curve"/>
      <point x="356" y="-232" type="line"/>
      <point x="352" y="-208"/>
      <point x="350" y="-187"/>
      <point x="350" y="-166" type="curve" smooth="yes"/>
      <point x="350" y="-55"/>
      <point x="407" y="13"/>
      <point x="498" y="13" type="curve" smooth="yes"/>
      <point x="585" y="13"/>
      <point x="629" y="-54"/>
      <point x="629" y="-150" type="curve" smooth="yes"/>
      <point x="629" y="-230"/>
      <point x="589" y="-319"/>
      <point x="529" y="-386" type="curve"/>
      <point x="530" y="-391" type="line"/>
    </contour>
    <contour>
      <point x="279" y="28" type="move" name="_bottom"/>
    </contour>
  </outline>
</glyph>
<glyph name="llVocalicMatra-deva" format="1">
  <advance width="540"/>
  <unicode hex="0963"/>
  <outline>
    <contour>
      <point x="607" y="-341"/>
      <point x="600" y="-340"/>
      <point x="589" y="-340" type="curve" smooth="yes"/>
      <point x="454" y="-340"/>
      <point x="296" y="-405"/>
      <point x="296" y="-540" type="curve" smooth="yes"/>
      <point x="296" y="-603"/>
      <point x="312" y="-713"/>
      <point x="543" y="-742" type="curve"/>
      <point x="606" y="-687" type="line"/>
      <point x="472" y="-667"/>
      <point x="432" y="-615"/>
      <point x="432" y="-558" type="curve" smooth="yes"/>
      <point x="432" y="-488"/>
      <point x="507" y="-455"/>
      <point x="632" y="-453" type="curve"/>
      <point x="632" y="-342" type="line"/>
    </contour>
    <contour>
      <point x="428" y="-671"/>
      <point x="361" y="-779"/>
      <point x="361" y="-874" type="curve" smooth="yes"/>
      <point x="361" y="-991"/>
      <point x="448" y="-1078"/>
      <point x="591" y="-1078" type="curve" smooth="yes"/>
      <point x="687" y="-1078"/>
      <point x="782" y="-1045"/>
      <point x="849" y="-994" type="curve"/>
      <point x="799" y="-896" type="line"/>
      <point x="741" y="-939"/>
      <point x="663" y="-966"/>
      <point x="598" y="-966" type="curve" smooth="yes"/>
      <point x="524" y="-966"/>
      <point x="491" y="-934"/>
      <point x="491" y="-875" type="curve" smooth="yes"/>
      <point x="491" y="-811"/>
      <point x="544" y="-775"/>
      <point x="680" y="-760" type="curve"/>
      <point x="667" y="-656" type="line"/>
    </contour>
    <contour>
      <point x="42" y="-399" type="line"/>
      <point x="-29" y="-310"/>
      <point x="-77" y="-235"/>
      <point x="-77" y="-137" type="curve" smooth="yes"/>
      <point x="-77" y="-27"/>
      <point x="-15" y="14"/>
      <point x="59" y="14" type="curve" smooth="yes"/>
      <point x="150" y="14"/>
      <point x="213" y="-58"/>
      <point x="272" y="-167" type="curve"/>
      <point x="296" y="-68" type="line"/>
      <point x="233" y="81"/>
      <point x="147" y="141"/>
      <point x="32" y="141" type="curve" smooth="yes"/>
      <point x="-121" y="141"/>
      <point x="-214" y="43"/>
      <point x="-214" y="-127" type="curve" smooth="yes"/>
      <point x="-214" y="-264"/>
      <point x="-147" y="-374"/>
      <point x="-67" y="-473" type="curve"/>
      <point x="-63" y="-473" type="line"/>
    </contour>
    <contour>
      <point x="631" y="-453" type="line"/>
      <point x="707" y="-372"/>
      <point x="762" y="-259"/>
      <point x="762" y="-143" type="curve" smooth="yes"/>
      <point x="762" y="26"/>
      <point x="667" y="141"/>
      <point x="493" y="141" type="curve" smooth="yes"/>
      <point x="336" y="141"/>
      <point x="220" y="26"/>
      <point x="220" y="-151" type="curve" smooth="yes"/>
      <point x="220" y="-183"/>
      <point x="223" y="-214"/>
      <point x="232" y="-246" type="curve"/>
      <point x="356" y="-232" type="line"/>
      <point x="352" y="-208"/>
      <point x="350" y="-187"/>
      <point x="350" y="-166" type="curve" smooth="yes"/>
      <point x="350" y="-55"/>
      <point x="407" y="13"/>
      <point x="498" y="13" type="curve" smooth="yes"/>
      <point x="585" y="13"/>
      <point x="629" y="-54"/>
      <point x="629" y="-150" type="curve" smooth="yes"/>
      <point x="629" y="-230"/>
      <point x="589" y="-319"/>
      <point x="529" y="-386" type="curve"/>
      <point x="530" y="-391" type="line"/>
    </contour>
    <contour>
      <point x="279" y="28" type="move" name="_bottom"/>
    </contour>
  </outline>
</glyph>
<glyph name="zero-deva" format="1">
  <advance width="969"/>
  <unicode hex="0966"/>
  <outline>
    <contour>
      <point x="231" y="1060"/>
      <point x="99" y="918"/>
      <point x="99" y="646" type="curve" smooth="yes"/>
      <point x="99" y="373"/>
      <point x="231" y="230"/>
      <point x="484" y="230" type="curve" smooth="yes"/>
      <point x="738" y="230"/>
      <point x="870" y="372"/>
      <point x="870" y="645" type="curve" smooth="yes"/>
      <point x="870" y="917"/>
      <point x="738" y="1060"/>
      <point x="484" y="1060" type="curve" smooth="yes"/>
    </contour>
    <contour>
      <point x="636" y="924"/>
      <point x="715" y="827"/>
      <point x="715" y="641" type="curve" smooth="yes"/>
      <point x="715" y="458"/>
      <point x="636" y="366"/>
      <point x="483" y="366" type="curve" smooth="yes"/>
      <point x="332" y="366"/>
      <point x="254" y="457"/>
      <point x="254" y="641" type="curve" smooth="yes"/>
      <point x="254" y="828"/>
      <point x="332" y="924"/>
      <point x="483" y="924" type="curve" smooth="yes"/>
    </contour>
  </outline>
</glyph>
<glyph name="two-deva" format="1">
  <advance width="809"/>
  <unicode hex="0968"/>
  <outline>
    <contour>
      <point x="317" y="1284"/>
      <point x="190" y="1277"/>
      <point x="87" y="1228" type="curve"/>
      <point x="126" y="1105" type="line"/>
      <point x="191" y="1128"/>
      <point x="292" y="1151"/>
      <point x="361" y="1151" type="curve" smooth="yes"/>
      <point x="503" y="1151"/>
      <point x="593" y="1092"/>
      <point x="594" y="947" type="curve" smooth="yes"/>
      <point x="595" y="774"/>
      <point x="459" y="640"/>
      <point x="176" y="577" type="curve"/>
      <point x="292" y="469" type="line"/>
      <point x="564" y="545"/>
      <point x="747" y="717"/>
      <point x="745" y="946" type="curve" smooth="yes"/>
      <point x="744" y="1149"/>
      <point x="616" y="1284"/>
      <point x="371" y="1284" type="curve" smooth="yes"/>
    </contour>
    <contour>
      <point x="220" y="526" type="line"/>
      <point x="647" y="-19" type="line"/>
      <point x="770" y="81" type="line"/>
      <point x="320" y="573" type="line"/>
    </contour>
    <contour>
      <point x="127" y="715" type="line"/>
      <point x="83" y="643"/>
      <point x="75" y="597"/>
      <point x="75" y="568" type="curve" smooth="yes"/>
      <point x="75" y="487"/>
      <point x="136" y="447"/>
      <point x="206" y="447" type="curve" smooth="yes"/>
      <point x="220" y="447"/>
      <point x="273" y="449"/>
      <point x="382" y="474" type="curve"/>
      <point x="377" y="546" type="line"/>
      <point x="222" y="715" type="line"/>
    </contour>
  </outline>
</glyph>
<glyph name="five-deva" format="1">
  <advance width="1042"/>
  <unicode hex="096B"/>
  <outline>
    <contour>
      <point x="189" y="1003"/>
      <point x="103" y="755"/>
      <point x="103" y="567" type="curve" smooth="yes"/>
      <point x="103" y="312"/>
      <point x="268" y="202"/>
      <point x="470" y="202" type="curve" smooth="yes"/>
      <point x="695" y="202"/>
      <point x="889" y="350"/>
      <point x="884" y="501" type="curve" smooth="yes"/>
      <point x="879" y="601"/>
      <point x="770" y="651"/>
      <point x="687" y="668" type="curve"/>
      <point x="574" y="594" type="line"/>
      <point x="732" y="374" type="line"/>
      <point x="767" y="494" type="line"/>
      <point x="676" y="383"/>
      <point x="584" y="347"/>
      <point x="472" y="347" type="curve" smooth="yes"/>
      <point x="364" y="347"/>
      <point x="260" y="409"/>
      <point x="260" y="576" type="curve" smooth="yes"/>
      <point x="260" y="759"/>
      <point x="380" y="993"/>
      <point x="547" y="1187" type="curve"/>
      <point x="418" y="1282" type="line"/>
    </contour>
    <contour>
      <point x="733" y="371" type="line"/>
      <point x="961" y="74" type="line"/>
      <point x="1087" y="178" type="line"/>
      <point x="821" y="447" type="line"/>
    </contour>
  </outline>
</glyph>
<glyph name="seven-deva" format="1">
  <advance width="1106"/>
  <unicode hex="096D"/>
  <outline>
    <contour>
      <point x="157" y="1117"/>
      <point x="100" y="893"/>
      <point x="97" y="649" type="curve" smooth="yes"/>
      <point x="93" y="398"/>
      <point x="171" y="47"/>
      <point x="559" y="47" type="curve" smooth="yes"/>
      <point x="945" y="47"/>
      <point x="1007" y="389"/>
      <point x="1007" y="632" type="curve" smooth="yes"/>
      <point x="1007" y="957"/>
      <point x="883" y="1110"/>
      <point x="675" y="1106" type="curve" smooth="yes"/>
      <point x="501" y="1103"/>
      <point x="416" y="992"/>
      <point x="416" y="830" type="curve" smooth="yes"/>
      <point x="416" y="664"/>
      <point x="524" y="536"/>
      <point x="657" y="482" type="curve"/>
      <point x="729" y="578" type="line"/>
      <point x="591" y="650"/>
      <point x="554" y="736"/>
      <point x="554" y="824" type="curve" smooth="yes"/>
      <point x="554" y="919"/>
      <point x="597" y="971"/>
      <point x="682" y="971" type="curve" smooth="yes"/>
      <point x="808" y="971"/>
      <point x="858" y="850"/>
      <point x="858" y="633" type="curve" smooth="yes"/>
      <point x="858" y="433"/>
      <point x="817" y="191"/>
      <point x="565" y="191" type="curve" smooth="yes"/>
      <point x="345" y="191"/>
      <point x="251" y="338"/>
      <point x="251" y="652" type="curve" smooth="yes"/>
      <point x="251" y="847"/>
      <point x="301" y="1060"/>
      <point x="384" y="1241" type="curve"/>
      <point x="239" y="1295" type="line"/>
    </contour>
  </outline>
</glyph>
<glyph name="aw-deva" format="1">
  <advance width="1942"/>
  <unicode hex="0975"/>
  <outline>
    <contour>
      <point x="1027" y="1793"/>
      <point x="1016" y="1762"/>
      <point x="1016" y="1733" type="curve" smooth="yes"/>
      <point x="1016" y="1659"/>
      <point x="1081" y="1589"/>
      <point x="1204" y="1568" type="curve" smooth="yes"/>
      <point x="1452" y="1527" type="line" smooth="yes"/>
      <point x="1602" y="1500"/>
      <point x="1679" y="1465"/>
      <point x="1679" y="1354" type="curve" smooth="yes"/>
      <point x="1679" y="1323"/>
      <point x="1676" y="1284"/>
      <point x="1654" y="1229" type="curve"/>
      <point x="1713" y="1195" type="line"/>
      <point x="1765" y="1277"/>
      <point x="1785" y="1348"/>
      <point x="1785" y="1409" type="curve" smooth="yes"/>
      <point x="1785" y="1540"/>
      <point x="1688" y="1610"/>
      <point x="1508" y="1641" type="curve" smooth="yes"/>
      <point x="1287" y="1677" type="line" smooth="yes"/>
      <point x="1158" y="1699"/>
      <point x="1121" y="1730"/>
      <point x="1118" y="1779" type="curve" smooth="yes"/>
      <point x="1118" y="1788"/>
      <point x="1118" y="1798"/>
      <point x="1120" y="1808" type="curve"/>
      <point x="1051" y="1822" type="line"/>
    </contour>
    <contour>
      <point x="887" y="1647"/>
      <point x="879" y="1612"/>
      <point x="879" y="1579" type="curve" smooth="yes"/>
      <point x="879" y="1478"/>
      <point x="953" y="1387"/>
      <point x="1121" y="1366" type="curve" smooth="yes"/>
      <point x="1425" y="1328" type="line" smooth="yes"/>
      <point x="1576" y="1307"/>
      <point x="1610" y="1286"/>
      <point x="1610" y="1194" type="curve" smooth="yes"/>
      <point x="1610" y="1172"/>
      <point x="1608" y="1146"/>
      <point x="1606" y="1115" type="curve"/>
      <point x="1662" y="1098" type="line"/>
      <point x="1676" y="1146"/>
      <point x="1686" y="1193"/>
      <point x="1686" y="1233" type="curve" smooth="yes"/>
      <point x="1686" y="1367"/>
      <point x="1616" y="1416"/>
      <point x="1427" y="1445" type="curve" smooth="yes"/>
      <point x="1165" y="1485" type="line" smooth="yes"/>
      <point x="1015" y="1508"/>
      <point x="980" y="1563"/>
      <point x="978" y="1631" type="curve" smooth="yes"/>
      <point x="978" y="1642"/>
      <point x="979" y="1654"/>
      <point x="981" y="1666" type="curve"/>
      <point x="904" y="1680" type="line"/>
    </contour>
    <component base="aa-deva"/>
  </outline>
</glyph>
<glyph name="ue-deva" format="1">
  <advance width="1391"/>
  <unicode hex="0976"/>
  <outline>
    <contour>
      <point x="263" y="1" type="line"/>
      <point x="311" y="-106"/>
      <point x="418" y="-209"/>
      <point x="589" y="-209" type="curve" smooth="yes"/>
      <point x="737" y="-209"/>
      <point x="845" y="-133"/>
      <point x="911" y="6" type="curve"/>
      <point x="814" y="63" type="line"/>
      <point x="772" y="-4"/>
      <point x="702" y="-73"/>
      <point x="581" y="-73" type="curve" smooth="yes"/>
      <point x="456" y="-73"/>
      <point x="390" y="-14"/>
      <point x="346" y="60" type="curve"/>
    </contour>
    <component base="a-deva"/>
  </outline>
</glyph>
<glyph name="jjya-deva" format="1">
  <advance width="1148"/>
  <unicode hex="097A"/>
  <outline>
    <contour>
      <point x="174" y="1146" type="line"/>
      <point x="268" y="1055"/>
      <point x="306" y="991"/>
      <point x="301" y="903" type="curve" smooth="yes"/>
      <point x="293" y="812"/>
      <point x="228" y="741"/>
      <point x="47" y="675" type="curve"/>
      <point x="99" y="402"/>
      <point x="264" y="258"/>
      <point x="488" y="258" type="curve" smooth="yes"/>
      <point x="610" y="258"/>
      <point x="751" y="311"/>
      <point x="834" y="425" type="curve"/>
      <point x="839" y="624" type="line"/>
      <point x="749" y="467"/>
      <point x="620" y="400"/>
      <point x="481" y="400" type="curve" smooth="yes"/>
      <point x="335" y="400"/>
      <point x="245" y="469"/>
      <point x="185" y="651" type="curve"/>
      <point x="158" y="577" type="line"/>
      <point x="387" y="650"/>
      <point x="433" y="753"/>
      <point x="433" y="838" type="curve" smooth="yes"/>
      <point x="433" y="930"/>
      <point x="378" y="1035"/>
      <point x="279" y="1149" type="curve"/>
    </contour>
    <contour>
      <point x="246" y="1095" type="line"/>
      <point x="839" y="478" type="line"/>
      <point x="927" y="562" type="line"/>
      <point x="324" y="1175" type="line"/>
    </contour>
    <contour>
      <point x="792" y="1210" type="line"/>
      <point x="792" y="0" type="line"/>
      <point x="948" y="0" type="line"/>
      <point x="948" y="1210" type="line"/>
    </contour>
    <contour>
      <point x="-15" y="1262" type="line"/>
      <point x="-15" y="1129" type="line"/>
      <point x="1163" y="1129" type="line"/>
      <point x="1163" y="1262" type="line"/>
    </contour>
    <contour>
      <point x="350" y="42" type="move" name="nukta"/>
    </contour>
    <contour>
      <point x="872" y="1168" type="move" name="top"/>
    </contour>
    <contour>
      <point x="584" y="1168" type="move" name="topcandra"/>
    </contour>
    <contour>
      <point x="872" y="28" type="move" name="bottom"/>
    </contour>
  </outline>
</glyph>
<glyph name="jja-deva" format="1">
  <advance width="1420"/>
  <unicode hex="097C"/>
  <outline>
    <contour>
      <point x="126" y="58" type="line"/>
      <point x="126" y="-68" type="line"/>
      <point x="1220" y="-68" type="line"/>
      <point x="1220" y="58" type="line"/>
    </contour>
    <component base="ja-deva"/>
  </outline>
</glyph>
<glyph name="glottalstop-deva" format="1">
  <advance width="916"/>
  <unicode hex="097D"/>
  <outline>
    <contour>
      <point x="319" y="1280"/>
      <point x="224" y="1258"/>
      <point x="143" y="1222" type="curve"/>
      <point x="183" y="1094" type="line"/>
      <point x="255" y="1118"/>
      <point x="333" y="1143"/>
      <point x="443" y="1143" type="curve" smooth="yes"/>
      <point x="614" y="1143"/>
      <point x="698" y="1082"/>
      <point x="698" y="932" type="curve" smooth="yes"/>
      <point x="698" y="821"/>
      <point x="653" y="757"/>
      <point x="526" y="650" type="curve" smooth="yes"/>
      <point x="372" y="520"/>
      <point x="320" y="473"/>
      <point x="319" y="292" type="curve" smooth="yes"/>
      <point x="317" y="1" type="line"/>
      <point x="468" y="1" type="line"/>
      <point x="469" y="247" type="line" smooth="yes"/>
      <point x="471" y="406"/>
      <point x="506" y="436"/>
      <point x="629" y="543" type="curve" smooth="yes"/>
      <point x="793" y="683"/>
      <point x="848" y="780"/>
      <point x="848" y="940" type="curve" smooth="yes"/>
      <point x="848" y="1197"/>
      <point x="655" y="1280"/>
      <point x="440" y="1280" type="curve" smooth="yes"/>
    </contour>
  </outline>
</glyph>
<glyph name="ddda-deva" format="1">
  <advance width="1011"/>
  <unicode hex="097E"/>
  <outline>
    <contour>
      <point x="101" y="-164" type="line"/>
      <point x="101" y="-290" type="line"/>
      <point x="929" y="-290" type="line"/>
      <point x="929" y="-164" type="line"/>
    </contour>
    <component base="dda-deva"/>
  </outline>
</glyph>
<glyph name="g.sups" format="1">
  <advance width="701"/>
  <unicode hex="1D4D"/>
  <outline>
    <contour>
      <point x="169" y="428" type="curve" name="hr01" smooth="yes"/>
      <point x="169" y="463"/>
      <point x="192" y="498"/>
      <point x="233" y="526" type="curve"/>
      <point x="262" y="518"/>
      <point x="297" y="518"/>
      <point x="319" y="518" type="curve" smooth="yes"/>
      <point x="428" y="518" type="line"/>
      <point x="511" y="518"/>
      <point x="558" y="500"/>
      <point x="558" y="444" type="curve" smooth="yes"/>
      <point x="558" y="379"/>
      <point x="475" y="321"/>
      <point x="356" y="321" type="curve" smooth="yes"/>
      <point x="239" y="321"/>
      <point x="169" y="359"/>
    </contour>
    <contour>
      <point x="61" y="410" type="curve" smooth="yes"/>
      <point x="61" y="293"/>
      <point x="172" y="233"/>
      <point x="336" y="233" type="curve" smooth="yes"/>
      <point x="549" y="233"/>
      <point x="679" y="338"/>
      <point x="679" y="463" type="curve" smooth="yes"/>
      <point x="679" y="574"/>
      <point x="604" y="622"/>
      <point x="444" y="622" type="curve" smooth="yes"/>
      <point x="317" y="622" type="line"/>
      <point x="230" y="622"/>
      <point x="202" y="647"/>
      <point x="202" y="688" type="curve" name="hr02" smooth="yes"/>
      <point x="202" y="721"/>
      <point x="219" y="741"/>
      <point x="242" y="760" type="curve"/>
      <point x="274" y="743"/>
      <point x="309" y="737"/>
      <point x="340" y="737" type="curve" smooth="yes"/>
      <point x="477" y="737"/>
      <point x="590" y="823"/>
      <point x="590" y="969" type="curve" smooth="yes"/>
      <point x="590" y="1016"/>
      <point x="568" y="1065"/>
      <point x="542" y="1093" type="curve"/>
      <point x="670" y="1093" type="line"/>
      <point x="670" y="1190" type="line"/>
      <point x="444" y="1190" type="line"/>
      <point x="414" y="1202"/>
      <point x="381" y="1208"/>
      <point x="340" y="1208" type="curve" name="hr03" smooth="yes"/>
      <point x="201" y="1208"/>
      <point x="82" y="1118"/>
      <point x="82" y="971" type="curve" smooth="yes"/>
      <point x="82" y="893"/>
      <point x="125" y="829"/>
      <point x="170" y="797" type="curve"/>
      <point x="170" y="788" type="line"/>
      <point x="133" y="764"/>
      <point x="96" y="719"/>
      <point x="96" y="670" type="curve" name="hr04" smooth="yes"/>
      <point x="96" y="616"/>
      <point x="121" y="582"/>
      <point x="156" y="559" type="curve"/>
      <point x="156" y="551" type="line"/>
      <point x="94" y="514"/>
      <point x="61" y="467"/>
    </contour>
    <contour>
      <point x="340" y="822" type="curve" name="hr06" smooth="yes"/>
      <point x="259" y="822"/>
      <point x="202" y="881"/>
      <point x="202" y="971" type="curve" smooth="yes"/>
      <point x="202" y="1063"/>
      <point x="259" y="1116"/>
      <point x="340" y="1116" type="curve" smooth="yes"/>
      <point x="414" y="1116"/>
      <point x="476" y="1063"/>
      <point x="476" y="971" type="curve" smooth="yes"/>
      <point x="476" y="881"/>
      <point x="414" y="822"/>
    </contour>
  </outline>
</glyph>
<glyph name="k.sups" format="1">
  <advance width="688"/>
  <unicode hex="1D4F"/>
  <outline>
    <contour>
      <point x="106" y="532" type="line" name="hr00"/>
      <point x="232" y="532" type="line"/>
      <point x="232" y="698" type="line"/>
      <point x="348" y="837" type="line"/>
      <point x="539" y="532" type="line"/>
      <point x="679" y="532" type="line"/>
      <point x="421" y="922" type="line"/>
      <point x="650" y="1192" type="line"/>
      <point x="510" y="1192" type="line"/>
      <point x="241" y="861" type="line"/>
      <point x="232" y="861" type="line"/>
      <point x="232" y="1493" type="line"/>
      <point x="106" y="1493" type="line"/>
    </contour>
  </outline>
</glyph>
<glyph name="p.sups" format="1">
  <advance width="765"/>
  <unicode hex="1D56"/>
  <outline>
    <contour>
      <point x="106" y="252" type="line" name="hr01"/>
      <point x="232" y="252" type="line"/>
      <point x="232" y="465" type="line"/>
      <point x="224" y="592" type="line"/>
      <point x="280" y="543"/>
      <point x="351" y="516"/>
      <point x="411" y="516" type="curve" smooth="yes"/>
      <point x="563" y="516"/>
      <point x="697" y="647"/>
      <point x="697" y="874" type="curve" smooth="yes"/>
      <point x="697" y="1077"/>
      <point x="604" y="1208"/>
      <point x="431" y="1208" type="curve" name="hr02" smooth="yes"/>
      <point x="351" y="1208"/>
      <point x="280" y="1163"/>
      <point x="226" y="1116" type="curve"/>
      <point x="220" y="1116" type="line"/>
      <point x="206" y="1192" type="line" name="hr03"/>
      <point x="106" y="1192" type="line"/>
    </contour>
    <contour>
      <point x="232" y="685" type="curve"/>
      <point x="232" y="1016" type="line" name="hr04"/>
      <point x="290" y="1072"/>
      <point x="348" y="1103"/>
      <point x="401" y="1103" type="curve" smooth="yes"/>
      <point x="517" y="1103"/>
      <point x="568" y="1014"/>
      <point x="568" y="872" type="curve" smooth="yes"/>
      <point x="568" y="713"/>
      <point x="492" y="620"/>
      <point x="393" y="620" type="curve" smooth="yes"/>
      <point x="346" y="620"/>
      <point x="286" y="638"/>
    </contour>
  </outline>
</glyph>
<glyph name="t.sups" format="1">
  <advance width="474"/>
  <unicode hex="1D57"/>
  <outline>
    <contour>
      <point x="131" y="747" type="line" name="hr01"/>
      <point x="131" y="610"/>
      <point x="182" y="516"/>
      <point x="328" y="516" type="curve" smooth="yes"/>
      <point x="374" y="516"/>
      <point x="423" y="528"/>
      <point x="460" y="541" type="curve"/>
      <point x="433" y="634" type="line"/>
      <point x="409" y="624"/>
      <point x="384" y="617"/>
      <point x="357" y="617" type="curve" smooth="yes"/>
      <point x="288" y="617"/>
      <point x="257" y="663"/>
      <point x="257" y="744" type="curve" smooth="yes"/>
      <point x="257" y="1091" type="line"/>
      <point x="437" y="1091" type="line"/>
      <point x="437" y="1192" type="line"/>
      <point x="257" y="1192" type="line"/>
      <point x="257" y="1376" type="line"/>
      <point x="152" y="1376" type="line"/>
      <point x="135" y="1192" type="line"/>
      <point x="33" y="1186" type="line" name="hr02"/>
      <point x="33" y="1091" type="line" name="hr03"/>
      <point x="131" y="1091" type="line"/>
    </contour>
  </outline>
</glyph>
<glyph name="f.sups" format="1">
  <advance width="411"/>
  <unicode hex="1DA0"/>
  <outline>
    <contour>
      <point x="450" y="1493" type="line" name="hr01"/>
      <point x="415" y="1507"/>
      <point x="380" y="1516"/>
      <point x="335" y="1516" type="curve" smooth="yes"/>
      <point x="195" y="1516"/>
      <point x="131" y="1414"/>
      <point x="131" y="1279" type="curve" smooth="yes"/>
      <point x="131" y="1192" type="line"/>
      <point x="39" y="1186" type="line" name="hr02"/>
      <point x="39" y="1093" type="line" name="hr03"/>
      <point x="131" y="1093" type="line"/>
      <point x="131" y="532" type="line"/>
      <point x="257" y="532" type="line"/>
      <point x="257" y="1093" type="line"/>
      <point x="396" y="1093" type="line"/>
      <point x="396" y="1192" type="line"/>
      <point x="257" y="1192" type="line"/>
      <point x="257" y="1287" type="line"/>
      <point x="257" y="1365"/>
      <point x="288" y="1414"/>
      <point x="347" y="1414" type="curve" smooth="yes"/>
      <point x="380" y="1414"/>
      <point x="405" y="1406"/>
      <point x="423" y="1400" type="curve"/>
    </contour>
  </outline>
</glyph>
<glyph name="quoteleft" format="1">
  <advance width="508"/>
  <unicode hex="2018"/>
  <outline>
    <contour>
      <point x="333" y="1425" type="line" name="hr00"/>
      <point x="193" y="1344"/>
      <point x="98" y="1197"/>
      <point x="98" y="1033" type="curve" smooth="yes"/>
      <point x="98" y="915"/>
      <point x="164" y="850"/>
      <point x="245" y="850" type="curve" smooth="yes"/>
      <point x="308" y="850"/>
      <point x="352" y="893"/>
      <point x="352" y="962" type="curve" smooth="yes"/>
      <point x="352" y="1029"/>
      <point x="300" y="1066"/>
      <point x="245" y="1066" type="curve" smooth="yes"/>
      <point x="239" y="1066"/>
      <point x="232" y="1066"/>
      <point x="226" y="1064" type="curve"/>
      <point x="226" y="1180"/>
      <point x="278" y="1279"/>
      <point x="382" y="1347" type="curve"/>
    </contour>
  </outline>
</glyph>
<glyph name="bullet" format="1">
  <advance width="621"/>
  <unicode hex="2022"/>
  <outline>
    <contour>
      <point x="310" y="294" type="curve" name="hr00" smooth="yes"/>
      <point x="433" y="294"/>
      <point x="540" y="391"/>
      <point x="540" y="539" type="curve" smooth="yes"/>
      <point x="540" y="686"/>
      <point x="433" y="785"/>
      <point x="310" y="785" type="curve" smooth="yes"/>
      <point x="188" y="785"/>
      <point x="82" y="686"/>
      <point x="82" y="539" type="curve" smooth="yes"/>
      <point x="82" y="391"/>
      <point x="188" y="294"/>
    </contour>
  </outline>
</glyph>
